<?xml version="1.0" encoding="utf-8"?>
<!-- Generator: Adobe Illustrator 14.0.0, SVG Export Plug-In . SVG Version: 6.00 Build 43363)  -->
<!DOCTYPE svg PUBLIC "-//W3C//DTD SVG 1.1//EN" "http://www.w3.org/Graphics/SVG/1.1/DTD/svg11.dtd">
<svg version="1.1" id="Calque_1" xmlns="http://www.w3.org/2000/svg" xmlns:xlink="http://www.w3.org/1999/xlink" x="0px" y="0px"
     width="700.465px" height="218.989px" viewBox="0 0 700.465 218.989" enable-background="new 0 0 700.465 218.989"
     xml:space="preserve">
<g>
	<path fill="#FFFFFF" d="M230.555,35.538c-6.819-8.197-19.341-12.182-38.281-12.182h-50.865L128.791,91.44l-50.557-0.025
		L72.596,117.7H15.662l85.117,27.189l5.786-24.639h16.886l-13.938,75.24h53.844c33.472,0,53.832-14.406,58.877-41.663l2.517-13.625
		c3.34-18.003-1.253-29.919-14.032-36.255c13.067-6.204,20.647-16.897,23.688-33.253l1.107-5.972
		C237.88,51.939,236.258,42.393,230.555,35.538z M187.888,137.634l-2.7,14.568c-1.923,10.418-6.802,14.479-17.403,14.479h-15.583
		l8.603-46.449h12.371c7.107,0,11.392,1.172,13.484,3.689C188.734,126.417,189.136,130.901,187.888,137.634z M197.843,66.45
		l-1.725,9.312c-2.036,10.986-8.102,15.674-20.282,15.674h-9.697l7.277-39.296h13.554c4.844,0,8.015,0.98,9.693,2.999
		C198.465,57.306,198.852,61.007,197.843,66.45z"/>
    <path fill="#FFFFFF" d="M271.524,197.642c-17.253,0-29.665-4.39-36.89-13.049c-6.434-7.711-8.456-18.437-6.009-31.878
		l23.569-129.315h37.28l-24.03,131.862c-0.853,4.679-0.407,8.104,1.325,10.18c1.752,2.1,5.128,3.165,10.035,3.165
		c10.161,0,15.49-4.387,17.28-14.224l23.873-130.983h35.517l-23.721,130.194C324.573,181.999,303.894,197.642,271.524,197.642
		L271.524,197.642z"/>
    <path fill="#FFFFFF" d="M452.206,35.562c-6.828-8.187-19.334-12.167-38.231-12.167H363.2l-31.354,172.087h37.27l12.412-68.059
		h9.106c6.761,0,11.125,1.293,13.342,3.951c2.285,2.739,2.779,7.452,1.511,14.408l-4.795,26.265
		c-2.525,13.869-1.85,16.823-0.827,21.295l0.488,2.14h38.253l-1.098-3.239c-1.941-5.726-1.159-11.271,0.256-19.075l4.706-25.795
		c2.146-11.758,3.04-27.73-11.73-35.911c13.232-6.252,21.136-17.29,24.1-33.592l2.394-13.124
		C459.565,51.959,457.921,42.414,452.206,35.562z M419.65,66.49l-3.009,16.486c-1.999,10.975-8.035,15.656-20.184,15.656h-9.687
		l8.471-46.444h13.514c4.83,0,7.996,0.979,9.679,2.996C420.243,57.351,420.641,61.05,419.65,66.49z"/>
    <path fill="#FFFFFF" d="M490.253,197.396c-17.255,0-29.666-4.39-36.889-13.047c-6.433-7.709-8.452-18.433-6.005-31.874
		l2.244-12.276h35.511l-2.704,14.824c-0.852,4.682-0.404,8.109,1.329,10.187c1.753,2.102,5.129,3.167,10.033,3.167
		c10.162,0,15.491-4.39,17.277-14.232c1.847-10.104-0.758-18.132-20.116-33.966c-23.341-19.223-30.617-34.031-26.856-54.643
		c5.178-28.404,25.646-44.047,57.634-44.047c16.979,0,29.205,4.335,36.339,12.884c6.432,7.708,8.442,18.489,5.976,32.042
		l-1.328,7.268h-35.508l1.78-9.816c0.9-4.937,0.473-8.5-1.272-10.592c-1.681-2.016-4.771-2.995-9.447-2.995
		c-9.756,0-14.921,4.461-16.746,14.465c-1.839,10.104,0.769,18.132,20.126,33.967c23.338,19.217,30.614,34.025,26.854,54.643
		C543.297,181.755,522.616,197.396,490.253,197.396L490.253,197.396z"/>
    <path fill="#FFFFFF" d="M613.053,195.481h-37.277l26.111-143.293h-33.769l5.26-28.789h104.796l-5.248,28.789h-33.757
		L613.053,195.481L613.053,195.481z"/>
</g>
</svg>
