<svg id="icons" enable-background="new 0 0 64 64" height="512" viewBox="0 0 64 64" width="512" xmlns="http://www.w3.org/2000/svg"><g><g><circle cx="32" cy="32" fill="#e6e9ed" r="29"/></g><g><g><g><path d="m26 30.712c0 2.61 1.67 4.84 4 5.65v4c-2.33-.811-4-3.04-4-5.65z" fill="#f6bb42"/></g><g><path d="m38 30.712v4c0 2.61-1.67 4.84-4 5.65v-4c2.33-.81 4-3.04 4-5.65z" fill="#f6bb42"/></g><g><path d="m34 36.362v4 .01c-.63.22-1.3.34-2 .34s-1.37-.12-2-.34v-.01-4c.63.229 1.3.35 2 .35s1.37-.12 2-.35z" fill="#f6bb42"/></g></g><g><path d="m38 30.712c0 2.61-1.67 4.84-4 5.65-.63.229-1.3.35-2 .35s-1.37-.12-2-.35c-2.33-.811-4-3.04-4-5.65 0-3.32 2.69-6 6-6s6 2.68 6 6z" fill="#ffce54"/></g><g><path d="m48.57 36.432-16.57 16.57-16.57-16.57c-4.569-4.569-4.569-11.989 0-16.569 4.58-4.591 12-4.591 16.57 0 4.57-4.591 11.99-4.591 16.57-.011 4.57 4.58 4.57 12 0 16.58zm-10.57-1.72v-4c0-3.32-2.69-6-6-6s-6 2.68-6 6v4c0 2.61 1.67 4.84 4 5.65v.01c.63.22 1.3.34 2 .34s1.37-.12 2-.34v-.01c2.33-.81 4-3.04 4-5.65z" fill="#ed5565"/></g></g></g><g><g><g><path d="m3 33c-.553 0-1-.447-1-1 0-16.542 13.458-30 30-30 14.907 0 27.683 11.119 29.716 25.863.076.547-.307 1.052-.854 1.127-.565.078-1.053-.308-1.127-.854-1.898-13.759-13.822-24.136-27.735-24.136-15.439 0-28 12.561-28 28 0 .553-.447 1-1 1z"/></g><g><path d="m32 62c-14.907 0-27.684-11.118-29.718-25.862-.076-.547.307-1.052.854-1.127.543-.087 1.052.307 1.127.854 1.899 13.759 13.823 24.135 27.737 24.135 15.439 0 28-12.561 28-28 0-.553.447-1 1-1s1 .447 1 1c0 16.542-13.458 30-30 30z"/></g><g><path d="m63 35c-.256 0-.512-.098-.707-.293l-2-2c-.391-.391-.391-1.023 0-1.414s1.023-.391 1.414 0l2 2c.391.391.391 1.023 0 1.414-.195.195-.451.293-.707.293z"/></g><g><path d="m59 35c-.256 0-.512-.098-.707-.293-.391-.391-.391-1.023 0-1.414l2-2c.391-.391 1.023-.391 1.414 0s.391 1.023 0 1.414l-2 2c-.195.195-.451.293-.707.293z"/></g><g><path d="m3 33c-.256 0-.512-.098-.707-.293l-2-2c-.391-.391-.391-1.023 0-1.414s1.023-.391 1.414 0l2 2c.391.391.391 1.023 0 1.414-.195.195-.451.293-.707.293z"/></g><g><path d="m3 33c-.256 0-.512-.098-.707-.293-.391-.391-.391-1.023 0-1.414l2-2c.391-.391 1.023-.391 1.414 0s.391 1.023 0 1.414l-2 2c-.195.195-.451.293-.707.293z"/></g></g><g><g><path d="m32 54c-.256 0-.512-.098-.707-.293l-16.572-16.569c-4.952-4.956-4.952-13.022-.001-17.981 2.403-2.408 5.599-3.734 8.996-3.734 3.074 0 5.98 1.085 8.284 3.076 2.305-1.992 5.214-3.078 8.291-3.078 3.394 0 6.585 1.321 8.987 3.722 4.937 4.948 4.953 12.981.052 17.941-.017.019-.033.038-.052.056l-16.571 16.567c-.195.195-.451.293-.707.293zm-8.284-36.578c-2.862 0-5.555 1.118-7.58 3.147-4.174 4.18-4.174 10.978-.001 15.154l15.865 15.863 15.77-15.767c.049-.064.105-.122.168-.173 4.101-4.183 4.076-10.931-.074-15.092-2.023-2.021-4.713-3.135-7.572-3.135-2.865 0-5.558 1.118-7.581 3.148-.075.076-.162.139-.257.187-.023.012-.047.022-.071.032-.372.157-.804.069-1.09-.218-2.024-2.029-4.715-3.146-7.577-3.146z"/></g><g><path d="m32 37.706c-3.859 0-7-3.14-7-6.999s3.141-7 7-7 7 3.141 7 7-3.141 6.999-7 6.999zm0-11.999c-2.757 0-5 2.243-5 5s2.243 4.999 5 4.999 5-2.242 5-4.999-2.243-5-5-5z"/></g><g><path d="m32 41.71c-3.859 0-7-3.141-7-7 0-.553.447-1 1-1s1 .447 1 1c0 2.757 2.243 5 5 5s5-2.243 5-5c0-.553.447-1 1-1s1 .447 1 1c0 3.859-3.141 7-7 7z"/></g><g><path d="m26 35.71c-.553 0-1-.447-1-1v-4.003c0-.553.447-1 1-1s1 .447 1 1v4.003c0 .553-.447 1-1 1z"/></g><g><path d="m38 35.71c-.553 0-1-.447-1-1v-4.003c0-.553.447-1 1-1s1 .447 1 1v4.003c0 .553-.447 1-1 1z"/></g><g><path d="m34 41.365c-.553 0-1-.447-1-1v-4.003c0-.553.447-1 1-1s1 .447 1 1v4.003c0 .553-.447 1-1 1z"/></g><g><path d="m30 41.365c-.553 0-1-.447-1-1v-4.003c0-.553.447-1 1-1s1 .447 1 1v4.003c0 .553-.447 1-1 1z"/></g><g><path d="m32 32.708c-.553 0-1-.447-1-1v-2c0-.553.447-1 1-1s1 .447 1 1v2c0 .553-.447 1-1 1z"/></g></g></g></svg>