<?xml version="1.0" encoding="iso-8859-1"?>
<!-- Generator: Adobe Illustrator 19.0.0, SVG Export Plug-In . SVG Version: 6.00 Build 0)  -->
<svg version="1.1" id="Layer_1" xmlns="http://www.w3.org/2000/svg" xmlns:xlink="http://www.w3.org/1999/xlink" x="0px" y="0px"
	 viewBox="0 0 339.556 339.556" style="enable-background:new 0 0 339.556 339.556;" xml:space="preserve">
<circle style="fill:#F9C890;" cx="167.854" cy="94.51" r="69.101"/>
<path style="fill:#F3A069;" d="M167.854,152.767c-32.175,0-58.257-26.083-58.257-58.257s26.083-58.257,58.257-58.257V152.767z"/>
<path style="fill:#956958;" d="M172.143,86.318c-1.726-0.714-3.136-1.349-4.289-1.923c-4.682-2.334-5.103-3.668-5.103-5.272
	c0-2.39,1.886-3.905,5.102-4.164c0.326-0.026,0.666-0.04,1.019-0.04c2.807,0,5.338,0.504,7.74,1.541
	c1.751,0.754,3.686,0.759,5.451,0.012c1.76-0.745,3.158-2.198,3.836-3.987l0.282-0.745c1.332-3.519-0.315-7.436-3.748-8.915
	c-2.305-0.994-4.827-1.69-7.507-2.073v-2.625c0-3.867-3.146-7.014-7.013-7.014s-7.014,3.146-7.014,7.014v3.504
	c-8.951,2.706-14.476,9.787-14.476,18.642c0,11.577,9.293,16.783,18.34,20.33c1.191,0.483,2.212,0.95,3.088,1.404
	c4.765,2.465,5.223,4.505,5.223,6.26c0,3.133-2.494,4.663-5.221,5.163c-0.713,0.131-1.441,0.191-2.146,0.191
	c-3.079,0-6.349-0.751-9.207-2.114c-1.764-0.841-3.817-0.894-5.634-0.144c-1.847,0.761-3.292,2.276-3.965,4.157l-0.278,0.775
	c-1.198,3.346,0.279,7.055,3.436,8.627c2.927,1.457,6.508,2.51,10.169,3v2.973c0,3.867,3.146,7.013,7.109,7.013
	c0.173,0,0.345-0.006,0.514-0.019c3.628-0.264,6.499-3.301,6.499-6.994v-3.796c9.228-2.786,15.147-10.368,15.147-19.503
	C189.498,95.008,180.213,89.609,172.143,86.318z"/>
<path style="fill:#7C5849;" d="M156.501,111.506c-1.764-0.841-3.817-0.894-5.634-0.144c-1.847,0.761-3.292,2.276-3.965,4.156
	l-0.278,0.775c-1.198,3.346,0.279,7.055,3.436,8.627c2.927,1.457,6.508,2.51,10.169,3v2.972c0,3.867,3.146,7.013,7.109,7.013
	c0.173,0,0.514-0.019,0.514-0.019l0.001-24.457c-0.713,0.131-1.441,0.191-2.145,0.191
	C162.629,113.621,159.359,112.87,156.501,111.506z"/>
<path style="fill:#7C5849;" d="M164.764,100.604c1.191,0.483,2.212,0.95,3.088,1.404l0.002-17.613
	c-4.682-2.334-5.103-3.668-5.103-5.272c0-2.39,1.886-3.905,5.102-4.164V51.115c-3.84,0.032-6.954,3.166-6.954,7.013v3.504
	c-8.951,2.706-14.476,9.787-14.476,18.642C146.424,91.851,155.717,97.056,164.764,100.604z"/>
<path style="fill:#C39F73;" d="M258.111,235.578l63.542-49.535c7.812-6.221,9.732-17.304,4.467-25.789l0,0
	c-6.191-9.979-19.684-12.357-28.913-5.095l-87.26,68.112"/>
<path style="fill:#D9B07F;" d="M116.715,241.519l107.679-6.252c9.644-0.56,17.179-8.544,17.179-18.205l0,0
	c0-10.071-8.164-18.236-18.236-18.236h-38.696c-7.585,0-15.061-1.797-21.817-5.244l-13.674-6.977
	c-10.176-5.192-21.512-7.687-32.928-7.248l0,0c-15.805,0.608-30.881,6.804-42.546,17.485L0,264.304l38.579,49.842l53.634-33.54
	h116.195c13.312,0,26.23-4.517,36.641-12.813l87.079-69.383c7.812-6.221,9.732-17.304,4.467-25.789l0,0
	c-6.191-9.979-19.684-12.357-28.913-5.095l-64.887,51.977"/>
<path style="fill:#C39F73;" d="M109.973,247.322l113.739-6.604c10.984-0.638,19.564-9.731,19.564-20.733l0,0
	c0-11.47-9.298-20.768-20.768-20.768h-44.069c-3.671,0-10.844,5.886-17.878,12.655c-14.728,14.171-32.177,25.209-51.193,32.702l0,0
	C107.86,245.167,108.355,247.416,109.973,247.322z"/>
<path style="fill:#D9B07F;" d="M116.715,241.519l107.679-6.252c9.644-0.56,17.179-8.544,17.179-18.205l0,0
	c0-10.071-8.164-18.236-18.236-18.236h-38.696c-7.585,0-15.061-1.797-21.817-5.244l-13.674-6.977
	c-10.176-5.192-21.512-7.687-32.928-7.248l0,0c-15.805,0.608-30.881,6.804-42.546,17.485"/>
<path style="fill:#C39F73;" d="M164.778,194.506c-0.656-0.298-1.311-0.597-1.954-0.925l-13.674-6.977
	c-10.176-5.192-21.513-7.687-32.928-7.248l0,0c-15.805,0.608-30.881,6.804-42.546,17.485L0,264.304l38.579,49.842l53.634-33.54
	h72.565V194.506z"/>
<path style="fill:#C39F73;" d="M164.778,194.506c-0.656-0.298-1.311-0.597-1.954-0.925l-13.674-6.977
	c-10.176-5.192-21.513-7.687-32.928-7.248l0,0c-15.805,0.608-30.881,6.804-42.546,17.485l43.039,44.677l48.062-2.791
	L164.778,194.506L164.778,194.506z"/>
<path style="fill:#AD8E67;" d="M116.716,241.518l-0.038-0.039c-2.409,1.089-4.846,2.122-7.31,3.093l0,0
	c-1.508,0.594-1.013,2.843,0.605,2.749l54.59-3.17v-5.412L116.716,241.518z"/>
<g>
</g>
<g>
</g>
<g>
</g>
<g>
</g>
<g>
</g>
<g>
</g>
<g>
</g>
<g>
</g>
<g>
</g>
<g>
</g>
<g>
</g>
<g>
</g>
<g>
</g>
<g>
</g>
<g>
</g>
</svg>
