<?xml version="1.0" encoding="UTF-8" standalone="no"?>
<svg
   xmlns="http://www.w3.org/2000/svg"
   height="76.430321"
   width="85.421005"
   id="svg14"
   version="1.1"
   viewBox="0 0 85.421008 76.430321"
>
  <defs id="defs18" />
  <path
     style="fill:#4ad295"
     id="path10"
     d="m 46.275039,26.500016 h -19.4 l -6.1,-10.5 h 31.6 l 9.2,-15.999999921624 H 9.3750389 a 9.3,9.3 0 0 0 -8.1,4.700000021624 9.3,9.3 0 0 0 0,9.3999999 l 33.3000001,57.7 a 9.4,9.4 0 0 0 16.2,0 l 1.1,-1.9 -15.3,-26.6 z" />
  <path
     style="fill:#4ad295"
     id="path12"
     d="m 84.175039,4.7000161 a 9.3,9.3 0 0 0 -8.1,-4.700000021624 h -2.3 l -25,43.299999921624 9.2,16 26.2,-45.3 a 9.3,9.3 0 0 0 0,-9.2999999 z" />
</svg>
