<?xml version="1.0" encoding="iso-8859-1"?>
<!-- Generator: Adobe Illustrator 19.0.0, SVG Export Plug-In . SVG Version: 6.00 Build 0)  -->
<svg version="1.1" id="Capa_1" xmlns="http://www.w3.org/2000/svg" xmlns:xlink="http://www.w3.org/1999/xlink" x="0px" y="0px"
	 viewBox="0 0 504.911 504.911" style="enable-background:new 0 0 504.911 504.911;" xml:space="preserve">
<circle style="fill:#FBBD5E;" cx="252.455" cy="252.455" r="252.062"/>
<path style="fill:#FFFFFF;" d="M444.652,460.406l-33.083-37.022l33.083-37.022h51.988c-12.603-21.268-36.234-36.234-63.015-36.234
	c-30.72,0-57.502,18.905-67.742,46.474H139.028c-11.028-26.782-37.022-46.474-67.742-46.474c-26.782,0-50.412,14.178-63.015,36.234
	h51.988l33.083,37.022l-33.083,37.022H8.271c12.603,21.268,36.234,36.234,63.015,36.234c30.72,0,57.502-18.905,67.742-46.474
	h226.855c11.028,26.782,37.022,46.474,67.742,46.474c26.782,0,50.412-14.178,63.015-36.234H444.652z"/>
<path style="fill:#183651;" d="M433.625,504.517c-31.508,0-59.865-18.117-73.255-46.474H143.754
	c-13.391,28.357-41.748,46.474-73.255,46.474c-28.357,0-55.138-14.966-69.317-39.385c-1.575-2.363-1.575-5.514,0-7.877
	s3.938-3.938,7.089-3.938h48.837l25.994-29.145l-25.994-29.145H8.271c-3.151,0-5.514-1.575-7.089-3.938
	c-1.575-2.363-1.575-5.514,0-7.877c14.178-24.418,40.96-39.385,69.317-39.385c31.508,0,59.865,18.117,73.255,46.474h216.615
	c13.391-28.357,41.748-46.474,73.255-46.474c27.569,0,54.351,14.966,68.529,38.597c1.575,1.575,2.363,3.151,2.363,5.514
	c0,4.726-3.151,7.877-7.877,7.877l0,0h-48.837l-25.994,27.569l25.994,29.145h48.837c3.151,0,5.514,1.575,7.089,3.938
	c1.575,2.363,1.575,5.514,0,7.877C488.763,489.551,461.982,504.517,433.625,504.517z M139.028,442.289h226.855
	c3.151,0,6.302,2.363,7.089,4.726c10.24,25.206,33.871,40.96,60.652,40.96c18.117,0,34.658-7.089,47.262-20.48h-36.234
	c-2.363,0-4.726-0.788-5.514-2.363l-33.083-36.234c-2.363-3.151-2.363-7.089,0-10.24l33.083-37.022
	c1.575-1.575,3.938-2.363,5.514-2.363h36.234c-11.815-12.603-29.145-20.48-47.262-20.48c-26.782,0-50.412,16.542-60.652,40.96
	c-1.575,3.151-3.938,4.726-7.089,4.726H139.028c-3.151,0-6.302-2.363-7.089-4.726c-10.24-25.206-33.871-40.96-60.652-40.96
	c-18.117,0-34.658,7.089-47.262,20.48h36.234c2.363,0,4.726,0.788,5.514,2.363l33.083,37.022c2.363,3.151,2.363,7.089,0,10.24
	L65.772,465.92c-1.575,1.575-3.938,2.363-5.514,2.363H24.025c11.815,12.603,29.145,20.48,47.262,20.48
	c26.782,0,50.412-16.542,60.652-40.96C132.726,444.652,135.877,442.289,139.028,442.289z"/>
<path style="fill:#E1E6E7;" d="M139.028,396.603c-11.028-26.782-37.022-46.474-67.742-46.474c-26.782,0-50.412,14.178-63.015,36.234
	h51.988l33.083,37.022l-33.083,37.022H8.271c12.603,21.268,36.234,36.234,63.015,36.234c30.72,0,57.502-18.905,67.742-46.474"/>
<path style="fill:#183651;" d="M71.286,504.517c-28.357,0-55.138-14.966-69.317-39.385c-1.575-2.363-1.575-5.514,0-7.877
	s3.938-3.938,7.089-3.938h48.837l25.994-29.145l-25.994-29.145H8.271c-3.151,0-5.514-1.575-7.089-3.938
	c-1.575-2.363-1.575-5.514,0-7.877c14.178-24.418,40.96-39.385,69.317-39.385c33.083,0,63.015,19.692,74.831,51.2
	c1.575,3.938,0,8.665-4.726,10.24c-3.938,1.575-8.665,0-10.24-4.726c-8.665-25.994-32.295-41.748-59.077-41.748
	c-18.117,0-34.658,7.089-47.262,20.48h36.234c2.363,0,4.726,0.788,5.514,2.363l33.083,37.022c2.363,3.151,2.363,7.089,0,10.24
	L65.772,465.92c-1.575,1.575-3.938,2.363-5.514,2.363H24.025c11.815,12.603,29.145,20.48,47.262,20.48
	c26.782,0,50.412-16.542,60.652-40.96c1.575-3.938,6.302-6.302,10.24-4.726c3.938,1.575,6.302,6.302,4.726,10.24
	C133.514,484.037,104.369,504.517,71.286,504.517z"/>
<path style="fill:#E1E6E7;" d="M365.883,450.166c11.028,26.782,37.022,46.474,67.742,46.474c26.782,0,50.412-14.178,63.015-36.234
	h-51.988l-33.083-37.022l33.083-37.022h51.988c-12.603-21.268-36.234-36.234-63.015-36.234c-30.72,0-57.502,18.905-67.742,46.474"/>
<g>
	<path style="fill:#183651;" d="M433.625,504.517c-33.083,0-63.015-19.692-74.831-51.2c-1.575-3.938,0-8.665,4.726-10.24
		c3.938-1.575,8.665,0,10.24,4.726c10.24,25.206,33.871,40.96,60.652,40.96c18.117,0,34.658-7.089,47.262-20.48H445.44
		c-2.363,0-4.726-0.788-5.514-2.363l-33.871-37.022c-2.363-3.151-2.363-7.089,0-10.24l33.083-37.022
		c1.575-1.575,3.938-2.363,5.514-2.363h36.234c-11.815-12.603-29.145-20.48-47.262-20.48c-26.782,0-50.412,16.542-60.652,40.96
		c-1.575,3.938-6.302,6.302-10.24,4.726c-3.938-2.363-5.514-6.302-3.938-10.24c12.603-30.72,41.748-51.2,74.831-51.2
		c28.357,0,55.138,14.966,69.317,39.385c1.575,2.363,1.575,5.514,0,7.877c-1.575,2.363-3.938,3.938-7.089,3.938h-48.837
		l-25.206,29.145l25.994,29.145h48.837c3.151,0,5.514,1.575,7.089,3.938c1.575,2.363,1.575,5.514,0,7.877
		C488.763,489.551,461.982,504.517,433.625,504.517z"/>
	<rect x="197.317" y="415.508" style="fill:#183651;" width="15.754" height="15.754"/>
	<rect x="244.578" y="415.508" style="fill:#183651;" width="15.754" height="15.754"/>
	<rect x="291.84" y="415.508" style="fill:#183651;" width="15.754" height="15.754"/>
</g>
<path style="fill:#FFFFFF;" d="M142.966,276.874l41.748-7.089l-1.575-31.508c9.452-3.938,18.117-9.452,25.994-16.542l27.569,14.966
	l24.418-34.658l-23.631-21.268c3.938-9.452,6.302-19.692,7.089-29.932l29.932-8.665l-7.089-41.748l-31.508,1.575
	c-3.151-10.24-8.665-18.905-15.754-26.782l14.966-27.569l-34.658-24.418L179.2,46.868c-9.452-3.938-19.692-6.302-29.932-7.089
	l-8.665-29.932l-41.748,7.089l1.575,31.508c-9.452,3.938-18.117,9.452-25.994,15.754L46.08,49.231L21.662,83.889l23.631,21.268
	c-3.938,9.452-6.302,19.692-7.089,29.932l-29.932,8.665l7.089,41.748l31.508-1.575c3.938,9.452,9.452,18.117,16.542,25.994
	l-14.966,27.569l34.658,24.418l21.268-23.631c9.452,3.938,19.692,6.302,29.932,7.089L142.966,276.874z"/>
<path style="fill:#183651;" d="M142.966,284.751c-3.151,0-6.302-2.363-7.877-5.514l-7.877-25.206
	c-7.089-0.788-14.966-2.363-22.055-4.726l-17.329,19.692c-2.363,3.151-7.089,3.151-10.24,0.788l-33.871-25.206
	c-3.151-2.363-3.938-6.302-2.363-10.24l12.603-22.843c-4.726-5.514-8.665-11.815-11.815-18.905l-25.994,1.575
	c-3.938,0-7.089-2.363-7.877-6.302l-7.089-41.748c-0.788-3.938,1.575-7.877,5.514-8.665l25.206-7.877
	c0-7.877,1.575-14.966,3.938-22.055L16.148,90.191c-3.151-2.363-3.151-7.089-0.788-10.24l24.418-34.658
	c2.363-3.151,6.302-3.938,10.24-2.363l22.843,12.603c5.514-4.726,11.815-8.665,18.905-11.815l-0.788-26.782
	c0-3.938,2.363-7.089,6.302-7.877l41.748-7.089c3.938-0.788,7.877,1.575,8.665,5.514l7.877,25.206
	c7.089,0.788,14.966,2.363,22.055,4.726l17.329-19.692c2.363-3.151,7.089-3.151,10.24-0.788l34.658,24.418
	c3.151,2.363,3.938,6.302,2.363,10.24l-12.603,22.843c4.726,5.514,8.665,12.603,11.815,18.905l25.994-1.575
	c3.938,0,7.089,2.363,7.877,6.302l7.089,41.748c0.788,3.938-1.575,7.877-5.514,8.665l-25.206,7.877
	c-0.788,7.089-2.363,14.966-4.726,22.055l19.692,17.329c3.151,2.363,3.151,7.089,0.788,10.24l-24.418,34.658
	c-2.363,3.151-6.302,3.938-10.24,2.363L209.92,230.4c-5.514,4.726-11.815,8.665-18.905,11.815l1.575,25.994
	c0,3.938-2.363,7.089-6.302,7.877l-41.748,7.089C143.754,284.751,143.754,284.751,142.966,284.751z M104.369,231.975
	c0.788,0,1.575,0,3.151,0.788c8.665,3.151,18.117,5.514,27.569,6.302c3.151,0,6.302,2.363,7.089,5.514l7.089,23.631l28.357-4.726
	l-1.575-24.418c0-3.151,1.575-6.302,4.726-7.877c8.665-3.938,16.542-8.665,24.418-14.966c2.363-2.363,6.302-2.363,8.665-0.788
	l21.268,11.815l16.542-22.843l-18.905-18.117c-2.363-2.363-3.151-5.514-2.363-8.665c3.151-8.665,5.514-18.117,6.302-27.569
	c0-3.151,2.363-6.302,5.514-7.089l23.631-7.089l-4.726-28.357l-24.418,1.575c-3.151,0-6.302-1.575-7.877-4.726
	c-3.938-8.665-8.665-16.542-14.966-24.418c-2.363-2.363-2.363-6.302-0.788-8.665l11.815-21.268l-22.843-16.542l-16.542,18.117
	c-2.363,2.363-5.514,3.151-8.665,2.363c-8.665-3.151-18.117-5.514-27.569-6.302c-3.151,0-6.302-2.363-7.089-5.514l-7.089-23.631
	l-28.357,4.726l1.575,24.418c0,3.151-1.575,6.302-4.726,7.877c-8.665,3.938-16.542,8.665-24.418,14.966
	c-2.363,2.363-6.302,2.363-8.665,0.788L48.443,59.471L32.689,83.102l18.117,16.542c2.363,2.363,3.151,5.514,2.363,8.665
	c-3.151,8.665-5.514,18.117-6.302,27.569c0,3.151-2.363,6.302-5.514,7.089l-23.631,7.089l3.938,27.569l24.418-1.575
	c3.151,0,6.302,1.575,7.877,4.726c3.938,8.665,8.665,16.542,14.966,24.418c2.363,2.363,2.363,6.302,0.788,8.665l-11.815,21.268
	l22.843,16.542l16.542-18.117C99.643,232.763,102.006,231.975,104.369,231.975z"/>
<circle style="fill:#F06151;" cx="142.178" cy="142.966" r="81.132"/>
<circle style="fill:#FFFFFF;" cx="142.178" cy="142.966" r="37.022"/>
<path style="fill:#183651;" d="M142.178,187.865c-22.055,0-40.96-15.754-44.111-37.809c-2.363-11.815,0.788-23.631,7.877-33.871
	c7.089-9.452,17.329-16.542,29.145-18.117c2.363-0.788,4.726-0.788,7.877-0.788c22.055,0,40.96,15.754,44.111,37.809
	c2.363,11.815-0.788,23.631-7.877,33.871c-7.089,9.452-17.329,16.542-29.145,18.117
	C146.905,187.865,144.542,187.865,142.178,187.865z M142.178,113.822c-1.575,0-3.151,0-4.726,0.788
	c-7.877,1.575-14.178,5.514-18.905,11.815c-4.726,6.302-6.302,14.178-4.726,22.055c2.363,14.178,14.178,24.418,29.145,24.418
	c1.575,0,3.151,0,4.726-0.788c7.877-1.575,14.178-5.514,18.905-11.815c4.726-6.302,6.302-14.178,4.726-22.055
	C168.172,124.062,156.357,113.822,142.178,113.822z"/>
<path style="fill:#FFFFFF;" d="M350.917,300.505l32.295,7.877l8.665-23.631c8.665,0,16.542-1.575,24.418-3.938l15.754,19.692
	l28.357-17.329l-10.24-22.843c5.514-5.514,10.24-12.603,14.178-19.692l24.418,3.151l7.877-32.295l-23.631-8.665
	c0-8.665-1.575-16.542-3.938-24.418l19.692-15.754l-17.329-28.357l-22.843,10.24c-5.514-5.514-12.603-10.24-19.692-14.178
	l3.151-24.418l-32.295-7.877l-8.665,23.631c-8.665,0-16.542,1.575-24.418,3.938l-15.754-19.692l-28.357,17.329l10.24,22.843
	c-5.514,5.514-10.24,12.603-14.178,19.692l-24.418-3.151l-7.877,32.295l23.631,8.665c0,8.665,1.575,16.542,3.938,24.418
	l-19.692,15.754l17.329,28.357l22.843-10.24c5.514,5.514,12.603,10.24,19.692,14.178L350.917,300.505z"/>
<path style="fill:#183651;" d="M383.212,316.258c-0.788,0-1.575,0-1.575,0l-32.295-7.877c-3.938-0.788-6.302-4.726-6.302-8.665
	l2.363-19.692c-4.726-2.363-8.665-5.514-12.603-9.452l-18.117,7.877c-3.938,1.575-7.877,0-10.24-3.151l-17.329-28.357
	c-2.363-3.151-1.575-7.877,1.575-10.24l15.754-11.815c-1.575-4.726-2.363-10.24-2.363-15.754l-18.117-7.089
	c-3.938-0.788-6.302-4.726-5.514-8.665l7.877-32.295c0.788-3.938,4.726-6.302,8.665-6.302l19.692,2.363
	c2.363-4.726,5.514-8.665,9.452-12.603l-7.877-18.117c-1.575-3.938,0-7.877,3.151-10.24l28.357-17.329
	c3.151-2.363,7.877-1.575,10.24,1.575l11.815,15.754c4.726-1.575,10.24-2.363,15.754-2.363l7.089-18.117
	c1.575-3.938,5.514-5.514,9.452-4.726l32.295,7.877c3.938,0.788,6.302,4.726,6.302,8.665l-3.151,18.905
	c4.726,2.363,8.665,5.514,12.603,9.452L468.283,128c3.938-1.575,7.877,0,10.24,3.151l17.329,28.357
	c2.363,3.151,1.575,7.877-1.575,10.24l-15.754,11.815c1.575,5.514,2.363,10.24,2.363,15.754l18.117,7.089
	c3.938,1.575,5.514,5.514,4.726,9.452l-7.877,32.295c-0.788,3.938-4.726,6.302-8.665,6.302l-19.692-2.363
	c-2.363,4.726-5.514,8.665-9.452,12.603l7.877,18.117c1.575,3.938,0,7.877-3.151,10.24l-28.357,17.329
	c-3.151,2.363-7.877,1.575-10.24-1.575l-11.815-15.754c-4.726,1.575-10.24,2.363-15.754,2.363l-6.301,18.117
	C389.514,313.895,386.363,316.258,383.212,316.258z M359.582,294.203l18.905,4.726l6.302-16.542
	c0.788-3.151,3.938-4.726,7.089-4.726c7.089,0,14.966-0.788,22.055-3.151c3.151-0.788,6.302,0,8.665,2.363l11.028,14.178
	l16.542-10.24l-7.877-16.542c-1.575-3.151-0.788-6.302,1.575-8.665c5.514-5.514,9.452-11.028,12.603-17.329
	c1.575-3.151,4.726-4.726,7.877-3.938l18.117,2.363l4.726-18.905l-16.542-6.302c-3.151-0.788-4.726-3.938-4.726-7.089
	c0-7.089-0.788-14.966-3.151-22.055c-0.788-3.151,0-6.302,2.363-8.665l14.178-11.028l-10.24-16.542l-16.542,7.089
	c-3.151,1.575-6.302,0.788-8.665-1.575c-5.514-5.514-11.028-9.452-18.117-12.603c-3.151-1.575-4.726-4.726-3.938-7.877l2.363-18.117
	l-18.905-4.726l-7.089,15.754c-0.788,3.151-3.938,4.726-7.089,4.726c-7.089,0-14.966,0.788-22.055,3.151
	c-3.151,0.788-6.302,0-8.665-2.363l-11.028-14.178l-16.542,10.24l7.089,16.542c1.575,3.151,0.788,6.302-1.575,8.665
	c-5.514,5.514-9.452,11.028-12.603,18.117c-1.575,3.151-4.726,4.726-7.877,3.938l-18.117-2.363l-3.938,19.692l16.542,6.302
	c3.151,0.788,4.726,3.938,4.726,7.089c0,7.089,0.788,14.966,3.151,22.055c0.788,3.151,0,6.302-2.363,8.665l-14.178,11.028
	l10.24,16.542l16.542-7.089c3.151-1.575,6.302-0.788,8.665,1.575c5.514,5.514,11.028,9.452,18.117,12.603
	c3.151,1.575,4.726,4.726,3.938,7.877L359.582,294.203z"/>
<circle style="fill:#2EA0DA;" cx="391.089" cy="203.618" r="59.865"/>
<circle style="fill:#FFFFFF;" cx="391.089" cy="203.618" r="29.145"/>
<path style="fill:#183651;" d="M391.877,240.64c-3.151,0-6.302,0-8.665-0.788c-19.692-4.726-32.295-25.206-27.569-44.898
	c3.938-16.542,18.905-28.357,36.234-28.357c3.151,0,6.302,0,8.665,0.788c19.692,4.726,32.295,25.206,27.569,44.898
	C423.385,228.825,408.418,240.64,391.877,240.64z M391.089,181.563c-10.24,0-18.117,7.089-20.48,16.542
	c-3.151,11.815,3.938,22.843,15.754,25.994c11.815,3.151,22.843-4.726,25.994-15.754c3.151-11.815-3.938-22.843-15.754-25.994
	C395.028,182.351,393.452,181.563,391.089,181.563z"/>
<g>
</g>
<g>
</g>
<g>
</g>
<g>
</g>
<g>
</g>
<g>
</g>
<g>
</g>
<g>
</g>
<g>
</g>
<g>
</g>
<g>
</g>
<g>
</g>
<g>
</g>
<g>
</g>
<g>
</g>
</svg>
