<svg id="Capa_1" enable-background="new 0 0 512 512" height="512" viewBox="0 0 512 512" width="512" xmlns="http://www.w3.org/2000/svg"><g><g><path d="m426.83 159.996h-341.66l-39.17 34.39v307.61h420v-307.61z" fill="#eefaff"/><path d="m406 441.996v60h-180v-60z" fill="#918787"/><path d="m376 441.996h-120v-186h120z" fill="#ff7b79"/><path d="m256 9.996-170.83 150h341.66z" fill="#918787"/><path d="m106 255.996v120h90c0-14.518 0-105.386 0-120z" fill="#aaf9dd"/></g><g><path d="m106 245.996c-5.522 0-10 4.478-10 10v120c0 5.522 4.478 10 10 10h90c5.522 0 10-4.478 10-10v-120c0-5.522-4.478-10-10-10zm80 20v40h-70v-40zm-70 100v-40h70v40z"/><path d="m508.598 218.482c-12.716-11.165-241.742-212.261-246-216-3.713-3.263-9.293-3.31-13.071-.099-.041.035-.084.064-.124.099-14.452 12.689-238.002 208.977-246 216-4.15 3.645-4.561 9.963-.917 14.112 3.645 4.15 9.963 4.561 14.112.917l19.402-17.036v285.521c0 5.522 4.478 10 10 10h420c5.522 0 10-4.478 10-10v-101c0-5.522-4.478-10-10-10s-10 4.478-10 10v91h-40v-50c0-5.522-4.478-10-10-10h-20v-176c0-5.522-4.478-10-10-10h-120c-5.522 0-10 4.478-10 10v176h-20c-5.522 0-10 4.478-10 10v50h-160v-293.082l32.934-28.917h334.132l32.934 28.917v112.083c0 5.522 4.478 10 10 10s10-4.478 10-10v-94.521l19.402 17.036c4.149 3.643 10.469 3.234 14.112-.917 3.644-4.151 3.234-10.469-.916-14.113zm-242.598 47.514h100v70h-20c-5.522 0-10 4.478-10 10s4.478 10 10 10h20v76h-100zm-30 186h160v40h-160zm10-419.912v117.912h-134.288zm20 117.912v-117.912l134.288 117.912z"/><circle cx="466" cy="355.996" r="10"/></g></g></svg>