<svg enable-background="new 0 0 256 256" height="512" viewBox="0 0 256 256" width="512" xmlns="http://www.w3.org/2000/svg"><path d="m187.82 95.74c0 29.64-14.19 55.97-36.15 72.55-.64.48-1.28.95-1.93 1.41-14.88 10.65-33.11 16.91-52.8 16.91-19.39 0-37.36-6.07-52.11-16.42-1.23-.86-2.44-1.75-3.62-2.67-21.38-16.62-35.14-42.59-35.14-71.78 0-50.19 40.68-90.88 90.87-90.88s90.88 40.69 90.88 90.88z" fill="#44c7b6"/><path d="m56.214 167.52c13.54 10.53 30.12 17.3 48.22 18.78-2.47.21-4.97.31-7.49.31-21.01 0-40.34-7.12-55.73-19.09-21.38-16.62-35.14-42.59-35.14-71.78 0-50.19 40.68-90.88 90.87-90.88 2.53 0 5.03.1 7.5.31-46.68 3.81-83.37 42.91-83.37 90.57 0 29.19 13.76 55.16 35.14 71.78z" fill="#4bdbc3"/><path d="m187.824 95.74c0 29.64-14.19 55.97-36.15 72.55-15.22 11.5-34.18 18.32-54.73 18.32-2.53 0-5.04-.1-7.51-.31 17.66-1.43 33.89-7.92 47.24-18.01 21.96-16.58 36.15-42.91 36.15-72.55 0-47.66-36.7-86.76-83.38-90.57 2.47-.21 4.97-.31 7.5-.31 50.19 0 90.88 40.69 90.88 90.88z" fill="#3bb2a0"/><path d="m149.74 165.22v4.48c-14.88 10.65-33.11 16.91-52.8 16.91-13.22 0-25.78-2.82-37.11-7.9-5.29-2.37-10.31-5.23-15-8.52v-4.97c0-27.15 20.62-49.48 47.06-52.18-16.21-2.61-28.61-16.8-28.61-33.92 0-18.98 15.23-34.36 34-34.36 1.18 0 2.34.06 3.48.18.28.03.57.06.85.1.28.03.57.07.85.12.78.12 1.56.27 2.32.44 15.17 3.45 26.5 17.14 26.5 33.52 0 16.37-11.33 30.06-26.49 33.5-.28.07-.56.13-.85.19-.42.09-.84.16-1.26.23.71.07 1.41.16 2.11.26 25.41 3.64 44.95 25.5 44.95 51.92z" fill="#ffe2e2"/><path d="m102.68 113.04c.71.07 1.41.16 2.11.26-25.42 3.63-44.96 25.49-44.96 51.92v13.49c-5.29-2.37-10.31-5.23-15-8.52v-4.97c0-27.15 20.62-49.48 47.06-52.18-16.21-2.61-28.61-16.8-28.61-33.92 0-18.98 15.23-34.36 34-34.36 1.18 0 2.34.06 3.48.18.28.03.57.06.85.1.28.03.57.07.85.12.78.12 1.56.27 2.32.44-15.17 3.45-26.5 17.15-26.5 33.52s11.34 30.06 26.51 33.5c-.28.07-.56.13-.85.19-.42.09-.84.16-1.26.23z" fill="#ffefee"/><circle cx="187.762" cy="188.974" fill="#3193f3" r="62.164"/><path d="m231.724 232.93c-14.05 14.05-33.16 19.97-51.46 17.76 13.33-1.61 26.23-7.53 36.46-17.76 24.27-24.28 24.27-63.64 0-87.91-10.23-10.23-23.13-16.15-36.46-17.76 18.3-2.21 37.41 3.71 51.46 17.76 24.27 24.27 24.27 63.63 0 87.91z" fill="#307fed"/><path d="m158.804 232.93c10.23 10.23 23.13 16.15 36.46 17.76-18.3 2.21-37.41-3.71-51.46-17.76-24.28-24.28-24.28-63.64 0-87.91 14.05-14.05 33.16-19.97 51.46-17.76-13.33 1.61-26.23 7.53-36.46 17.76-24.28 24.27-24.28 63.63 0 87.91z" fill="#35b1fc"/><path d="m209.693 225.28h-43.812c-5.299 0-9.594-4.295-9.594-9.594v-31.062c0-5.299 4.295-9.594 9.594-9.594h43.812c5.299 0 9.594 4.295 9.594 9.594v31.062c0 5.298-4.296 9.594-9.594 9.594z" fill="#ff4a73"/><path d="m180.879 225.28h-15c-5.3 0-9.59-4.3-9.59-9.59v-31.07c0-5.29 4.29-9.59 9.59-9.59h15c-5.3 0-9.59 4.3-9.59 9.59v31.07c-.001 5.29 4.289 9.59 9.59 9.59z" fill="#f973a3"/><g fill="#5f266d"><path d="m212.264 171.286c0-9.46 1.036-17.866-7.172-26.074-15.345-15.345-41.828-4.488-41.828 17.319v8.755c-6.259 1.215-11.002 6.731-11.002 13.34v31.062c0 7.496 6.099 13.594 13.595 13.594h43.812c7.496 0 13.594-6.098 13.594-13.594v-31.062c-.001-6.609-4.742-12.124-10.999-13.34zm-41-8.755c0-14.683 17.833-22.001 28.172-11.662 5.799 5.799 4.828 11.903 4.828 20.162h-33zm43.998 53.156c0 3.084-2.51 5.594-5.594 5.594h-43.812c-3.085 0-5.595-2.51-5.595-5.594v-31.062c0-3.084 2.51-5.594 5.595-5.594h43.812c3.084 0 5.594 2.51 5.594 5.594z"/><path d="m187.762 184.975c-11.247 0-14.269 15.621-3.781 19.797v6.728c0 4.996 7.562 5.001 7.562 0v-6.728c10.494-4.178 7.461-19.797-3.781-19.797z"/><path d="m234.523 142.205c-12.87-12.87-29.767-19.317-46.674-19.345 18.195-61.013-27.845-121.984-90.929-121.984-52.312 0-94.87 42.563-94.87 94.88 0 30.04 14.327 58.382 38.42 76.251v.039c25.911 18.345 54.563 22.48 81.174 15.301-.92 37.349 28.963 67.777 66.094 67.777 58.614 0 88.434-71.27 46.785-112.919zm-224.473-46.449c0-47.906 38.97-86.88 86.87-86.88 59.134 0 101.297 58.246 82.366 114.535-11.84 1.512-23.346 6.205-33.111 14.101-6.641-11.837-17.539-21.154-30.663-25.718 11.574-6.52 19.412-18.921 19.412-33.125 0-20.953-17.047-38-38-38s-38 17.047-38 38c0 14.217 7.853 26.629 19.445 33.144-21.062 7.353-36.474 26.847-37.798 50.064-19.24-16.428-30.521-40.608-30.521-66.121zm86.94 12.912c-16.565.037-30.067-13.427-30.067-29.998 0-16.542 13.458-30 30-30s30 13.458 30 30c0 16.519-13.421 29.961-29.933 29.998zm-48.52 59.191c0-55.744 69.075-68.895 91.623-24.749-9.781 10.153-15.682 22.676-17.694 35.699-24.466 7.509-51.728 4.003-73.929-10.95zm180.397 62.26c-22.678 22.678-59.578 22.679-82.258 0-36.571-36.572-10.443-99.266 41.129-99.266 51.562 0 77.72 62.673 41.129 99.266z"/><path d="m39.732 45.141c-1.262 1.425-2.485 2.914-3.634 4.426-2.011 2.645-.094 6.421 3.181 6.421 2.635 0 3.005-1.662 6.442-5.543 1.464-1.653 1.311-4.182-.343-5.646-1.652-1.465-4.181-1.312-5.646.342z"/><path d="m33.212 61.164c-1.995-.946-4.382-.096-5.328 1.9-3.632 7.659-5.944 15.822-6.871 24.262-.241 2.196 1.343 4.171 3.54 4.413 2.214.24 4.173-1.358 4.413-3.54.83-7.552 2.897-14.855 6.147-21.708.946-1.995.095-4.38-1.901-5.327z"/></g></svg>