<?xml version="1.0" encoding="UTF-8" standalone="no"?>
<svg
   xmlns="http://www.w3.org/2000/svg"
   id="svg8"
   version="1.1"
   viewBox="0 0 161.69748 179.31273"
   height="179.31273mm"
   width="161.69748mm">
  <defs id="defs2" />
  <g
     transform="translate(-23.920918,-30.411211)"
     style="display:inline"
     id="layer2" />
  <g
     transform="translate(-23.920918,-30.411211)"
     style="display:inline"
     id="layer1">
    <g
       style="fill:#000000;stroke:none"
       transform="matrix(0.03527778,0,0,-0.03527778,23.524958,209.93561)"
       id="g14">
      <path
         style="fill:#ffffff"
         d="m 2198,5075 c -61,-17 -123,-53 -171,-102 -82,-81 -120,-180 -115,-303 l 3,-74 -619,-357 -618,-357 -44,34 c -25,18 -74,43 -110,54 -308,95 -589,-186 -494,-494 33,-105 103,-186 202,-234 l 58,-27 -1,-720 v -720 l -57,-27 C 14,1645 -57,1358 86,1164 c 80,-109 180,-158 319,-158 109,0 180,25 249,86 36,31 51,39 65,32 10,-5 282,-162 605,-348 l 586,-339 v -47 c 0,-111 65,-239 156,-308 72,-55 136,-76 239,-76 126,0 189,26 276,113 84,84 112,149 113,268 l 1,81 595,345 595,344 40,-39 c 114,-113 275,-145 431,-87 82,31 181,130 214,214 32,82 33,216 3,293 -44,109 -130,191 -242,229 l -66,22 -3,710 c -2,701 -2,711 18,711 10,0 45,10 77,22 81,30 181,130 213,213 32,82 33,216 3,293 -103,257 -438,334 -635,147 l -28,-25 -612,354 c -501,289 -612,357 -609,372 1,11 3,60 4,109 1,70 -4,102 -20,143 -75,187 -282,290 -475,237 z m 167,-146 c 63,-18 118,-62 150,-121 114,-207 -116,-437 -323,-323 -64,35 -107,92 -123,163 -27,117 52,246 172,281 46,13 77,13 124,0 z m -350,-502 c 15,-23 2,-46 -350,-652 -200,-345 -365,-628 -367,-630 -2,-1 -120,67 -263,150 -170,99 -259,157 -257,166 22,85 25,135 13,197 -6,37 -13,73 -14,79 -2,11 1195,712 1215,713 4,0 14,-10 23,-23 z m 1196,-352 c 482,-278 613,-358 611,-372 -10,-63 -13,-153 -5,-183 l 9,-35 -270,-157 c -148,-87 -274,-157 -278,-156 -4,2 -167,278 -362,613 -325,561 -352,611 -338,628 8,9 16,17 17,17 2,0 279,-160 616,-355 z m -1003,239 22,-6 v -713 -713 l -42,-10 c -51,-13 -121,-56 -165,-101 l -31,-33 -264,153 c -144,84 -268,157 -275,163 -9,8 74,159 345,626 196,338 361,621 365,628 9,14 13,14 45,6 z m 572,-617 c 295,-509 350,-611 339,-622 -36,-33 -520,-305 -532,-298 -6,4 -31,22 -55,40 -23,17 -67,40 -97,49 l -55,18 v 712 c 0,670 1,713 18,717 9,2 20,1 24,-2 3,-3 165,-280 358,-614 z M 465,3829 c 63,-18 118,-62 150,-121 114,-207 -116,-437 -323,-323 -64,35 -107,92 -123,163 -27,117 52,246 172,281 46,13 77,13 124,0 z m 3800,0 c 105,-30 180,-126 179,-234 0,-182 -194,-297 -352,-210 -64,35 -107,92 -123,163 -27,117 52,246 172,281 46,13 77,13 124,0 z m -348,-502 c 15,-26 104,-86 143,-98 l 40,-12 v -724 c 0,-397 -4,-723 -8,-723 -4,0 -171,282 -371,626 -275,475 -360,629 -350,635 8,4 129,75 269,158 140,82 258,150 262,150 4,1 11,-5 15,-12 z M 953,3155 c 141,-82 257,-153 257,-157 0,-8 -687,-1197 -701,-1212 -4,-5 -19,-6 -33,-2 l -26,6 v 706 c 0,555 3,705 13,708 93,26 134,42 169,71 24,18 48,33 54,32 5,-1 126,-69 267,-152 z m 2632,-847 356,-616 -22,-26 c -12,-14 -26,-26 -31,-26 -6,0 -1206,694 -1214,703 -1,1 4,27 12,57 14,51 14,71 1,208 -2,19 32,42 263,177 146,85 268,151 271,147 4,-4 167,-284 364,-624 z m -1944,447 275,-160 -1,-85 c 0,-47 3,-96 7,-110 6,-24 -17,-39 -608,-383 l -614,-358 -24,23 -25,23 352,607 c 194,334 354,606 358,605 3,-1 129,-74 280,-162 z m 724,-26 c 63,-18 118,-62 150,-121 114,-207 -116,-437 -323,-323 -64,35 -107,92 -123,163 -27,117 52,246 172,281 46,13 77,13 124,0 z m -343,-507 c 8,-22 104,-83 153,-98 l 55,-18 V 1748 1390 H 1516 802 l -8,58 c -4,31 -8,60 -9,65 0,8 1204,716 1222,716 6,1 13,-3 15,-7 z m 1174,-372 c 397,-231 619,-365 618,-375 0,-8 -1,-31 -2,-50 l -2,-35 h -715 -715 v 358 358 l 55,18 c 30,9 74,32 97,51 24,18 44,34 44,34 1,1 280,-161 620,-359 z M 465,1629 c 63,-18 118,-62 150,-121 87,-158 -28,-352 -210,-352 -113,-1 -210,78 -236,192 -27,117 52,246 172,281 46,13 77,13 124,0 z m 3800,0 c 63,-18 118,-62 150,-121 114,-207 -116,-437 -323,-323 -64,35 -107,92 -123,163 -27,117 52,246 172,281 46,13 77,13 124,0 z M 2230,1011 V 782 l -42,-10 c -70,-18 -164,-86 -205,-150 -9,-12 -19,-22 -23,-22 -5,0 -781,445 -1098,630 -11,6 216,9 676,10 h 692 z m 1450,214 c -14,-8 -254,-147 -535,-309 l -510,-295 -45,46 c -52,52 -107,86 -167,104 l -43,12 v 229 228 h 663 c 574,-1 659,-3 637,-15 z M 2365,629 c 63,-18 118,-62 150,-121 114,-207 -116,-437 -323,-323 -64,35 -107,92 -123,163 -27,117 52,246 172,281 46,13 77,13 124,0 z"
         id="path12" />
    </g>
    <ellipse
       ry="32.73465"
       rx="33.304058"
       id="circle26"
       cy="122.08926"
       cx="104.43587"
       style="fill:#ffffff;stroke-width:1.00412512;stroke-miterlimit:4;stroke-dasharray:none" />
    <path
       id="path28"
       d="m 100.66249,135.79008 h 4.14649 c 2.4347,0 3.91937,-0.90916 4.43324,-3.68488 l 0.60298,-3.26078 c 0.64318,-3.47316 -0.54067,-4.54244 -3.8316,-4.54244 h -3.22259 z"
       style="fill:#03589e;stroke-width:0.66997719" />
    <path
       id="path30"
       d="M 104.27568,93.941289 A 28.487431,28.487431 0 0 0 75.788248,122.42872 c 0,0.80799 0.03551,1.60795 0.101837,2.39919 h 9.711989 l 1.260227,-5.88039 9.677821,0.007 2.822614,-15.23327 h 10.926654 c 7.50375,0 10.20309,2.83333 9.13313,8.60585 l -0.24722,1.33594 c -0.71352,3.84835 -2.60755,6.2529 -6.0586,7.48163 l -0.0201,0.10787 c 3.65472,1.22941 4.65366,4.00914 3.92071,7.96201 l -0.56413,3.04639 c -1.07196,5.77252 -5.39599,8.87317 -12.6351,8.87317 H 92.435842 l 3.115394,-16.83049 h -3.22594 l -1.260228,5.35579 -15.177663,-4.8312 A 28.486761,28.486761 0 1 0 104.273,93.941959 Z"
       style="fill:#03589e;stroke-width:0.66997719" />
    <path
       id="path32"
       d="m 111.68697,114.99867 0.38657,-2.0843 c 0.49512,-2.67187 -0.40198,-3.84835 -2.97202,-3.84835 h -3.4879 l -1.83171,9.8882 h 2.82931 c 2.698,0 4.52101,-0.96209 5.07575,-3.95555 z"
       style="fill:#03589e;stroke-width:0.66997719" />
  </g>
</svg>
