<?xml version="1.0" encoding="iso-8859-1"?>
<!-- Generator: Adobe Illustrator 19.0.0, SVG Export Plug-In . SVG Version: 6.00 Build 0)  -->
<svg version="1.1" id="Layer_1" xmlns="http://www.w3.org/2000/svg" xmlns:xlink="http://www.w3.org/1999/xlink" x="0px" y="0px"
	 viewBox="0 0 473.931 473.931" style="enable-background:new 0 0 473.931 473.931;" xml:space="preserve">
<circle style="fill:#9F77AA;" cx="236.966" cy="236.966" r="236.966"/>
<path style="fill:#D1AFD2;" d="M380.024,379.811c0,9.175-7.431,16.61-16.606,16.61H117.779c-9.179,0-16.61-7.435-16.61-16.61V95.404
	c0-9.171,7.431-16.606,16.61-16.606h245.639c9.171,0,16.606,7.431,16.606,16.606L380.024,379.811L380.024,379.811z"/>
<path style="fill:#E7E7D6;" d="M367.83,368.518c0,8.438-6.847,15.289-15.289,15.289H128.664c-8.449,0-15.289-6.851-15.289-15.289
	V106.693c0-8.441,6.84-15.285,15.289-15.285h223.877c8.441,0,15.289,6.844,15.289,15.285V368.518z"/>
<path style="fill:#EDC92C;" d="M353.914,167.646l-11.977-16.243l11.977-7.259c0,0-24.247-9.347-52.078-17.474v23.543
	C329.638,158.333,353.914,167.646,353.914,167.646z"/>
<polygon style="fill:#D7B129;" points="323.382,145.753 301.837,126.666 301.837,150.209 "/>
<path style="fill:#EDC92C;" d="M127.171,167.646l11.977-16.243l-11.977-7.259c0,0,24.247-9.347,52.078-17.474v23.543
	C151.44,158.333,127.171,167.646,127.171,167.646z"/>
<polygon style="fill:#D7B129;" points="157.696,145.753 179.249,126.666 179.249,150.209 "/>
<path style="fill:#EDC92C;" d="M157.472,122.165c0,0,45.852-11.753,83.187-11.753c37.332,0,82.719,11.753,82.719,11.753v23.506
	c0,0-45.743-11.757-82.719-11.757c-36.987,0-83.187,11.757-83.187,11.757L157.472,122.165L157.472,122.165z"/>
<path style="fill:#BFC1A9;" d="M327.393,208.693H151.47c-2.567,0-4.64,2.088-4.64,4.644c0,2.574,2.077,4.651,4.64,4.651h175.923
	c2.559,0,4.647-2.08,4.647-4.651C332.04,210.781,329.952,208.693,327.393,208.693z"/>
<path style="fill:#AFAFA3;" d="M303.532,183.604H175.339c-3.282,0-5.942,2.668-5.942,5.942c0,3.289,2.66,5.946,5.942,5.946h128.193
	c3.274,0,5.934-2.657,5.934-5.946C309.466,186.272,306.806,183.604,303.532,183.604z"/>
<g>
	<path style="fill:#BFC1A9;" d="M327.393,229.097H151.47c-2.567,0-4.64,2.084-4.64,4.647s2.077,4.644,4.64,4.644h175.923
		c2.559,0,4.647-2.08,4.647-4.644S329.952,229.097,327.393,229.097z"/>
	<path style="fill:#BFC1A9;" d="M327.393,249.497H151.47c-2.567,0-4.64,2.088-4.64,4.651s2.077,4.644,4.64,4.644h175.923
		c2.559,0,4.647-2.08,4.647-4.644S329.952,249.497,327.393,249.497z"/>
	<path style="fill:#BFC1A9;" d="M327.393,270.424H151.47c-2.567,0-4.64,2.088-4.64,4.651c0,2.563,2.077,4.643,4.64,4.643h175.923
		c2.559,0,4.647-2.08,4.647-4.643C332.04,272.512,329.952,270.424,327.393,270.424z"/>
	<path style="fill:#BFC1A9;" d="M199.092,343.849H151.47c-2.567,0-4.64,2.077-4.64,4.643c0,2.567,2.077,4.651,4.64,4.651h47.621
		c2.559,0,4.64-2.084,4.64-4.651C203.731,345.926,201.647,343.849,199.092,343.849z"/>
	<path style="fill:#BFC1A9;" d="M328.414,343.849h-47.618c-2.567,0-4.64,2.077-4.64,4.643c0,2.567,2.077,4.651,4.64,4.651h47.618
		c2.552,0,4.64-2.084,4.64-4.651C333.054,345.926,330.966,343.849,328.414,343.849z"/>
</g>
<polygon style="fill:#E6BE20;" points="265.586,334.311 269.628,327.303 265.77,320.624 265.878,312.912 258.93,308.77 
	254.881,301.754 247.166,301.754 240.543,297.81 233.475,301.754 225.377,301.754 221.527,308.437 214.796,312.201 214.68,320.295 
	210.631,327.303 214.489,333.986 214.388,341.698 221.336,345.84 225.377,352.852 233.097,352.852 239.723,356.799 246.792,352.852 
	254.881,352.852 258.739,346.173 265.47,342.408 "/>
<polygon style="fill:#EDC92C;" points="262.08,333.35 265.564,327.303 262.241,321.544 262.335,314.899 256.344,311.326 
	252.849,305.283 246.193,305.283 240.483,301.874 234.395,305.283 227.417,305.283 224.09,311.038 218.283,314.282 218.186,321.26 
	214.702,327.303 218.025,333.065 217.931,339.714 223.933,343.284 227.417,349.331 234.07,349.331 239.783,352.736 245.879,349.331 
	252.849,349.331 256.176,343.572 261.976,340.328 "/>
<g>
</g>
<g>
</g>
<g>
</g>
<g>
</g>
<g>
</g>
<g>
</g>
<g>
</g>
<g>
</g>
<g>
</g>
<g>
</g>
<g>
</g>
<g>
</g>
<g>
</g>
<g>
</g>
<g>
</g>
</svg>
