<svg height="512" viewBox="0 0 128 128" width="512" xmlns="http://www.w3.org/2000/svg"><g><g><circle cx="64" cy="63.997" fill="#ffc839" r="62.25" transform="matrix(.16 -.987 .987 .16 -9.422 116.919)"/><g fill="#ff9100"><path d="m62.25 1.791v14.956a1.75 1.75 0 0 0 3.5 0v-14.956c-.583-.016-1.163-.044-1.75-.044s-1.167.028-1.75.044z"/><path d="m64 109.5a1.751 1.751 0 0 0 -1.75 1.75v14.95c.583.016 1.163.044 1.75.044s1.167-.028 1.75-.044v-14.953a1.751 1.751 0 0 0 -1.75-1.747z"/><path d="m96.173 29.349a1.75 1.75 0 0 0 2.475 2.475l10.577-10.577q-1.2-1.272-2.474-2.475z"/><path d="m29.352 96.17-10.577 10.578q1.2 1.272 2.474 2.474l10.578-10.577a1.75 1.75 0 1 0 -2.475-2.475z"/><path d="m126.206 62.247h-14.956a1.75 1.75 0 0 0 0 3.5h14.956c.016-.583.044-1.163.044-1.75s-.028-1.167-.044-1.75z"/><path d="m16.75 62.247h-14.956c-.016.583-.044 1.163-.044 1.753s.028 1.167.044 1.75h14.956a1.75 1.75 0 0 0 0-3.5z"/><path d="m96.173 96.17a1.751 1.751 0 0 0 0 2.475l10.578 10.577q1.27-1.2 2.474-2.474l-10.577-10.578a1.751 1.751 0 0 0 -2.475 0z"/><path d="m21.249 18.772q-1.272 1.2-2.474 2.475l10.577 10.577a1.75 1.75 0 0 0 2.475-2.475z"/></g><circle cx="64" cy="63.997" fill="#2d3c6b" r="47.25"/><g fill="#73c3f9"><path d="m83.312 88.313h-38.625l-5.004-32.875 16.311 15.011 8.006-15.011 8.006 15.011 16.31-15.011z"/><circle cx="64" cy="44.75" r="5.063"/><circle cx="88.316" cy="44.75" r="5.062"/><circle cx="39.683" cy="44.75" r="5.063"/></g></g><g><path d="m99.864 10.982a1.75 1.75 0 1 0 -1.964 2.9 60.863 60.863 0 0 1 7.623 6.118l-8.158 8.158a48.8 48.8 0 0 0 -31.615-13.116v-11.507a60.218 60.218 0 0 1 19.166 3.674 1.75 1.75 0 1 0 1.21-3.284 64.064 64.064 0 1 0 13.738 7.057zm13.092 51.265a48.808 48.808 0 0 0 -13.116-31.615l8.16-8.159a60.445 60.445 0 0 1 16.474 39.774zm-82.321 37.59a48.8 48.8 0 0 0 31.615 13.116v11.5a60.261 60.261 0 0 1 -39.743-16.488zm35.115 13.116a48.8 48.8 0 0 0 31.615-13.116l8.128 8.128a60.265 60.265 0 0 1 -39.743 16.488zm-1.75-3.453a45.5 45.5 0 1 1 45.5-45.5 45.551 45.551 0 0 1 -45.5 45.5zm-48.956-47.253h-11.5a60.265 60.265 0 0 1 16.488-39.747l8.128 8.128a48.8 48.8 0 0 0 -13.116 31.619zm15.591-34.09-8.128-8.128a60.261 60.261 0 0 1 39.743-16.488v11.5a48.8 48.8 0 0 0 -31.615 13.116zm-27.091 37.59h11.5a48.8 48.8 0 0 0 13.116 31.615l-8.128 8.128a60.261 60.261 0 0 1 -16.488-39.743zm104.424 39.743-8.128-8.128a48.808 48.808 0 0 0 13.116-31.615h11.5a60.261 60.261 0 0 1 -16.488 39.743z"/><path d="m65.75 86.563h-5.469a1.75 1.75 0 1 0 0 3.5h5.469a1.75 1.75 0 0 0 0-3.5z"/><path d="m89.138 53.893a1.75 1.75 0 0 0 -2.007.257l-14.645 13.48-6.942-13.016a1.75 1.75 0 0 0 -3.088 0l-6.942 13.016-14.645-13.48a1.75 1.75 0 0 0 -2.915 1.55l5 32.875a1.751 1.751 0 0 0 1.73 1.487h4.875a1.75 1.75 0 0 0 0-3.5h-3.368l-4.028-26.462 12.646 11.637a1.749 1.749 0 0 0 2.729-.464l6.462-12.117 6.462 12.117a1.749 1.749 0 0 0 2.729.464l12.646-11.637-4.028 26.463h-5.34a1.75 1.75 0 0 0 0 3.5h6.843a1.749 1.749 0 0 0 1.73-1.487l5-32.875a1.749 1.749 0 0 0 -.904-1.808z"/><path d="m64 51.563a6.813 6.813 0 1 0 -6.813-6.813 6.821 6.821 0 0 0 6.813 6.813zm0-10.125a3.313 3.313 0 1 1 -3.313 3.312 3.315 3.315 0 0 1 3.313-3.312z"/><path d="m88.316 37.938a6.813 6.813 0 1 0 6.813 6.812 6.82 6.82 0 0 0 -6.813-6.812zm0 10.125a3.313 3.313 0 1 1 3.313-3.313 3.316 3.316 0 0 1 -3.313 3.313z"/><path d="m46.5 44.75a6.813 6.813 0 1 0 -6.812 6.813 6.82 6.82 0 0 0 6.812-6.813zm-10.125 0a3.313 3.313 0 1 1 3.313 3.313 3.316 3.316 0 0 1 -3.317-3.313z"/></g></g></svg>