<?xml version="1.0" encoding="UTF-8" standalone="no"?>
<svg
   xmlns:dc="http://purl.org/dc/elements/1.1/"
   xmlns:cc="http://creativecommons.org/ns#"
   xmlns:rdf="http://www.w3.org/1999/02/22-rdf-syntax-ns#"
   xmlns:svg="http://www.w3.org/2000/svg"
   xmlns="http://www.w3.org/2000/svg"
   xmlns:sodipodi="http://sodipodi.sourceforge.net/DTD/sodipodi-0.dtd"
   xmlns:inkscape="http://www.inkscape.org/namespaces/inkscape"
   viewBox="0 0 393.34 393.34"
   version="1.1"
   id="svg10"
   sodipodi:docname="Signum_Logomark_blue_white_bg.svg"
   inkscape:version="0.92.5 (2060ec1f9f, 2020-04-08)">
  <metadata
     id="metadata14">
    <rdf:RDF>
      <cc:Work
         rdf:about="">
        <dc:format>image/svg+xml</dc:format>
        <dc:type
           rdf:resource="http://purl.org/dc/dcmitype/StillImage" />
        <dc:title></dc:title>
      </cc:Work>
    </rdf:RDF>
  </metadata>
  <sodipodi:namedview
     pagecolor="#ffffff"
     bordercolor="#666666"
     borderopacity="1"
     objecttolerance="10"
     gridtolerance="10"
     guidetolerance="10"
     inkscape:pageopacity="0"
     inkscape:pageshadow="2"
     inkscape:window-width="1860"
     inkscape:window-height="1016"
     id="namedview12"
     showgrid="false"
     inkscape:zoom="0.59998984"
     inkscape:cx="-370.00627"
     inkscape:cy="190.00322"
     inkscape:window-x="0"
     inkscape:window-y="27"
     inkscape:window-maximized="1"
     inkscape:current-layer="svg10" />
  <defs
     id="defs4">
    <style
       id="style2">.cls-1{fill:#fff;}</style>
  </defs>
  <ellipse
     ry="174.478"
     rx="171.14461"
     cy="187.50317"
     cx="195.83664"
     id="path815"
     style="opacity:1;fill:#ffffff;fill-opacity:1;stroke:#ffffff;stroke-width:1.65096271;stroke-miterlimit:4;stroke-dasharray:none;stroke-opacity:1" />
  <g
     inkscape:groupmode="layer"
     id="layer1"
     inkscape:label="Layer 1" />
  <g
     inkscape:groupmode="layer"
     id="layer2"
     inkscape:label="Layer 2">
    <g
       style="fill:#0099ff;fill-opacity:1"
       data-name="Ebene 1"
       id="Ebene_1-2">
      <path
         inkscape:connector-curvature="0"
         style="fill:#0099ff;fill-opacity:1"
         id="path6"
         d="M 196.67,0 C 88.05,0 0,88.05 0,196.67 c 0,108.62 88.05,196.67 196.67,196.67 108.62,0 196.67,-88 196.67,-196.67 C 393.34,88 305.29,0 196.67,0 Z m 134.67,143.47 a 28.72,28.72 0 0 1 0,40.56 l -41,41 -15.49,-15.49 41,-41 a 6.77,6.77 0 0 0 0,-9.58 l -14,-14 -11.51,11.51 -15.52,-15.47 27,-27 z m -94.44,2.38 15.49,-15.48 44.9,44.89 -15.49,15.49 z M 209.32,62 a 28.71,28.71 0 0 1 40.55,0 L 279.39,91.52 246.47,124.44 217,154 a 28.7,28.7 0 0 1 -40.55,0 l -8.12,-8.12 15.49,-15.49 8.11,8.12 a 6.78,6.78 0 0 0 9.58,0 l 47,-47 -14,-14 a 6.78,6.78 0 0 0 -9.58,0 l -6.72,6.72 -15.62,-15.51 z M 145.85,156.44 130.37,141 175.26,96.1 190.75,111.59 Z M 143.47,62 A 28.72,28.72 0 0 1 184,62 l 41,41 -15.49,15.48 -41,-41 a 6.78,6.78 0 0 0 -9.58,0 l -14,14 11.51,11.52 -15.44,15.52 -27,-27 z M 62,143.47 91.52,114 154,176.39 a 28.72,28.72 0 0 1 0,40.61 l -8.11,8.11 -15.48,-15.49 8.11,-8.11 a 6.78,6.78 0 0 0 0,-9.58 l -47,-46.95 -14,14 a 6.78,6.78 0 0 0 0,9.58 l 6.72,6.72 L 68.72,190.75 62,184 a 28.72,28.72 0 0 1 0,-40.53 z m 94.44,104 L 141,263 96.1,218.1 111.59,202.61 Z M 62,249.87 a 28.71,28.71 0 0 1 0,-40.55 l 41,-41 15.48,15.49 -41,41 a 6.78,6.78 0 0 0 0,9.58 l 14,14 11.52,-11.49 15.48,15.49 -27,27 z m 122,81.47 a 28.72,28.72 0 0 1 -40.56,0 L 114,301.82 176.45,239.38 a 28.71,28.71 0 0 1 40.55,0 l 8.11,8.11 -15.54,15.51 -8.11,-8.11 a 6.78,6.78 0 0 0 -9.58,0 l -46.95,46.95 14,14 a 6.78,6.78 0 0 0 9.58,0 l 6.72,-6.73 15.49,15.49 z m 63.46,-94.44 15.54,15.49 -44.9,44.9 -15.51,-15.49 z m 2.38,94.44 a 28.7,28.7 0 0 1 -40.55,0 l -41,-41 15.49,-15.49 41,41 a 6.78,6.78 0 0 0 9.58,0 l 14,-14 -11.46,-11.54 15.49,-15.49 27,27 z M 331.31,249.87 301.79,279.39 239.38,217 a 28.71,28.71 0 0 1 0,-40.55 l 8.11,-8.11 15.51,15.43 -8.11,8.11 a 6.78,6.78 0 0 0 0,9.58 l 47,47 14,-14 a 6.77,6.77 0 0 0 0,-9.58 l -6.72,-6.72 15.49,-15.49 6.72,6.73 a 28.7,28.7 0 0 1 -0.04,40.47 z"
         class="cls-1" />
    </g>
  </g>
</svg>
