<svg enable-background="new 0 0 60 60" height="512" viewBox="0 0 60 60" width="512" xmlns="http://www.w3.org/2000/svg"><circle cx="30" cy="30" fill="#25ae88" r="29"/><circle cx="30" cy="30" fill="#ebba16" r="7"/><g fill="#4d007e"><path d="m30 60c-16.542 0-30-13.458-30-30s13.458-30 30-30 30 13.458 30 30-13.458 30-30 30zm0-58c-15.439 0-28 12.561-28 28s12.561 28 28 28 28-12.561 28-28-12.561-28-28-28z"/><path d="m43.121 44.571c-.495 0-.926-.368-.99-.872l-.867-6.73c-.071-.548.316-1.049.864-1.12.546-.074 1.049.316 1.119.864l.739 5.738 5.739-.739c.547-.076 1.049.316 1.119.864s-.316 1.049-.864 1.12l-6.73.867c-.043.006-.086.008-.129.008z"/><path d="m30.229 50c-11.028 0-20-8.972-20-20 0-5.267 2.314-10.159 7.076-14.955.389-.393 1.022-.395 1.414-.005.392.389.394 1.022.005 1.414-4.371 4.402-6.495 8.833-6.495 13.545 0 9.925 8.075 18 18 18 2.215 0 4.374-.393 6.416-1.169.516-.195 1.094.064 1.29.58s-.063 1.094-.58 1.29c-2.269.863-4.667 1.3-7.126 1.3z"/><path d="m43.122 44.571c-.251 0-.502-.094-.696-.282-.396-.384-.406-1.018-.022-1.414 3.92-4.042 5.825-8.254 5.825-12.875 0-9.925-8.075-18-18-18-1.596 0-3.195.458-4.741.9l-.214.061c-.533.15-1.084-.156-1.236-.687s.156-1.085.687-1.236l.212-.061c1.68-.48 3.416-.977 5.292-.977 11.028 0 20 8.972 20 20 0 5.166-2.09 9.833-6.389 14.268-.196.202-.457.303-.718.303z"/><path d="m18.606 23.51c-.513 0-.949-.392-.995-.913l-.505-5.764-5.763.505c-.549.062-1.035-.358-1.083-.909-.048-.55.359-1.035.909-1.083l6.76-.592c.549-.055 1.035.358 1.083.909l.592 6.76c.048.55-.359 1.035-.909 1.083-.03.003-.06.004-.089.004z"/><path d="m30 38c-4.411 0-8-3.589-8-8s3.589-8 8-8 8 3.589 8 8-3.589 8-8 8zm0-14c-3.308 0-6 2.691-6 6s2.692 6 6 6 6-2.691 6-6-2.692-6-6-6z"/></g></svg>