<?xml version="1.0" encoding="iso-8859-1"?>
<!-- Generator: Adobe Illustrator 19.0.0, SVG Export Plug-In . SVG Version: 6.00 Build 0)  -->
<svg version="1.1" id="Layer_1" xmlns="http://www.w3.org/2000/svg" xmlns:xlink="http://www.w3.org/1999/xlink" x="0px" y="0px"
	 viewBox="0 0 512.002 512.002" style="enable-background:new 0 0 512.002 512.002;" xml:space="preserve">
<path style="fill:#F7971D;" d="M502.384,121.833c-0.006-0.783-0.014-1.567-0.033-2.346c-0.013-0.434-0.033-0.867-0.05-1.3
	c-0.024-0.603-0.044-1.207-0.075-1.808c-0.025-0.465-0.059-0.927-0.089-1.389c-0.036-0.567-0.074-1.133-0.119-1.697
	c-0.039-0.472-0.082-0.945-0.124-1.416c-0.052-0.553-0.106-1.104-0.165-1.656c-0.05-0.469-0.105-0.939-0.161-1.408
	c-0.065-0.552-0.136-1.101-0.209-1.65c-0.062-0.461-0.125-0.92-0.193-1.379c-0.082-0.559-0.17-1.116-0.26-1.673
	c-0.072-0.442-0.144-0.886-0.221-1.327c-0.101-0.58-0.209-1.155-0.318-1.73c-0.079-0.416-0.155-0.83-0.239-1.244
	c-0.127-0.635-0.266-1.265-0.404-1.897c-0.077-0.347-0.149-0.697-0.228-1.044c-0.215-0.937-0.441-1.869-0.678-2.797
	c-0.011-0.039-0.018-0.078-0.029-0.117c-0.249-0.969-0.513-1.933-0.786-2.891c-0.086-0.301-0.179-0.599-0.268-0.899
	c-0.194-0.66-0.389-1.319-0.596-1.974c-0.11-0.349-0.226-0.695-0.339-1.043c-0.196-0.603-0.392-1.203-0.599-1.801
	c-0.124-0.363-0.253-0.723-0.381-1.085c-0.206-0.582-0.416-1.161-0.631-1.739c-0.134-0.358-0.271-0.716-0.407-1.071
	c-0.224-0.581-0.452-1.159-0.685-1.734c-0.138-0.343-0.279-0.687-0.421-1.027c-0.246-0.596-0.5-1.187-0.755-1.777
	c-0.138-0.313-0.273-0.627-0.412-0.938c-0.284-0.636-0.575-1.268-0.871-1.897c-0.09-0.194-0.176-0.391-0.268-0.585l-0.016-0.024
	c-4.897-10.303-11.285-19.761-18.89-28.091l-0.013-0.019c-0.261-0.287-0.531-0.567-0.797-0.851c-0.341-0.366-0.68-0.734-1.025-1.096
	c-0.318-0.332-0.643-0.658-0.964-0.987c-0.336-0.344-0.672-0.691-1.013-1.031c-0.334-0.331-0.672-0.657-1.009-0.984
	c-0.339-0.33-0.678-0.66-1.021-0.986c-0.343-0.326-0.692-0.647-1.039-0.967c-0.344-0.319-0.69-0.638-1.039-0.952
	c-0.354-0.32-0.711-0.634-1.069-0.95c-0.349-0.307-0.701-0.615-1.054-0.918c-0.363-0.312-0.728-0.619-1.095-0.927
	c-0.357-0.299-0.716-0.597-1.077-0.891c-0.372-0.303-0.745-0.603-1.119-0.902c-0.364-0.29-0.73-0.577-1.096-0.862
	c-0.378-0.294-0.761-0.587-1.143-0.876c-0.372-0.281-0.743-0.558-1.118-0.833c-0.386-0.286-0.773-0.569-1.163-0.848
	c-0.378-0.273-0.762-0.542-1.144-0.81c-0.391-0.274-0.784-0.548-1.181-0.818c-0.386-0.264-0.777-0.522-1.166-0.781
	c-0.4-0.266-0.798-0.531-1.201-0.791c-0.395-0.255-0.793-0.505-1.19-0.754c-0.404-0.254-0.809-0.51-1.217-0.76
	c-0.403-0.245-0.811-0.486-1.217-0.728c-0.409-0.244-0.817-0.488-1.23-0.727c-0.417-0.241-0.837-0.472-1.257-0.708
	c-0.408-0.229-0.816-0.462-1.228-0.687c-0.438-0.239-0.881-0.469-1.322-0.701c-0.4-0.211-0.797-0.426-1.2-0.633
	c-0.507-0.26-1.019-0.511-1.53-0.763c-0.574-0.284-1.149-0.563-1.729-0.838c-0.612-0.29-1.226-0.58-1.845-0.86
	c-0.387-0.175-0.779-0.34-1.168-0.511c-0.487-0.213-0.975-0.431-1.467-0.638c-0.41-0.174-0.826-0.337-1.238-0.507
	c-0.475-0.194-0.948-0.389-1.427-0.577c-0.424-0.166-0.853-0.325-1.28-0.486c-0.472-0.179-0.945-0.359-1.42-0.532
	c-0.433-0.156-0.869-0.306-1.304-0.46c-0.475-0.165-0.95-0.333-1.427-0.492c-0.441-0.148-0.885-0.29-1.328-0.432
	c-0.477-0.153-0.956-0.305-1.435-0.453c-0.446-0.137-0.896-0.269-1.344-0.4c-0.482-0.141-0.965-0.282-1.452-0.418
	c-0.45-0.125-0.902-0.245-1.354-0.366c-0.491-0.13-0.981-0.258-1.474-0.381c-0.452-0.112-0.905-0.223-1.359-0.332
	c-0.498-0.118-0.996-0.234-1.497-0.345c-0.453-0.102-0.91-0.201-1.364-0.297c-0.506-0.107-1.012-0.209-1.52-0.31
	c-0.456-0.089-0.913-0.178-1.37-0.261c-0.511-0.094-1.025-0.183-1.538-0.271c-0.457-0.077-0.915-0.155-1.373-0.227
	c-0.524-0.082-1.048-0.159-1.576-0.235c-0.453-0.065-0.906-0.131-1.362-0.191c-0.538-0.07-1.078-0.133-1.618-0.196
	c-0.448-0.052-0.894-0.107-1.343-0.154c-0.557-0.059-1.117-0.107-1.677-0.157c-0.435-0.039-0.87-0.081-1.306-0.116
	c-0.592-0.046-1.186-0.081-1.78-0.119c-0.408-0.025-0.814-0.056-1.222-0.077c-0.664-0.034-1.331-0.057-1.997-0.08
	c-0.344-0.012-0.686-0.03-1.031-0.039c-1-0.026-2.002-0.04-3.009-0.04c-0.012,0-0.024-0.001-0.034-0.001h-0.001h-0.001
	c-0.012,0-0.022,0.001-0.034,0.001c-1.006,0-2.01,0.014-3.009,0.04c-0.345,0.009-0.687,0.027-1.029,0.039
	c-0.667,0.025-1.334,0.046-1.998,0.08c-0.408,0.021-0.814,0.052-1.222,0.077c-0.595,0.037-1.188,0.073-1.78,0.119
	c-0.436,0.034-0.871,0.077-1.306,0.116c-0.56,0.051-1.119,0.1-1.678,0.157c-0.449,0.047-0.896,0.102-1.343,0.154
	c-0.539,0.063-1.08,0.125-1.618,0.196c-0.455,0.06-0.908,0.125-1.362,0.191c-0.526,0.075-1.051,0.152-1.576,0.235
	c-0.458,0.072-0.916,0.15-1.373,0.227c-0.514,0.088-1.027,0.177-1.539,0.271c-0.458,0.084-0.914,0.172-1.37,0.261
	c-0.508,0.101-1.014,0.202-1.519,0.31c-0.456,0.096-0.913,0.196-1.365,0.297c-0.501,0.111-0.999,0.227-1.497,0.345
	c-0.454,0.109-0.907,0.219-1.359,0.332c-0.493,0.123-0.983,0.252-1.474,0.381c-0.452,0.12-0.904,0.241-1.354,0.366
	c-0.485,0.136-0.968,0.276-1.45,0.418c-0.449,0.131-0.899,0.262-1.344,0.4c-0.48,0.148-0.959,0.3-1.435,0.453
	c-0.443,0.142-0.887,0.285-1.328,0.432c-0.477,0.159-0.952,0.327-1.427,0.492c-0.435,0.153-0.871,0.302-1.304,0.46
	c-0.476,0.174-0.948,0.354-1.42,0.532c-0.426,0.162-0.856,0.32-1.28,0.486c-0.479,0.189-0.952,0.384-1.427,0.577
	c-0.413,0.168-0.828,0.333-1.238,0.507c-0.492,0.207-0.979,0.424-1.467,0.638c-0.389,0.17-0.781,0.335-1.168,0.511
	c-0.619,0.281-1.232,0.57-1.845,0.86c-0.58,0.274-1.154,0.555-1.729,0.838c-0.511,0.252-1.023,0.502-1.53,0.763
	c-0.403,0.206-0.8,0.422-1.2,0.633c-0.441,0.232-0.884,0.463-1.322,0.701c-0.411,0.225-0.82,0.457-1.228,0.687
	c-0.42,0.236-0.839,0.468-1.257,0.708c-0.412,0.239-0.821,0.483-1.229,0.727c-0.406,0.242-0.814,0.482-1.217,0.728
	c-0.408,0.25-0.813,0.506-1.217,0.76c-0.397,0.25-0.795,0.499-1.19,0.754c-0.403,0.259-0.801,0.525-1.201,0.791
	c-0.389,0.258-0.779,0.516-1.166,0.781c-0.395,0.27-0.788,0.544-1.181,0.818c-0.382,0.268-0.766,0.537-1.144,0.81
	c-0.39,0.28-0.778,0.562-1.163,0.848c-0.375,0.276-0.747,0.554-1.118,0.833c-0.382,0.29-0.765,0.583-1.143,0.876
	c-0.367,0.285-0.733,0.572-1.096,0.862c-0.375,0.298-0.748,0.599-1.119,0.902c-0.361,0.295-0.72,0.592-1.077,0.891
	c-0.367,0.307-0.732,0.615-1.095,0.927c-0.353,0.303-0.705,0.611-1.054,0.918c-0.358,0.316-0.716,0.63-1.069,0.95
	c-0.349,0.314-0.694,0.633-1.038,0.952c-0.348,0.321-0.696,0.643-1.04,0.967c-0.343,0.326-0.682,0.656-1.021,0.986
	c-0.337,0.328-0.676,0.653-1.009,0.984c-0.341,0.34-0.677,0.687-1.013,1.031c-0.322,0.329-0.646,0.655-0.964,0.987
	c-0.345,0.362-0.685,0.73-1.025,1.096c-0.266,0.284-0.536,0.563-0.797,0.851l-0.013,0.019c-7.606,8.329-13.994,17.787-18.89,28.091
	l-0.016,0.024c-0.092,0.194-0.178,0.391-0.268,0.585c-0.295,0.63-0.587,1.262-0.871,1.897c-0.139,0.312-0.274,0.626-0.411,0.938
	c-0.256,0.59-0.51,1.183-0.756,1.777c-0.142,0.341-0.283,0.685-0.421,1.027c-0.232,0.575-0.461,1.154-0.685,1.734
	c-0.136,0.356-0.273,0.712-0.406,1.07c-0.216,0.58-0.426,1.161-0.634,1.745c-0.127,0.359-0.255,0.717-0.379,1.077
	c-0.206,0.6-0.404,1.202-0.601,1.806c-0.112,0.347-0.228,0.692-0.336,1.041c-0.207,0.655-0.402,1.314-0.597,1.974
	c-0.089,0.3-0.182,0.598-0.268,0.899c-0.274,0.96-0.538,1.922-0.786,2.891c-0.011,0.039-0.019,0.078-0.029,0.117
	c-0.237,0.928-0.463,1.86-0.678,2.797c-0.079,0.347-0.151,0.697-0.228,1.044c-0.138,0.632-0.276,1.262-0.404,1.897
	c-0.084,0.414-0.159,0.828-0.239,1.244c-0.109,0.575-0.217,1.151-0.318,1.73c-0.077,0.441-0.149,0.885-0.221,1.327
	c-0.09,0.557-0.178,1.113-0.26,1.673c-0.067,0.459-0.131,0.917-0.193,1.377c-0.074,0.552-0.145,1.102-0.21,1.656
	c-0.056,0.467-0.109,0.933-0.16,1.401c-0.06,0.553-0.112,1.107-0.164,1.662c-0.043,0.47-0.088,0.942-0.125,1.414
	c-0.045,0.563-0.082,1.13-0.118,1.697c-0.031,0.463-0.065,0.924-0.09,1.389c-0.031,0.601-0.052,1.205-0.075,1.808
	c-0.017,0.434-0.038,0.867-0.05,1.3c-0.02,0.78-0.027,1.563-0.032,2.346c-0.001,0.246-0.011,0.493-0.011,0.74
	c0,63.255,51.279,114.531,114.534,114.531h0.001h0.001c63.255,0,114.534-51.276,114.534-114.531
	C502.393,122.325,502.384,122.08,502.384,121.833z"/>
<path style="fill:#F37521;" d="M292.605,122.574c0-0.247,0.01-0.494,0.011-0.74c0.005-0.783,0.013-1.567,0.032-2.346
	c0.013-0.434,0.033-0.867,0.05-1.3c0.024-0.603,0.044-1.207,0.075-1.808c0.025-0.465,0.059-0.927,0.09-1.389
	c0.035-0.567,0.073-1.133,0.118-1.697c0.038-0.472,0.082-0.944,0.125-1.414c0.051-0.555,0.105-1.109,0.164-1.662
	c0.05-0.468,0.105-0.934,0.16-1.401c0.065-0.554,0.136-1.104,0.21-1.656c0.062-0.46,0.125-0.919,0.193-1.377
	c0.082-0.559,0.17-1.116,0.26-1.673c0.072-0.442,0.144-0.886,0.221-1.327c0.101-0.58,0.209-1.155,0.318-1.73
	c0.079-0.416,0.155-0.83,0.239-1.244c0.127-0.635,0.266-1.265,0.404-1.897c0.077-0.347,0.149-0.697,0.228-1.044
	c0.215-0.937,0.441-1.869,0.678-2.797c0.011-0.039,0.019-0.078,0.029-0.117c0.249-0.969,0.513-1.933,0.786-2.891
	c0.086-0.301,0.179-0.599,0.268-0.899c0.195-0.66,0.389-1.319,0.597-1.974c0.109-0.348,0.224-0.694,0.336-1.041
	c0.197-0.603,0.394-1.206,0.601-1.806c0.123-0.36,0.251-0.718,0.379-1.077c0.207-0.584,0.418-1.166,0.634-1.745
	c0.133-0.358,0.27-0.715,0.406-1.07c0.224-0.581,0.452-1.159,0.685-1.734c0.138-0.343,0.279-0.687,0.421-1.027
	c0.246-0.596,0.5-1.187,0.756-1.777c0.137-0.313,0.272-0.627,0.411-0.938c0.284-0.636,0.575-1.268,0.871-1.897
	c0.09-0.194,0.176-0.391,0.268-0.585l0.016-0.024c4.897-10.303,11.285-19.761,18.89-28.091l0.013-0.019
	c0.261-0.287,0.531-0.567,0.797-0.851c0.341-0.366,0.68-0.734,1.025-1.096c0.318-0.332,0.643-0.658,0.964-0.987
	c0.336-0.344,0.673-0.691,1.013-1.031c0.334-0.331,0.672-0.657,1.009-0.984c0.339-0.33,0.678-0.66,1.021-0.986
	c0.343-0.326,0.692-0.647,1.04-0.967c0.343-0.319,0.689-0.638,1.038-0.952c0.353-0.32,0.711-0.634,1.069-0.95
	c0.349-0.307,0.701-0.615,1.054-0.918c0.364-0.312,0.728-0.619,1.095-0.927c0.357-0.299,0.716-0.597,1.077-0.891
	c0.372-0.303,0.745-0.603,1.119-0.902c0.364-0.29,0.73-0.577,1.096-0.862c0.379-0.294,0.761-0.587,1.143-0.876
	c0.372-0.281,0.743-0.558,1.118-0.833c0.386-0.286,0.773-0.569,1.163-0.848c0.378-0.273,0.762-0.542,1.144-0.81
	c0.391-0.274,0.784-0.548,1.181-0.818c0.386-0.264,0.777-0.522,1.166-0.781c0.4-0.266,0.798-0.531,1.201-0.791
	c0.395-0.255,0.793-0.505,1.19-0.754c0.404-0.254,0.809-0.51,1.217-0.76c0.403-0.245,0.811-0.486,1.217-0.728
	c0.409-0.244,0.817-0.488,1.229-0.727c0.418-0.241,0.837-0.472,1.257-0.708c0.408-0.229,0.816-0.462,1.228-0.687
	c0.438-0.239,0.881-0.469,1.322-0.701c0.4-0.211,0.797-0.426,1.2-0.633c0.507-0.26,1.019-0.511,1.53-0.763
	c0.575-0.284,1.149-0.563,1.729-0.838c0.612-0.29,1.226-0.58,1.845-0.86c0.387-0.175,0.779-0.34,1.168-0.511
	c0.487-0.213,0.975-0.431,1.467-0.638c0.41-0.174,0.826-0.337,1.238-0.507c0.475-0.194,0.948-0.389,1.427-0.577
	c0.424-0.166,0.854-0.325,1.28-0.486c0.472-0.179,0.945-0.359,1.42-0.532c0.433-0.156,0.869-0.306,1.304-0.46
	c0.475-0.165,0.95-0.333,1.427-0.492c0.441-0.148,0.885-0.29,1.328-0.432c0.477-0.153,0.956-0.305,1.435-0.453
	c0.446-0.137,0.896-0.269,1.344-0.4c0.482-0.141,0.965-0.282,1.451-0.418c0.45-0.125,0.902-0.245,1.354-0.366
	c0.491-0.13,0.981-0.258,1.474-0.381c0.452-0.112,0.905-0.223,1.359-0.332c0.498-0.118,0.996-0.234,1.497-0.345
	c0.453-0.102,0.91-0.201,1.365-0.297c0.505-0.107,1.011-0.209,1.519-0.31c0.456-0.089,0.913-0.178,1.37-0.261
	c0.512-0.094,1.025-0.183,1.539-0.271c0.457-0.077,0.915-0.155,1.373-0.227c0.524-0.082,1.049-0.159,1.576-0.235
	c0.453-0.065,0.906-0.131,1.362-0.191c0.538-0.07,1.079-0.133,1.618-0.196c0.448-0.052,0.894-0.107,1.343-0.154
	c0.558-0.059,1.117-0.107,1.678-0.157c0.246-0.022,0.493-0.043,0.738-0.066c-0.189-0.017-0.378-0.035-0.567-0.05
	c-0.592-0.046-1.186-0.081-1.78-0.119c-0.408-0.025-0.814-0.056-1.222-0.077c-0.664-0.034-1.331-0.057-1.997-0.08
	c-0.344-0.012-0.686-0.03-1.031-0.039c-0.999-0.026-2.002-0.04-3.009-0.04c-0.012,0-0.024-0.001-0.034-0.001h-0.001h-0.001
	c-0.012,0-0.022,0.001-0.034,0.001c-1.006,0-2.01,0.014-3.009,0.04c-0.345,0.009-0.687,0.027-1.029,0.039
	c-0.667,0.025-1.334,0.046-1.998,0.08c-0.408,0.021-0.814,0.052-1.222,0.077c-0.595,0.037-1.188,0.073-1.78,0.119
	c-0.436,0.034-0.871,0.077-1.306,0.116c-0.56,0.051-1.119,0.1-1.678,0.157c-0.449,0.047-0.896,0.102-1.343,0.154
	c-0.539,0.063-1.08,0.125-1.618,0.196c-0.455,0.06-0.908,0.125-1.362,0.191c-0.526,0.075-1.051,0.152-1.576,0.235
	c-0.458,0.072-0.916,0.15-1.373,0.227c-0.514,0.088-1.027,0.177-1.539,0.271c-0.458,0.084-0.914,0.172-1.37,0.261
	c-0.508,0.101-1.014,0.202-1.519,0.31c-0.456,0.096-0.913,0.196-1.365,0.297c-0.501,0.111-0.999,0.227-1.497,0.345
	c-0.454,0.109-0.907,0.219-1.359,0.332c-0.493,0.123-0.983,0.252-1.474,0.381c-0.452,0.12-0.904,0.241-1.354,0.366
	c-0.485,0.136-0.968,0.276-1.451,0.418c-0.449,0.131-0.899,0.262-1.344,0.4c-0.48,0.148-0.959,0.3-1.435,0.453
	c-0.444,0.142-0.887,0.285-1.328,0.432c-0.477,0.159-0.952,0.327-1.427,0.492c-0.435,0.153-0.871,0.302-1.304,0.46
	c-0.476,0.174-0.948,0.354-1.42,0.532c-0.426,0.162-0.856,0.32-1.28,0.486c-0.479,0.189-0.952,0.384-1.427,0.577
	c-0.413,0.168-0.828,0.333-1.238,0.507c-0.492,0.207-0.979,0.424-1.467,0.638c-0.389,0.17-0.781,0.335-1.168,0.511
	c-0.619,0.281-1.232,0.57-1.845,0.86c-0.58,0.274-1.154,0.555-1.729,0.838c-0.511,0.252-1.023,0.502-1.53,0.763
	c-0.403,0.206-0.8,0.422-1.2,0.633c-0.441,0.232-0.884,0.463-1.322,0.701c-0.411,0.225-0.82,0.457-1.228,0.687
	c-0.42,0.236-0.839,0.468-1.257,0.708c-0.412,0.239-0.821,0.483-1.229,0.727c-0.406,0.242-0.814,0.482-1.217,0.728
	c-0.408,0.25-0.813,0.506-1.217,0.76c-0.397,0.25-0.795,0.499-1.19,0.754c-0.403,0.259-0.801,0.525-1.201,0.791
	c-0.389,0.258-0.779,0.516-1.166,0.781c-0.395,0.27-0.788,0.544-1.181,0.818c-0.382,0.268-0.766,0.537-1.144,0.81
	c-0.39,0.28-0.778,0.562-1.163,0.848c-0.375,0.276-0.747,0.554-1.118,0.833c-0.382,0.29-0.765,0.583-1.143,0.876
	c-0.367,0.285-0.733,0.572-1.096,0.862c-0.375,0.298-0.748,0.599-1.119,0.902c-0.361,0.295-0.72,0.592-1.077,0.891
	c-0.367,0.307-0.732,0.615-1.095,0.927c-0.354,0.303-0.705,0.611-1.054,0.918c-0.358,0.316-0.716,0.63-1.069,0.95
	c-0.349,0.314-0.694,0.633-1.038,0.952c-0.348,0.321-0.696,0.643-1.04,0.967c-0.343,0.326-0.682,0.656-1.021,0.986
	c-0.337,0.328-0.676,0.653-1.009,0.984c-0.341,0.34-0.677,0.687-1.013,1.031c-0.322,0.329-0.646,0.655-0.964,0.987
	c-0.345,0.362-0.685,0.73-1.025,1.096c-0.266,0.284-0.536,0.563-0.797,0.851l-0.013,0.019c-7.606,8.329-13.994,17.787-18.89,28.091
	l-0.016,0.024c-0.092,0.194-0.178,0.391-0.268,0.585c-0.295,0.63-0.587,1.262-0.871,1.897c-0.139,0.312-0.274,0.626-0.411,0.938
	c-0.256,0.59-0.51,1.183-0.756,1.777c-0.142,0.341-0.283,0.685-0.421,1.027c-0.232,0.575-0.461,1.154-0.685,1.734
	c-0.136,0.356-0.273,0.712-0.406,1.07c-0.216,0.58-0.426,1.161-0.634,1.745c-0.127,0.359-0.255,0.717-0.379,1.077
	c-0.206,0.6-0.404,1.202-0.601,1.806c-0.112,0.347-0.228,0.692-0.336,1.041c-0.207,0.655-0.402,1.314-0.597,1.974
	c-0.089,0.3-0.182,0.598-0.268,0.899c-0.274,0.96-0.538,1.922-0.786,2.891c-0.011,0.039-0.019,0.078-0.029,0.117
	c-0.237,0.928-0.463,1.86-0.678,2.797c-0.079,0.347-0.151,0.697-0.228,1.044c-0.138,0.632-0.276,1.262-0.404,1.897
	c-0.084,0.414-0.159,0.828-0.239,1.244c-0.109,0.575-0.217,1.151-0.318,1.73c-0.077,0.441-0.149,0.885-0.221,1.327
	c-0.09,0.557-0.178,1.113-0.26,1.673c-0.067,0.458-0.131,0.917-0.193,1.377c-0.074,0.552-0.145,1.102-0.21,1.656
	c-0.056,0.467-0.109,0.933-0.16,1.401c-0.06,0.553-0.112,1.107-0.164,1.662c-0.043,0.47-0.088,0.942-0.125,1.414
	c-0.045,0.563-0.082,1.13-0.118,1.697c-0.031,0.463-0.065,0.924-0.09,1.389c-0.031,0.601-0.052,1.205-0.075,1.808
	c-0.017,0.434-0.038,0.867-0.05,1.3c-0.02,0.78-0.027,1.563-0.032,2.346c-0.001,0.246-0.011,0.493-0.011,0.74
	c0,63.255,51.279,114.531,114.534,114.531h0.001h0.001c3.247,0,6.461-0.142,9.64-0.407
	C338.756,231.801,292.605,182.581,292.605,122.574z"/>
<path style="fill:#694B4B;" d="M390.38,39.797h-4.32c-25.252,0-45.797,20.544-45.797,45.797v14.082l4.002-1.354
	c0.641-0.217,1.292-0.328,1.97-0.328c0.382,0,38.488-0.276,55.729-24.115c1.375-1.901,3.813-2.854,6.125-2.384
	c2.327,0.477,4.17,2.281,4.705,4.644c0.186,0.765,4.712,18.76,18.983,22.005c0.159,0.035,0.314,0.087,0.467,0.134l3.934,1.231
	V85.594C436.176,60.342,415.631,39.797,390.38,39.797z"/>
<g>
	<path style="fill:#FBCB99;" d="M392.836,161.745h-9.069c-1.071,0-2.205-0.048-3.568-0.15l-2.783-0.209v10.162l10.688,10.409
		l11.09-11.508v-9.066l-2.785,0.211C395.048,161.697,393.915,161.745,392.836,161.745z"/>
	<path style="fill:#FBCB99;" d="M445.137,102.084h-15.669v-5.662l-3.454,1.224c-0.918,0.324-1.903,0.379-2.866,0.163
		c-7.981-1.816-14.468-6.911-19.283-15.142l-1.542-2.641l-2.351,1.957C381.046,97.758,353.66,97.94,352.505,97.94l-0.224-0.002
		c-0.566-0.003-1.137-0.104-1.694-0.3l-3.451-1.215v5.66h-16.253v18.758h16.768c2.91,17.309,17.991,30.545,36.115,30.545h9.069
		c18.123,0,33.207-13.235,36.116-30.545h16.185V102.084z"/>
</g>
<path style="fill:#6598CB;" d="M455.173,205.034c-5.159-11.982-16.038-15.988-16.551-16.172c-0.076-0.025-0.118-0.042-0.206-0.078
	l-30.659-12.295l-15.807,16.408c-0.949,0.986-2.279,1.564-3.729,1.585c-1.358,0-2.643-0.522-3.615-1.47l-16.653-16.222
	l-30.673,12.012c-0.069,0.027-0.138,0.054-0.281,0.101c-0.457,0.164-11.257,4.174-16.411,16.142l-0.776,1.798l1.519,1.236
	c18.755,15.262,42.387,23.669,66.541,23.669c24.162,0,47.797-8.41,66.557-23.682l1.518-1.235L455.173,205.034z"/>
<path style="fill:#563B3B;" d="M354.806,85.594c0-23.523,17.831-42.954,40.685-45.505c-1.678-0.186-3.383-0.291-5.112-0.291h-4.32
	c-25.252,0-45.797,20.544-45.797,45.797v14.082l4.002-1.354c0.641-0.217,1.292-0.328,1.97-0.328c0.111,0,3.468-0.028,8.571-0.659
	V85.594H354.806z"/>
<g>
	<path style="fill:#EDBA89;" d="M396.198,161.745h2.994v-0.362l-2.785,0.211c-0.679,0.051-1.302,0.089-1.888,0.115
		C395.108,161.733,395.661,161.745,396.198,161.745z"/>
	<path style="fill:#EDBA89;" d="M389.848,171.549v-9.803h-6.081c-1.071,0-2.205-0.048-3.568-0.15l-2.783-0.209v10.162l10.688,10.409
		l6.017-6.246L389.848,171.549z"/>
	<path style="fill:#EDBA89;" d="M363.079,101.766c0.589,0.208,1.188,0.313,1.785,0.316l0.235,0.002
		c1.093,0,24.384-0.163,43.547-12.171c-0.902-1.219-1.764-2.514-2.576-3.903l-1.624-2.78l-2.475,2.061
		c-12.971,10.81-29.708,14.66-40.15,16.03L363.079,101.766z"/>
	<path style="fill:#EDBA89;" d="M359.567,114.753V101.63c-4.056,0.435-6.721,0.454-7.064,0.454l-0.224-0.002
		c-0.566-0.003-1.137-0.103-1.694-0.3l-3.451-1.215v14.186c0,20.198,16.432,36.633,36.63,36.633h9.069
		c0.565,0,1.124-0.018,1.682-0.043C375.096,150.461,359.567,134.389,359.567,114.753z"/>
</g>
<path style="fill:#4982AA;" d="M333.764,208.079l-1.519-1.236l0.775-1.798c5.156-11.969,15.954-15.978,16.412-16.142
	c0.141-0.047,0.211-0.073,0.281-0.101l21.805-8.539l-3.565-3.473l-30.673,12.012c-0.069,0.027-0.138,0.054-0.281,0.101
	c-0.457,0.164-11.257,4.174-16.411,16.142l-0.776,1.798l1.519,1.236c18.755,15.262,42.387,23.669,66.541,23.669
	c2.077,0,4.149-0.085,6.216-0.208C372.125,230.228,350.906,222.029,333.764,208.079z"/>
<g>
	<path style="fill:#202121;" d="M510.403,120.984l-0.005-0.282c-0.008-0.608-0.018-1.216-0.035-1.846l-0.057-1.536
		c-0.026-0.585-0.054-1.17-0.086-1.746c-0.028-0.506-0.061-1.012-0.094-1.499c-0.039-0.595-0.086-1.188-0.136-1.799
		c-0.041-0.493-0.084-0.988-0.131-1.487c-0.059-0.601-0.12-1.196-0.191-1.829c-0.05-0.46-0.102-0.92-0.16-1.408
		c-0.076-0.618-0.161-1.234-0.245-1.85l-0.042-0.309c-0.048-0.351-0.095-0.702-0.146-1.034c-0.103-0.69-0.215-1.373-0.331-2.06
		l-0.186-1.128c-0.178-1.006-0.369-2.009-0.569-3.006c-0.01-0.049-0.021-0.108-0.027-0.139c-0.212-1.05-0.443-2.095-0.688-3.155
		l-0.237-0.971c-0.171-0.716-0.344-1.43-0.528-2.138c-0.085-0.325-0.172-0.647-0.261-0.971l-0.045-0.163
		c-0.178-0.659-0.356-1.317-0.538-1.944c-0.117-0.407-0.238-0.81-0.348-1.178c-0.191-0.64-0.384-1.275-0.584-1.905l-0.376-1.169
		c-0.208-0.634-0.422-1.268-0.632-1.876c-0.135-0.391-0.271-0.781-0.395-1.123c-0.23-0.649-0.468-1.295-0.726-1.986l-0.379-0.999
		c-0.268-0.692-0.544-1.378-0.826-2.075l-0.252-0.631c-0.035-0.087-0.073-0.174-0.114-0.26c-1.858-4.462-4.002-8.856-6.377-13.064
		c-2.181-3.865-7.08-5.231-10.946-3.05c-3.864,2.18-5.23,7.081-3.05,10.946c2.098,3.717,3.989,7.601,5.621,11.543
		c0.025,0.059,0.05,0.117,0.076,0.177l0.156,0.392c0.245,0.603,0.487,1.207,0.71,1.783l0.343,0.904
		c0.209,0.56,0.418,1.123,0.634,1.735c0.111,0.306,0.22,0.615,0.333,0.946c0.189,0.543,0.373,1.089,0.537,1.591l0.341,1.062
		c0.171,0.542,0.337,1.084,0.511,1.666c0.1,0.33,0.199,0.659,0.3,1.016c0.162,0.559,0.315,1.123,0.472,1.71l0.26,0.962
		c0.16,0.619,0.31,1.242,0.46,1.86l0.204,0.836c0.197,0.855,0.387,1.713,0.582,2.662c0.01,0.048,0.022,0.111,0.033,0.169
		c0.176,0.874,0.343,1.754,0.495,2.611l0.165,1.009c0.099,0.589,0.197,1.177,0.288,1.788c0.041,0.269,0.076,0.54,0.112,0.811
		l0.046,0.337c0.075,0.544,0.15,1.089,0.214,1.609c0.049,0.408,0.094,0.818,0.142,1.259c0.058,0.525,0.112,1.049,0.163,1.569
		c0.041,0.428,0.077,0.861,0.111,1.276c0.042,0.51,0.082,1.022,0.118,1.555c0.03,0.436,0.059,0.873,0.082,1.317
		c0.03,0.524,0.054,1.049,0.074,1.494l0.05,1.359c0.015,0.525,0.022,1.052,0.03,1.606l0.005,0.33
		c0.005,0.311,0.012,0.622,0.012,0.962c0.002,0.468-0.005,0.938-0.013,1.408l-0.016,1.458c-0.02,0.737-0.05,1.477-0.078,2.153
		l-0.029,0.74c-1.338,26.292-12.153,49.891-28.961,67.667c-7.553-13.38-19.886-18.392-22.044-19.184l-30.8-12.35v-4.585
		c9.497-5.018,17.168-13.439,21.647-23.779c0.367,0.051,0.74,0.088,1.123,0.088c11.811,0,21.42-10.059,21.42-22.422
		c0-9.012-5.117-16.779-12.46-20.339v-6.289c0-32.341-24.371-58.654-54.328-58.654h-3.857c-29.957,0-54.328,26.313-54.328,58.654
		v6.315c-7.315,3.572-12.407,11.322-12.407,20.312c0,12.363,9.609,22.422,21.42,22.422c0.413,0,0.817-0.041,1.215-0.102
		c4.586,10.598,12.527,19.179,22.348,24.149v4.181l-31.628,12.386c-2.052,0.749-14.494,5.755-22.088,19.226
		c-19.275-20.408-30.525-48.336-28.99-78.52l0.045-0.675c0.043-0.732,0.086-1.462,0.142-2.195c0.02-0.256,0.044-0.511,0.067-0.765
		l0.073-0.805c0.041-0.447,0.08-0.893,0.123-1.317c0.034-0.335,0.075-0.668,0.116-1.003l0.036-0.309
		c0.059-0.518,0.119-1.037,0.183-1.529l0.19-1.338c0.073-0.51,0.149-1.019,0.227-1.514c0.069-0.435,0.142-0.869,0.22-1.317
		c0.087-0.513,0.18-1.023,0.268-1.5c0.08-0.431,0.162-0.861,0.243-1.264c0.105-0.523,0.213-1.042,0.32-1.54l0.273-1.249
		c0.12-0.532,0.249-1.061,0.374-1.572l0.283-1.156c0.149-0.583,0.306-1.16,0.463-1.732l0.259-0.959
		c0.246-0.865,0.5-1.72,0.778-2.612l0.024-0.08c0.276-0.885,0.565-1.763,0.851-2.602l0.302-0.851
		c0.211-0.603,0.423-1.203,0.65-1.815l0.358-0.938c0.209-0.547,0.419-1.094,0.642-1.645c0.13-0.324,0.261-0.644,0.405-0.987
		c0.217-0.526,0.436-1.05,0.686-1.625l0.411-0.936c0.237-0.533,0.478-1.063,0.718-1.581l0.444-0.942
		c0.256-0.541,0.521-1.08,0.773-1.589l0.436-0.873c0.291-0.573,0.593-1.144,0.916-1.754l0.202-0.39
		c0.022-0.042,0.045-0.082,0.067-0.124c5.008-9.286,11.357-17.764,18.871-25.197c0.044-0.044,0.088-0.088,0.132-0.134
		c0.136-0.132,0.273-0.262,0.41-0.393l0.423-0.408c0.277-0.27,0.555-0.541,0.84-0.811c0.213-0.201,0.43-0.4,0.647-0.599l0.403-0.371
		c0.292-0.271,0.586-0.543,0.865-0.794l1.013-0.891c0.324-0.286,0.647-0.571,0.984-0.859c0.274-0.235,0.553-0.467,0.83-0.697
		l0.204-0.17c0.319-0.268,0.643-0.538,0.99-0.82c0.298-0.243,0.598-0.481,0.898-0.72l0.132-0.105
		c0.337-0.269,0.677-0.537,1.012-0.796c0.357-0.275,0.712-0.546,1.085-0.826c0.343-0.259,0.691-0.517,1.028-0.767
		c0.362-0.267,0.725-0.529,1.08-0.783c0.346-0.247,0.692-0.494,1.061-0.749c0.37-0.257,0.739-0.513,1.084-0.748
		c0.365-0.245,0.73-0.491,1.102-0.737c0.368-0.244,0.737-0.487,1.124-0.736c0.361-0.232,0.724-0.462,1.1-0.696
		c0.371-0.232,0.742-0.466,1.147-0.712c0.352-0.215,0.711-0.426,1.119-0.668c0.377-0.225,0.753-0.449,1.139-0.671
		c0.331-0.191,0.663-0.376,0.995-0.561l0.298-0.166c0.337-0.19,0.676-0.379,1.006-0.559c0.287-0.155,0.576-0.307,0.866-0.46
		l0.396-0.21c0.363-0.193,0.726-0.386,1.063-0.558c0.286-0.146,0.571-0.287,0.857-0.427l0.652-0.325
		c0.295-0.147,0.589-0.294,0.885-0.436c0.336-0.162,0.677-0.318,1.016-0.475l0.586-0.273c0.261-0.122,0.522-0.245,0.802-0.371
		c0.402-0.182,0.807-0.356,1.211-0.53l0.234-0.101c0.548-0.237,1.093-0.469,1.653-0.7c0.584-0.241,1.169-0.482,1.753-0.711
		c0.216-0.085,0.434-0.165,0.652-0.246l0.799-0.302c0.347-0.132,0.694-0.265,1.062-0.399c0.273-0.1,0.548-0.194,0.823-0.289
		l0.668-0.232c0.336-0.118,0.673-0.238,1.019-0.352c0.259-0.087,0.521-0.169,0.782-0.253l0.688-0.221
		c0.365-0.117,0.731-0.236,1.076-0.342l1.45-0.427c0.379-0.111,0.758-0.222,1.13-0.326c0.42-0.117,0.84-0.229,1.269-0.343
		c0.452-0.12,0.906-0.24,1.355-0.352c0.415-0.105,0.83-0.204,1.254-0.304c0.458-0.109,0.918-0.219,1.378-0.322
		c0.407-0.092,0.817-0.179,1.257-0.272c0.465-0.097,0.924-0.195,1.374-0.283c0.433-0.085,0.867-0.167,1.298-0.247
		c0.464-0.085,0.924-0.168,1.417-0.251c0.423-0.073,0.851-0.144,1.273-0.211c0.475-0.075,0.956-0.147,1.444-0.217
		c0.413-0.059,0.826-0.118,1.262-0.175c0.485-0.064,0.969-0.122,1.445-0.179c0.424-0.05,0.851-0.101,1.297-0.148
		c0.49-0.052,0.98-0.097,1.463-0.142c0.424-0.039,0.851-0.078,1.271-0.111c0.5-0.04,1.002-0.072,1.531-0.106l0.17-0.012
		c0.356-0.024,0.711-0.049,1.073-0.067c0.37-0.02,0.739-0.034,1.111-0.049l1.658-0.065c0.456-0.012,0.913-0.017,1.369-0.022
		l1.429-0.016c0.524,0,1.049,0.009,1.575,0.016l1.262,0.018c0.927,0.022,1.859,0.058,2.792,0.105
		c0.022,0.001,0.047,0.002,0.071,0.003c0.937,0.048,1.869,0.109,2.802,0.18l1.313,0.116c0.498,0.044,0.995,0.087,1.47,0.136
		l1.462,0.167c0.446,0.051,0.892,0.102,1.331,0.157l1.587,0.224c0.391,0.056,0.783,0.111,1.169,0.171
		c0.351,0.056,0.702,0.115,1.052,0.175l0.228,0.039c0.482,0.08,0.966,0.162,1.459,0.253c0.324,0.059,0.646,0.121,0.966,0.184
		l0.282,0.055c0.483,0.095,0.965,0.19,1.454,0.292c0.425,0.09,0.854,0.184,1.254,0.273c0.478,0.108,0.959,0.215,1.428,0.327
		c0.426,0.102,0.851,0.207,1.266,0.311c0.469,0.117,0.937,0.238,1.381,0.354c0.422,0.112,0.845,0.228,1.266,0.344
		c0.46,0.127,0.916,0.258,1.362,0.388c0.422,0.123,0.842,0.247,1.25,0.373c0.45,0.138,0.9,0.281,1.348,0.424
		c0.421,0.135,0.841,0.271,1.224,0.397c0.453,0.154,0.905,0.31,1.355,0.467c0.409,0.142,0.82,0.286,1.219,0.431
		c0.442,0.16,0.882,0.327,1.304,0.485l1.229,0.469c0.335,0.131,0.667,0.267,1.001,0.403l0.653,0.266
		c0.279,0.114,0.558,0.227,0.832,0.343c0.381,0.161,0.761,0.328,1.139,0.494l0.529,0.231c0.26,0.114,0.521,0.226,0.787,0.347
		c0.353,0.16,0.703,0.325,1.053,0.488l0.696,0.326c0.22,0.103,0.439,0.205,0.681,0.322c0.325,0.156,0.647,0.318,0.967,0.479
		l1.409,0.703c0.559,0.289,1.112,0.586,1.687,0.896c0.522,0.28,1.04,0.566,1.562,0.858l0.252,0.14
		c0.374,0.208,0.747,0.416,1.133,0.641c0.249,0.144,0.495,0.291,0.741,0.44l0.632,0.377c0.299,0.177,0.599,0.354,0.901,0.539
		c0.272,0.166,0.54,0.335,0.808,0.506l0.656,0.414c0.258,0.162,0.516,0.325,0.779,0.494c0.29,0.189,0.58,0.381,0.869,0.574
		l0.465,0.311c0.287,0.19,0.573,0.379,0.869,0.582c0.337,0.231,0.673,0.467,1.005,0.701c0.005,0.004,0.084,0.059,0.088,0.062
		l0.119,0.084c0.314,0.221,0.628,0.44,0.96,0.679c0.355,0.255,0.706,0.515,1.069,0.785l0.107,0.078
		c0.307,0.227,0.614,0.453,0.935,0.698c0.357,0.27,0.71,0.545,1.059,0.816c0.34,0.266,0.682,0.532,1.034,0.814
		c0.341,0.272,0.681,0.548,1.027,0.832c0.336,0.276,0.673,0.554,1.001,0.827c0.344,0.29,0.688,0.583,1.044,0.889
		c0.321,0.275,0.638,0.554,0.961,0.839c0.335,0.295,0.667,0.592,0.989,0.882c0.324,0.292,0.645,0.589,0.958,0.878
		c0.325,0.301,0.647,0.602,0.978,0.917c0.311,0.295,0.618,0.593,0.922,0.89l0.243,0.238c0.24,0.235,0.479,0.468,0.734,0.722
		c0.303,0.301,0.603,0.607,0.911,0.923c0.307,0.314,0.615,0.629,0.909,0.937c0.245,0.257,0.486,0.517,0.73,0.779l0.18,0.194
		c3.022,3.248,8.104,3.431,11.355,0.408c3.248-3.022,3.431-8.106,0.408-11.355l-0.172-0.186c-0.285-0.305-0.569-0.611-0.865-0.922
		c-0.35-0.366-0.704-0.73-1.049-1.082c-0.358-0.367-0.716-0.733-1.061-1.077c-0.282-0.282-0.567-0.559-0.852-0.838l-0.232-0.227
		c-0.36-0.351-0.724-0.704-1.077-1.039c-0.373-0.356-0.748-0.706-1.134-1.064c-0.362-0.335-0.727-0.672-1.104-1.013
		c-0.38-0.343-0.763-0.685-1.14-1.017c-0.379-0.335-0.761-0.671-1.132-0.988c-0.386-0.332-0.773-0.662-1.17-0.995
		c-0.379-0.319-0.762-0.634-1.137-0.942c-0.403-0.331-0.808-0.661-1.202-0.975c-0.392-0.313-0.788-0.623-1.187-0.933
		c-0.402-0.313-0.806-0.626-1.194-0.921c-0.371-0.283-0.745-0.559-1.121-0.837l-0.092-0.067c-0.42-0.311-0.838-0.621-1.241-0.911
		c-0.374-0.27-0.75-0.535-1.128-0.798l-0.175-0.123c-0.397-0.281-0.797-0.56-1.187-0.827c-0.348-0.239-0.701-0.472-1.054-0.707
		l-0.419-0.28c-0.358-0.24-0.715-0.477-1.07-0.707c-0.318-0.206-0.64-0.408-0.96-0.61l-0.614-0.386
		c-0.335-0.212-0.671-0.424-1.005-0.629c-0.371-0.227-0.745-0.449-1.119-0.67l-0.527-0.315c-0.328-0.197-0.655-0.393-0.968-0.574
		c-0.452-0.262-0.911-0.517-1.367-0.773l-0.237-0.132c-0.603-0.336-1.206-0.67-1.79-0.982c-0.64-0.345-1.281-0.689-1.948-1.033
		c-0.279-0.142-0.558-0.281-0.837-0.419l-0.708-0.354c-0.401-0.201-0.802-0.403-1.183-0.585c-0.298-0.146-0.6-0.286-0.901-0.425
		l-0.647-0.303c-0.418-0.196-0.836-0.391-1.251-0.58c-0.334-0.151-0.67-0.297-1.007-0.445l-0.476-0.208
		c-0.451-0.198-0.903-0.395-1.362-0.589c-0.335-0.141-0.674-0.28-1.011-0.417l-0.657-0.268c-0.4-0.162-0.798-0.326-1.206-0.484
		c-0.375-0.147-0.751-0.289-1.127-0.432l-0.265-0.101c-0.499-0.189-1-0.376-1.506-0.56c-0.47-0.17-0.946-0.336-1.422-0.502
		c-0.498-0.174-0.996-0.346-1.533-0.527c-0.469-0.156-0.94-0.306-1.409-0.458c-0.515-0.166-1.037-0.33-1.566-0.493
		c-0.472-0.144-0.948-0.285-1.435-0.427c-0.525-0.154-1.051-0.303-1.581-0.451c-0.476-0.132-0.952-0.261-1.45-0.393
		c-0.535-0.141-1.067-0.279-1.613-0.415c-0.477-0.118-0.956-0.237-1.442-0.352c-0.533-0.125-1.072-0.247-1.635-0.375
		c-0.481-0.106-0.961-0.212-1.431-0.311c-0.558-0.118-1.117-0.229-1.7-0.343l-0.29-0.057c-0.379-0.073-0.761-0.148-1.128-0.214
		c-0.565-0.105-1.134-0.201-1.718-0.299l-0.179-0.03c-0.417-0.07-0.832-0.141-1.257-0.208c-0.468-0.073-0.937-0.139-1.407-0.206
		l-0.803-0.114c-0.319-0.046-0.638-0.092-0.965-0.134c-0.524-0.067-1.049-0.129-1.573-0.189l-1.627-0.186
		c-0.578-0.059-1.157-0.11-1.739-0.161l-0.736-0.065c-0.251-0.024-0.502-0.047-0.75-0.066c-1.033-0.081-2.065-0.149-3.104-0.204
		c-0.088-0.006-0.183-0.011-0.28-0.014c-1.042-0.052-2.083-0.091-3.095-0.115c-0.25-0.007-0.499-0.01-0.748-0.013l-0.692-0.009
		c-0.603-0.01-1.199-0.006-1.85-0.018l-1.575,0.02c-0.536,0.006-1.071,0.013-1.624,0.027c-0.326,0.01-0.649,0.022-0.974,0.036
		l-0.869,0.034c-0.452,0.018-0.904,0.035-1.349,0.06c-0.432,0.022-0.863,0.052-1.295,0.081l-0.137,0.01
		c-0.582,0.036-1.167,0.075-1.755,0.122c-0.488,0.039-0.975,0.082-1.471,0.129c-0.567,0.052-1.133,0.106-1.675,0.163
		c-0.498,0.052-0.997,0.111-1.503,0.17c-0.548,0.066-1.097,0.133-1.625,0.201c-0.49,0.063-0.976,0.133-1.512,0.209
		c-0.544,0.079-1.092,0.161-1.638,0.246c-0.494,0.078-0.987,0.161-1.45,0.241c-0.55,0.093-1.093,0.19-1.639,0.29
		c-0.482,0.089-0.963,0.182-1.461,0.279c-0.533,0.106-1.063,0.215-1.665,0.342c-0.471,0.101-0.945,0.201-1.416,0.307
		c-0.521,0.118-1.041,0.241-1.553,0.363c-0.493,0.116-0.987,0.235-1.483,0.36c-0.52,0.132-1.037,0.267-1.543,0.402
		c-0.479,0.127-0.96,0.256-1.447,0.391c-0.448,0.124-0.893,0.254-1.339,0.385l-1.645,0.487c-0.435,0.134-0.866,0.272-1.296,0.411
		l-0.638,0.205c-0.333,0.106-0.665,0.212-0.99,0.32c-0.423,0.141-0.84,0.288-1.258,0.434l-0.588,0.205
		c-0.363,0.125-0.726,0.251-1.069,0.377c-0.434,0.156-0.866,0.321-1.294,0.484l-0.698,0.264c-0.296,0.111-0.592,0.222-0.892,0.34
		c-0.675,0.265-1.346,0.54-2.005,0.812c-0.635,0.261-1.263,0.53-1.901,0.806l-0.231,0.105c-0.483,0.208-0.967,0.418-1.433,0.627
		c-0.349,0.156-0.695,0.319-1.043,0.482l-0.486,0.227c-0.42,0.194-0.839,0.387-1.257,0.588c-0.364,0.175-0.727,0.356-1.088,0.536
		l-0.602,0.299c-0.34,0.168-0.68,0.335-1.049,0.523c-0.432,0.222-0.861,0.45-1.349,0.709l-0.292,0.155
		c-0.346,0.182-0.693,0.365-1.048,0.558c-0.398,0.216-0.793,0.437-1.187,0.659l-0.274,0.154c-0.398,0.222-0.796,0.443-1.185,0.668
		c-0.45,0.259-0.898,0.525-1.343,0.791c-0.431,0.254-0.863,0.511-1.26,0.753c-0.445,0.27-0.884,0.545-1.311,0.813
		c-0.428,0.269-0.857,0.538-1.267,0.803c-0.435,0.28-0.868,0.562-1.293,0.845c-0.41,0.271-0.816,0.543-1.25,0.836
		c-0.422,0.288-0.842,0.577-1.242,0.857c-0.415,0.288-0.826,0.58-1.247,0.881c-0.415,0.297-0.826,0.596-1.247,0.905
		c-0.402,0.296-0.803,0.595-1.188,0.886c-0.406,0.306-0.81,0.613-1.218,0.928c-0.395,0.305-0.788,0.617-1.188,0.934l-0.136,0.108
		c-0.355,0.283-0.708,0.562-1.037,0.831c-0.404,0.328-0.805,0.66-1.17,0.967l-0.166,0.138c-0.336,0.282-0.674,0.562-0.998,0.84
		c-0.391,0.335-0.779,0.675-1.152,1.005l-0.288,0.252c-0.277,0.242-0.554,0.484-0.844,0.745c-0.352,0.317-0.702,0.641-1.049,0.962
		l-0.335,0.309c-0.282,0.258-0.563,0.516-0.837,0.776c-0.34,0.321-0.676,0.648-1.011,0.976l-0.307,0.296
		c-0.244,0.234-0.487,0.467-0.727,0.703c-0.052,0.052-0.105,0.105-0.156,0.159c-8.539,8.473-15.766,18.122-21.483,28.685
		c-0.034,0.06-0.067,0.119-0.102,0.18c-0.09,0.168-0.178,0.336-0.265,0.507l-0.059,0.115c-0.35,0.659-0.701,1.322-1.037,1.984
		l-0.496,0.992c-0.305,0.617-0.607,1.235-0.899,1.848c-0.17,0.359-0.34,0.718-0.512,1.086c-0.277,0.6-0.551,1.202-0.829,1.828
		l-0.088,0.199c-0.138,0.313-0.276,0.626-0.387,0.887c-0.268,0.613-0.526,1.231-0.772,1.828c-0.159,0.381-0.316,0.763-0.467,1.138
		c-0.256,0.633-0.501,1.272-0.743,1.905l-0.085,0.221c-0.114,0.296-0.227,0.592-0.332,0.874c-0.257,0.691-0.502,1.387-0.738,2.06
		l-0.346,0.975c-0.342,1.003-0.673,2.009-0.99,3.022c-0.022,0.07-0.043,0.14-0.064,0.211c-0.297,0.957-0.581,1.916-0.863,2.907
		l-0.296,1.089c-0.183,0.668-0.364,1.334-0.533,2.001c-0.079,0.307-0.154,0.617-0.229,0.926l-0.096,0.401
		c-0.149,0.611-0.296,1.221-0.432,1.822c-0.081,0.357-0.159,0.716-0.237,1.074l-0.073,0.34c-0.125,0.584-0.246,1.168-0.372,1.78
		c-0.094,0.48-0.186,0.96-0.283,1.474c-0.108,0.583-0.213,1.167-0.31,1.737c-0.085,0.494-0.168,0.988-0.249,1.493
		c-0.094,0.59-0.182,1.183-0.265,1.77l-0.046,0.318c-0.056,0.386-0.111,0.775-0.166,1.185c-0.079,0.606-0.151,1.217-0.213,1.769
		l-0.029,0.239c-0.051,0.424-0.102,0.847-0.149,1.294c-0.051,0.506-0.097,1.013-0.142,1.521l-0.069,0.76
		c-0.031,0.335-0.062,0.672-0.088,1.003c-0.065,0.828-0.114,1.663-0.164,2.524l-0.015,0.217c-0.014,0.185-0.026,0.372-0.035,0.557
		c-3.433,67.495,48.684,125.201,116.18,128.635c2.131,0.109,4.254,0.162,6.372,0.162c30.382-0.001,59.295-11.097,82.007-31.611
		c24.295-21.942,38.591-52.034,40.254-84.734l0.032-0.803c0.035-0.825,0.067-1.651,0.092-2.534c0.006-0.355,0.01-0.709,0.013-1.064
		l0.006-0.533c0.007-0.566,0.016-1.132,0.014-1.668C510.417,121.792,510.41,121.388,510.403,120.984z M380.269,164.439
		c1.17,0.095,2.346,0.161,3.538,0.161h8.295c1.428,0,2.839-0.08,4.235-0.217v4.916l-8.298,8.613l-7.77-7.566L380.269,164.439
		L380.269,164.439z M438.221,118.636c0.092-1.283,0.154-2.575,0.154-3.883v-6.003c0.108-0.032,0.213-0.069,0.32-0.104
		c1.121,1.166,1.832,2.871,1.832,4.775C440.526,115.579,439.612,117.488,438.221,118.636z M385.952,44.206h3.857
		c21.095,0,38.259,19.104,38.259,42.586v1.901c-11.293-3.051-15.279-20.173-15.31-20.318c-0.658-3.177-3.162-5.647-6.349-6.26
		c-3.194-0.614-6.43,0.75-8.219,3.457c-14.987,22.653-48.101,22.958-48.627,22.959c-0.01,0-0.019,0-0.029,0
		c-0.595,0-1.172,0.07-1.73,0.192c-0.036-0.011-0.073-0.018-0.109-0.028v-1.901C347.694,63.31,364.857,44.206,385.952,44.206z
		 M335.286,113.419c0-1.896,0.707-3.595,1.819-4.76c0.141,0.047,0.286,0.089,0.432,0.129v5.965c0,1.337,0.063,2.658,0.16,3.968
		C336.246,117.583,335.286,115.633,335.286,113.419z M353.606,114.753V104.42c9.2-0.649,31.772-3.767,48.585-19.04
		c3.808,7.155,10.109,15.075,20.116,18.362v11.01c0,18.626-13.548,33.778-30.203,33.778h-8.295
		C367.154,148.53,353.606,133.378,353.606,114.753z M382.441,228.933c-22.472-1.144-42.977-9.217-59.562-22.034
		c0.013-0.032,0.032-0.059,0.045-0.091c4.555-11.361,14.676-15.088,15.037-15.217c0.123-0.041,0.246-0.086,0.368-0.134
		l28.948-11.336l15.337,14.938c1.501,1.462,3.513,2.279,5.605,2.279c0.043,0,0.086,0,0.127-0.001
		c2.138-0.034,4.175-0.919,5.658-2.46l14.473-15.022l28.875,11.578c0.141,0.058,0.216,0.087,0.362,0.135
		c0.449,0.161,10.581,3.904,15.128,15.308C433.436,221.859,408.804,230.268,382.441,228.933z"/>
	<path style="fill:#202121;" d="M244.367,67.388l-48.154-48.154c-3.139-3.137-8.225-3.137-11.363,0
		c-3.138,3.139-3.138,8.225,0,11.363l33.198,33.197H73.411c-4.438,0-8.034,3.596-8.034,8.034v158.187
		c0,4.438,3.596,8.034,8.034,8.034c4.438,0,8.034-3.596,8.034-8.034V79.864h139.084l-35.679,35.678
		c-3.138,3.139-3.138,8.225,0,11.363c1.569,1.568,3.625,2.352,5.682,2.352c2.056,0,4.113-0.784,5.682-2.352l48.154-48.153
		c1.506-1.507,2.352-3.55,2.352-5.682S245.873,68.897,244.367,67.388z"/>
	<path style="fill:#202121;" d="M438.599,270.304c-4.438,0-8.034,3.596-8.034,8.034V428.49H291.482l35.679-35.678
		c3.138-3.139,3.138-8.225,0-11.363c-3.138-3.136-8.224-3.138-11.363,0l-48.154,48.153c-1.506,1.507-2.352,3.55-2.352,5.682
		c0,2.132,0.846,4.174,2.352,5.682l48.154,48.154c1.569,1.568,3.626,2.352,5.682,2.352s4.113-0.784,5.682-2.352
		c3.138-3.139,3.138-8.225,0-11.363l-33.198-33.197H438.6c4.438,0,8.034-3.596,8.034-8.034V278.338
		C446.633,273.901,443.037,270.304,438.599,270.304z"/>
</g>
<path style="fill:#F7971D;" d="M238.687,388.689c-0.006-0.784-0.014-1.567-0.033-2.346c-0.013-0.434-0.033-0.867-0.05-1.301
	c-0.023-0.603-0.044-1.207-0.075-1.808c-0.025-0.465-0.059-0.927-0.089-1.389c-0.036-0.567-0.074-1.133-0.119-1.697
	c-0.039-0.472-0.082-0.945-0.124-1.416c-0.052-0.553-0.106-1.104-0.165-1.656c-0.05-0.469-0.105-0.94-0.161-1.408
	c-0.065-0.552-0.136-1.101-0.209-1.65c-0.062-0.461-0.125-0.92-0.193-1.379c-0.082-0.559-0.17-1.116-0.26-1.673
	c-0.072-0.442-0.144-0.886-0.221-1.327c-0.101-0.58-0.209-1.155-0.318-1.73c-0.079-0.416-0.155-0.83-0.239-1.244
	c-0.127-0.635-0.266-1.265-0.404-1.897c-0.077-0.347-0.149-0.697-0.228-1.046c-0.215-0.937-0.441-1.869-0.678-2.797
	c-0.011-0.039-0.019-0.078-0.029-0.117c-0.249-0.969-0.513-1.933-0.786-2.891c-0.086-0.301-0.179-0.599-0.268-0.899
	c-0.194-0.66-0.389-1.319-0.596-1.974c-0.11-0.349-0.226-0.695-0.339-1.043c-0.196-0.603-0.392-1.203-0.599-1.801
	c-0.124-0.363-0.253-0.723-0.381-1.085c-0.206-0.582-0.416-1.161-0.631-1.739c-0.134-0.358-0.271-0.716-0.407-1.071
	c-0.224-0.581-0.452-1.159-0.685-1.734c-0.138-0.343-0.279-0.687-0.421-1.027c-0.246-0.596-0.5-1.187-0.755-1.777
	c-0.138-0.313-0.273-0.627-0.412-0.938c-0.284-0.636-0.575-1.268-0.871-1.897c-0.09-0.194-0.176-0.391-0.268-0.585l-0.016-0.024
	c-4.897-10.303-11.285-19.761-18.89-28.091l-0.013-0.019c-0.261-0.287-0.531-0.567-0.797-0.851c-0.341-0.366-0.68-0.734-1.025-1.095
	c-0.318-0.332-0.643-0.658-0.964-0.987c-0.336-0.344-0.672-0.691-1.013-1.031c-0.334-0.331-0.672-0.657-1.009-0.984
	c-0.339-0.33-0.678-0.66-1.021-0.986c-0.343-0.326-0.691-0.647-1.039-0.967c-0.344-0.319-0.69-0.638-1.039-0.952
	c-0.354-0.32-0.711-0.634-1.069-0.95c-0.349-0.307-0.701-0.615-1.054-0.918c-0.363-0.312-0.728-0.619-1.095-0.927
	c-0.357-0.299-0.716-0.597-1.077-0.891c-0.372-0.303-0.745-0.603-1.119-0.902c-0.364-0.289-0.73-0.577-1.096-0.862
	c-0.379-0.294-0.761-0.587-1.143-0.876c-0.372-0.281-0.743-0.558-1.118-0.833c-0.386-0.286-0.773-0.569-1.163-0.848
	c-0.379-0.273-0.762-0.542-1.144-0.81c-0.391-0.274-0.784-0.548-1.181-0.818c-0.386-0.264-0.777-0.522-1.166-0.781
	c-0.4-0.266-0.798-0.531-1.201-0.791c-0.395-0.255-0.793-0.505-1.19-0.754c-0.404-0.254-0.809-0.51-1.217-0.76
	c-0.403-0.245-0.811-0.486-1.217-0.728c-0.409-0.244-0.817-0.488-1.229-0.727c-0.417-0.241-0.837-0.472-1.257-0.708
	c-0.408-0.229-0.816-0.462-1.227-0.687c-0.438-0.239-0.881-0.469-1.322-0.701c-0.4-0.211-0.797-0.426-1.2-0.633
	c-0.507-0.26-1.019-0.511-1.53-0.763c-0.574-0.284-1.149-0.564-1.729-0.838c-0.612-0.29-1.226-0.58-1.845-0.86
	c-0.387-0.175-0.779-0.34-1.168-0.511c-0.487-0.213-0.975-0.431-1.467-0.638c-0.41-0.174-0.825-0.337-1.238-0.507
	c-0.475-0.194-0.948-0.389-1.427-0.577c-0.424-0.166-0.853-0.325-1.28-0.486c-0.472-0.179-0.945-0.359-1.42-0.532
	c-0.433-0.157-0.869-0.306-1.304-0.46c-0.475-0.165-0.95-0.333-1.427-0.492c-0.441-0.148-0.885-0.289-1.328-0.432
	c-0.477-0.153-0.956-0.305-1.435-0.453c-0.446-0.137-0.896-0.269-1.344-0.4c-0.482-0.141-0.965-0.282-1.45-0.418
	c-0.45-0.125-0.902-0.245-1.354-0.366c-0.491-0.13-0.981-0.258-1.474-0.381c-0.452-0.112-0.905-0.223-1.359-0.332
	c-0.498-0.118-0.996-0.234-1.497-0.345c-0.453-0.102-0.909-0.201-1.364-0.297c-0.506-0.107-1.012-0.209-1.52-0.31
	c-0.456-0.089-0.913-0.178-1.37-0.261c-0.512-0.094-1.025-0.183-1.539-0.271c-0.457-0.077-0.915-0.155-1.373-0.227
	c-0.524-0.082-1.049-0.159-1.576-0.235c-0.453-0.065-0.906-0.131-1.361-0.191c-0.538-0.07-1.078-0.133-1.618-0.196
	c-0.448-0.053-0.895-0.107-1.343-0.154c-0.558-0.059-1.117-0.107-1.677-0.157c-0.435-0.039-0.87-0.081-1.306-0.116
	c-0.592-0.046-1.186-0.081-1.78-0.119c-0.408-0.025-0.814-0.056-1.222-0.077c-0.664-0.034-1.33-0.057-1.997-0.08
	c-0.344-0.012-0.686-0.03-1.031-0.039c-0.999-0.026-2.002-0.04-3.009-0.04c-0.012,0-0.022-0.001-0.034-0.001h-0.001h-0.004
	c-0.012,0-0.022,0.001-0.034,0.001c-1.007,0-2.01,0.014-3.009,0.04c-0.345,0.009-0.687,0.027-1.029,0.039
	c-0.667,0.025-1.334,0.046-1.998,0.08c-0.408,0.022-0.814,0.052-1.222,0.077c-0.595,0.037-1.188,0.073-1.78,0.119
	c-0.436,0.034-0.871,0.077-1.306,0.116c-0.559,0.051-1.119,0.1-1.677,0.157c-0.449,0.047-0.896,0.102-1.343,0.154
	c-0.539,0.063-1.08,0.125-1.618,0.196c-0.455,0.06-0.908,0.125-1.362,0.191c-0.526,0.075-1.051,0.152-1.576,0.235
	c-0.458,0.072-0.916,0.15-1.373,0.227c-0.513,0.088-1.027,0.177-1.539,0.271c-0.458,0.084-0.915,0.172-1.37,0.261
	c-0.508,0.101-1.014,0.202-1.519,0.31c-0.456,0.096-0.913,0.196-1.365,0.297c-0.501,0.111-0.999,0.227-1.498,0.345
	c-0.454,0.109-0.907,0.219-1.358,0.332c-0.493,0.123-0.983,0.252-1.474,0.381c-0.452,0.12-0.904,0.241-1.354,0.366
	c-0.485,0.136-0.968,0.276-1.45,0.418c-0.449,0.131-0.899,0.262-1.344,0.4c-0.48,0.148-0.959,0.3-1.435,0.453
	c-0.443,0.142-0.887,0.285-1.328,0.432c-0.477,0.159-0.952,0.327-1.427,0.492c-0.435,0.153-0.871,0.302-1.304,0.46
	c-0.476,0.174-0.948,0.354-1.42,0.532c-0.426,0.162-0.856,0.32-1.28,0.486c-0.479,0.189-0.952,0.384-1.427,0.577
	c-0.414,0.168-0.828,0.333-1.238,0.507c-0.492,0.207-0.979,0.424-1.467,0.638c-0.389,0.17-0.781,0.336-1.168,0.511
	c-0.619,0.281-1.232,0.57-1.845,0.86c-0.58,0.274-1.154,0.555-1.729,0.838c-0.511,0.252-1.023,0.502-1.53,0.763
	c-0.403,0.206-0.8,0.422-1.2,0.633c-0.441,0.232-0.884,0.463-1.322,0.701c-0.411,0.225-0.82,0.457-1.227,0.687
	c-0.42,0.236-0.839,0.468-1.257,0.708c-0.412,0.239-0.821,0.483-1.229,0.727c-0.406,0.242-0.814,0.482-1.217,0.728
	c-0.408,0.25-0.813,0.506-1.217,0.76c-0.397,0.25-0.795,0.499-1.19,0.754c-0.403,0.259-0.801,0.525-1.201,0.791
	c-0.389,0.258-0.779,0.516-1.166,0.781c-0.395,0.27-0.788,0.544-1.181,0.818c-0.382,0.268-0.766,0.537-1.144,0.81
	c-0.39,0.28-0.778,0.562-1.163,0.848c-0.375,0.276-0.747,0.554-1.118,0.833c-0.382,0.289-0.765,0.583-1.143,0.876
	c-0.367,0.285-0.733,0.572-1.096,0.862c-0.375,0.298-0.748,0.599-1.119,0.902c-0.361,0.295-0.72,0.592-1.077,0.891
	c-0.367,0.307-0.732,0.615-1.095,0.927c-0.354,0.303-0.705,0.611-1.054,0.918c-0.358,0.316-0.716,0.63-1.069,0.95
	c-0.349,0.314-0.694,0.633-1.038,0.952c-0.348,0.321-0.696,0.643-1.04,0.967c-0.343,0.326-0.682,0.656-1.021,0.986
	c-0.337,0.328-0.676,0.653-1.009,0.984c-0.341,0.34-0.677,0.687-1.013,1.031c-0.322,0.329-0.647,0.655-0.964,0.987
	c-0.345,0.362-0.685,0.73-1.025,1.095c-0.266,0.284-0.536,0.563-0.797,0.851l-0.013,0.019c-7.606,8.329-13.993,17.788-18.89,28.091
	l-0.016,0.024c-0.092,0.194-0.178,0.391-0.268,0.585c-0.295,0.63-0.587,1.262-0.871,1.897c-0.139,0.312-0.274,0.626-0.411,0.938
	c-0.256,0.59-0.51,1.183-0.756,1.777c-0.142,0.341-0.283,0.685-0.421,1.027c-0.232,0.575-0.461,1.154-0.685,1.734
	c-0.136,0.356-0.273,0.712-0.406,1.07c-0.216,0.58-0.426,1.161-0.634,1.745c-0.127,0.359-0.255,0.717-0.379,1.077
	c-0.206,0.6-0.404,1.202-0.6,1.806c-0.114,0.347-0.228,0.692-0.337,1.041c-0.207,0.655-0.402,1.314-0.597,1.974
	c-0.089,0.3-0.182,0.598-0.268,0.899c-0.274,0.959-0.538,1.922-0.786,2.891c-0.011,0.039-0.019,0.078-0.029,0.117
	c-0.237,0.928-0.463,1.86-0.678,2.797c-0.079,0.347-0.151,0.697-0.228,1.046c-0.138,0.632-0.276,1.262-0.404,1.897
	c-0.084,0.413-0.159,0.828-0.239,1.244c-0.109,0.575-0.217,1.151-0.318,1.73c-0.077,0.441-0.149,0.885-0.221,1.327
	c-0.09,0.557-0.178,1.113-0.26,1.673c-0.067,0.458-0.131,0.917-0.193,1.377c-0.074,0.552-0.145,1.102-0.21,1.656
	c-0.056,0.466-0.11,0.933-0.16,1.401c-0.06,0.553-0.112,1.107-0.164,1.661c-0.043,0.471-0.088,0.942-0.125,1.414
	c-0.045,0.563-0.082,1.13-0.118,1.697c-0.031,0.463-0.065,0.924-0.09,1.389c-0.031,0.6-0.052,1.205-0.075,1.808
	c-0.017,0.434-0.037,0.867-0.05,1.3c-0.019,0.78-0.027,1.563-0.032,2.346c-0.001,0.246-0.011,0.493-0.011,0.74
	c0,63.255,51.279,114.531,114.534,114.531h0.001h0.001c63.255,0,114.534-51.276,114.534-114.531
	C238.697,389.182,238.687,388.936,238.687,388.689z"/>
<path style="fill:#F37521;" d="M28.909,389.429c0-0.249,0.01-0.494,0.011-0.74c0.005-0.784,0.013-1.567,0.032-2.346
	c0.013-0.434,0.033-0.867,0.05-1.301c0.022-0.603,0.044-1.207,0.075-1.808c0.025-0.465,0.059-0.927,0.09-1.389
	c0.035-0.567,0.073-1.133,0.118-1.697c0.037-0.472,0.082-0.944,0.125-1.414c0.051-0.555,0.105-1.109,0.164-1.662
	c0.05-0.467,0.105-0.934,0.16-1.401c0.066-0.554,0.136-1.104,0.21-1.656c0.062-0.46,0.125-0.918,0.193-1.377
	c0.082-0.559,0.17-1.116,0.26-1.673c0.072-0.442,0.144-0.886,0.221-1.327c0.101-0.58,0.209-1.155,0.318-1.73
	c0.079-0.416,0.155-0.83,0.239-1.244c0.127-0.635,0.266-1.265,0.404-1.897c0.077-0.347,0.149-0.697,0.228-1.046
	c0.215-0.937,0.441-1.869,0.678-2.797c0.011-0.039,0.018-0.078,0.029-0.117c0.249-0.969,0.513-1.933,0.786-2.891
	c0.086-0.301,0.179-0.599,0.268-0.899c0.195-0.66,0.389-1.319,0.597-1.974c0.109-0.348,0.224-0.693,0.337-1.041
	c0.197-0.603,0.394-1.206,0.6-1.806c0.123-0.36,0.251-0.718,0.379-1.077c0.207-0.584,0.418-1.166,0.634-1.745
	c0.133-0.358,0.27-0.715,0.406-1.07c0.224-0.581,0.452-1.159,0.685-1.734c0.138-0.343,0.279-0.687,0.421-1.027
	c0.246-0.596,0.5-1.187,0.756-1.777c0.137-0.313,0.272-0.627,0.411-0.938c0.284-0.636,0.575-1.268,0.871-1.897
	c0.09-0.194,0.176-0.391,0.268-0.585l0.016-0.024c4.897-10.303,11.285-19.761,18.89-28.091l0.013-0.019
	c0.261-0.287,0.531-0.567,0.797-0.851c0.341-0.366,0.68-0.734,1.025-1.095c0.318-0.332,0.643-0.658,0.964-0.987
	c0.336-0.344,0.673-0.691,1.013-1.031c0.334-0.331,0.672-0.657,1.009-0.984c0.339-0.33,0.678-0.66,1.021-0.986
	c0.343-0.326,0.692-0.647,1.04-0.967c0.343-0.319,0.689-0.638,1.038-0.952c0.354-0.32,0.711-0.634,1.069-0.95
	c0.349-0.307,0.701-0.615,1.054-0.918c0.364-0.312,0.728-0.619,1.095-0.927c0.357-0.299,0.716-0.597,1.077-0.891
	c0.372-0.303,0.745-0.603,1.119-0.902c0.364-0.289,0.73-0.577,1.096-0.862c0.379-0.294,0.761-0.587,1.143-0.876
	c0.372-0.281,0.743-0.558,1.118-0.833c0.386-0.286,0.773-0.569,1.163-0.848c0.379-0.273,0.762-0.542,1.144-0.81
	c0.391-0.274,0.784-0.548,1.181-0.818c0.386-0.264,0.777-0.522,1.166-0.781c0.4-0.266,0.798-0.531,1.201-0.791
	c0.395-0.255,0.793-0.505,1.19-0.754c0.404-0.254,0.809-0.51,1.217-0.76c0.403-0.245,0.811-0.486,1.217-0.728
	c0.409-0.244,0.817-0.488,1.229-0.727c0.418-0.241,0.837-0.472,1.257-0.708c0.408-0.229,0.816-0.462,1.228-0.687
	c0.438-0.239,0.881-0.469,1.322-0.701c0.4-0.211,0.797-0.426,1.2-0.633c0.507-0.26,1.019-0.511,1.53-0.763
	c0.575-0.284,1.149-0.563,1.729-0.838c0.612-0.29,1.226-0.58,1.845-0.86c0.387-0.175,0.779-0.34,1.168-0.511
	c0.487-0.213,0.975-0.431,1.467-0.638c0.41-0.174,0.826-0.337,1.238-0.507c0.475-0.194,0.948-0.389,1.427-0.577
	c0.424-0.166,0.854-0.325,1.28-0.486c0.472-0.179,0.945-0.359,1.42-0.532c0.433-0.157,0.869-0.306,1.304-0.46
	c0.475-0.165,0.95-0.333,1.427-0.492c0.441-0.148,0.885-0.289,1.328-0.432c0.477-0.153,0.956-0.305,1.435-0.453
	c0.446-0.137,0.896-0.269,1.344-0.4c0.482-0.141,0.965-0.282,1.45-0.418c0.45-0.125,0.902-0.245,1.354-0.366
	c0.491-0.13,0.981-0.258,1.474-0.381c0.452-0.112,0.905-0.223,1.358-0.332c0.498-0.118,0.996-0.234,1.498-0.345
	c0.453-0.102,0.909-0.201,1.365-0.297c0.505-0.107,1.011-0.209,1.519-0.31c0.456-0.089,0.913-0.178,1.37-0.261
	c0.512-0.094,1.025-0.183,1.539-0.271c0.457-0.077,0.915-0.155,1.373-0.227c0.524-0.082,1.049-0.159,1.576-0.235
	c0.453-0.065,0.906-0.131,1.362-0.191c0.538-0.07,1.079-0.133,1.618-0.196c0.448-0.052,0.895-0.107,1.343-0.154
	c0.558-0.059,1.117-0.107,1.677-0.157c0.246-0.022,0.493-0.043,0.738-0.065c-0.189-0.017-0.378-0.035-0.567-0.05
	c-0.592-0.046-1.186-0.081-1.78-0.119c-0.408-0.025-0.814-0.056-1.222-0.077c-0.664-0.034-1.33-0.057-1.997-0.08
	c-0.344-0.012-0.686-0.03-1.031-0.039c-0.999-0.026-2.002-0.04-3.009-0.04c-0.012,0-0.022-0.001-0.034-0.001h-0.001h0
	c-0.012,0-0.022,0.001-0.034,0.001c-1.007,0-2.01,0.014-3.009,0.04c-0.345,0.009-0.687,0.027-1.029,0.039
	c-0.667,0.025-1.334,0.046-1.998,0.08c-0.408,0.022-0.814,0.053-1.222,0.077c-0.595,0.038-1.188,0.073-1.78,0.119
	c-0.436,0.034-0.871,0.077-1.306,0.116c-0.559,0.051-1.119,0.1-1.677,0.157c-0.449,0.047-0.896,0.102-1.343,0.154
	c-0.539,0.063-1.08,0.125-1.618,0.196c-0.455,0.06-0.908,0.125-1.362,0.191c-0.526,0.075-1.051,0.152-1.576,0.235
	c-0.458,0.072-0.916,0.15-1.373,0.227c-0.513,0.088-1.027,0.177-1.539,0.271c-0.458,0.084-0.915,0.172-1.37,0.261
	c-0.508,0.101-1.014,0.202-1.519,0.31c-0.456,0.096-0.913,0.196-1.365,0.297c-0.501,0.111-0.999,0.227-1.498,0.345
	c-0.454,0.109-0.907,0.219-1.358,0.332c-0.493,0.123-0.983,0.252-1.474,0.381c-0.452,0.12-0.904,0.241-1.354,0.366
	c-0.485,0.136-0.968,0.276-1.45,0.418c-0.449,0.131-0.899,0.262-1.344,0.4c-0.48,0.148-0.959,0.3-1.435,0.453
	c-0.443,0.142-0.887,0.285-1.328,0.432c-0.477,0.159-0.952,0.327-1.427,0.492c-0.435,0.153-0.871,0.302-1.304,0.46
	c-0.476,0.174-0.948,0.353-1.42,0.532c-0.426,0.162-0.856,0.32-1.28,0.486c-0.479,0.189-0.952,0.384-1.427,0.577
	c-0.414,0.168-0.828,0.333-1.238,0.507c-0.492,0.207-0.979,0.424-1.467,0.638c-0.389,0.17-0.781,0.336-1.168,0.511
	c-0.619,0.281-1.232,0.57-1.845,0.86c-0.58,0.274-1.154,0.555-1.729,0.838c-0.511,0.252-1.023,0.502-1.53,0.763
	c-0.403,0.206-0.8,0.422-1.2,0.633c-0.441,0.232-0.884,0.463-1.322,0.701c-0.411,0.225-0.82,0.457-1.227,0.687
	c-0.42,0.236-0.839,0.468-1.257,0.708c-0.412,0.239-0.821,0.483-1.229,0.727c-0.406,0.242-0.814,0.482-1.217,0.728
	c-0.408,0.25-0.813,0.506-1.217,0.76c-0.397,0.25-0.795,0.499-1.19,0.754c-0.403,0.259-0.801,0.525-1.201,0.791
	c-0.389,0.258-0.779,0.516-1.166,0.781c-0.395,0.27-0.788,0.544-1.181,0.818c-0.382,0.268-0.766,0.537-1.144,0.81
	c-0.39,0.28-0.778,0.562-1.163,0.848c-0.375,0.276-0.747,0.554-1.118,0.833c-0.382,0.289-0.765,0.583-1.143,0.876
	c-0.367,0.285-0.733,0.572-1.096,0.862c-0.375,0.298-0.748,0.599-1.119,0.902c-0.361,0.295-0.72,0.592-1.077,0.891
	c-0.367,0.307-0.732,0.615-1.095,0.927c-0.354,0.303-0.705,0.611-1.054,0.918c-0.358,0.316-0.716,0.63-1.069,0.95
	c-0.349,0.314-0.694,0.633-1.038,0.952c-0.348,0.321-0.696,0.643-1.04,0.967c-0.343,0.326-0.682,0.656-1.021,0.986
	c-0.337,0.328-0.676,0.653-1.009,0.984c-0.341,0.34-0.677,0.687-1.013,1.031c-0.322,0.329-0.647,0.655-0.964,0.987
	c-0.345,0.362-0.685,0.73-1.025,1.095c-0.266,0.284-0.536,0.563-0.797,0.851l-0.013,0.019c-7.606,8.329-13.993,17.788-18.89,28.091
	l-0.016,0.024c-0.092,0.194-0.178,0.391-0.268,0.585c-0.295,0.63-0.587,1.262-0.871,1.897c-0.139,0.312-0.274,0.626-0.411,0.938
	c-0.256,0.59-0.51,1.183-0.756,1.777c-0.142,0.341-0.283,0.685-0.421,1.027c-0.232,0.575-0.461,1.154-0.685,1.734
	c-0.136,0.356-0.273,0.712-0.406,1.07c-0.216,0.58-0.426,1.161-0.634,1.745c-0.127,0.359-0.255,0.717-0.379,1.077
	c-0.206,0.6-0.404,1.202-0.6,1.806c-0.114,0.347-0.228,0.692-0.337,1.041c-0.207,0.655-0.402,1.314-0.597,1.974
	c-0.089,0.3-0.182,0.598-0.268,0.899c-0.274,0.959-0.538,1.922-0.786,2.891c-0.011,0.039-0.019,0.078-0.029,0.117
	c-0.237,0.928-0.463,1.86-0.678,2.797c-0.079,0.347-0.151,0.697-0.228,1.046c-0.138,0.632-0.276,1.262-0.404,1.897
	c-0.084,0.414-0.159,0.828-0.239,1.244c-0.109,0.575-0.217,1.151-0.318,1.73c-0.077,0.441-0.149,0.885-0.221,1.327
	c-0.09,0.557-0.178,1.113-0.26,1.673c-0.067,0.458-0.131,0.917-0.193,1.377c-0.074,0.552-0.145,1.102-0.21,1.656
	c-0.056,0.466-0.11,0.933-0.16,1.401c-0.06,0.553-0.112,1.107-0.164,1.662c-0.043,0.471-0.088,0.942-0.125,1.414
	c-0.045,0.563-0.082,1.13-0.118,1.697c-0.031,0.463-0.065,0.924-0.09,1.389c-0.031,0.6-0.052,1.205-0.075,1.808
	c-0.017,0.434-0.037,0.867-0.05,1.301c-0.019,0.78-0.027,1.563-0.032,2.346c-0.001,0.246-0.011,0.493-0.011,0.74
	c0,63.255,51.279,114.531,114.534,114.531h0.001h0.001c3.247,0,6.461-0.142,9.64-0.407C75.06,498.656,28.909,449.438,28.909,389.429
	z"/>
<path style="fill:#694B4B;" d="M126.683,306.654h-4.32c-25.252,0-45.797,20.544-45.797,45.797v14.082l4.002-1.354
	c0.641-0.217,1.292-0.328,1.97-0.328c0.382,0,38.488-0.276,55.729-24.115c1.375-1.9,3.813-2.854,6.125-2.384
	c2.327,0.477,4.17,2.281,4.705,4.644c0.186,0.765,4.714,18.76,18.983,22.005c0.159,0.035,0.314,0.087,0.467,0.134l3.934,1.231
	V352.45C172.479,327.198,151.935,306.654,126.683,306.654z"/>
<g>
	<path style="fill:#FBCB99;" d="M129.14,428.602h-9.069c-1.071,0-2.205-0.048-3.568-0.15l-2.783-0.209v10.162l10.688,10.409
		l11.09-11.508v-9.066l-2.785,0.211C131.352,428.554,130.217,428.602,129.14,428.602z"/>
	<path style="fill:#FBCB99;" d="M181.44,368.94h-15.669v-5.662l-3.454,1.224c-0.917,0.324-1.903,0.379-2.866,0.163
		c-7.981-1.816-14.468-6.911-19.283-15.142l-1.542-2.641l-2.351,1.957c-18.927,15.774-46.312,15.956-47.469,15.956l-0.224-0.002
		c-0.566-0.003-1.137-0.104-1.694-0.3l-3.451-1.215v5.66H67.186v18.758h16.768c2.91,17.309,17.991,30.545,36.115,30.545h9.069
		c18.123,0,33.207-13.235,36.116-30.545h16.184V368.94H181.44z"/>
</g>
<path style="fill:#6598CB;" d="M191.477,471.889c-5.159-11.982-16.038-15.988-16.551-16.172c-0.076-0.025-0.118-0.042-0.206-0.078
	l-30.659-12.295l-15.807,16.408c-0.949,0.986-2.279,1.564-3.729,1.585c-1.358,0-2.643-0.522-3.615-1.47l-16.653-16.223
	l-30.673,12.012c-0.069,0.027-0.138,0.054-0.281,0.101c-0.457,0.164-11.257,4.174-16.411,16.142l-0.776,1.798l1.519,1.236
	c18.756,15.262,42.387,23.669,66.541,23.669c24.162,0,47.797-8.41,66.557-23.682l1.518-1.235L191.477,471.889z"/>
<path style="fill:#563B3B;" d="M91.109,352.451c0-23.523,17.831-42.954,40.685-45.506c-1.678-0.186-3.383-0.291-5.111-0.291h-4.32
	c-25.252,0-45.797,20.544-45.797,45.797v14.082l4.002-1.354c0.641-0.217,1.292-0.328,1.97-0.328c0.111,0,3.468-0.028,8.571-0.659
	C91.109,364.192,91.109,352.451,91.109,352.451z"/>
<g>
	<path style="fill:#EDBA89;" d="M132.501,428.602h2.994v-0.362l-2.785,0.211c-0.679,0.051-1.302,0.089-1.888,0.114
		C131.412,428.589,131.965,428.602,132.501,428.602z"/>
	<path style="fill:#EDBA89;" d="M126.151,438.405v-9.803h-6.082c-1.071,0-2.205-0.048-3.568-0.15l-2.783-0.209v10.162l10.688,10.409
		l6.017-6.246L126.151,438.405z"/>
	<path style="fill:#EDBA89;" d="M99.382,368.622c0.589,0.208,1.188,0.313,1.785,0.316l0.235,0.002
		c1.093,0,24.384-0.163,43.548-12.171c-0.902-1.219-1.764-2.514-2.576-3.903l-1.624-2.78l-2.475,2.061
		c-12.971,10.81-29.708,14.66-40.148,16.03L99.382,368.622z"/>
	<path style="fill:#EDBA89;" d="M95.871,381.609v-13.123c-4.056,0.435-6.721,0.454-7.064,0.454l-0.224-0.002
		c-0.566-0.003-1.137-0.103-1.694-0.3l-3.451-1.215v14.186c0,20.198,16.432,36.633,36.63,36.633h9.069
		c0.565,0,1.124-0.018,1.682-0.043C111.4,417.317,95.871,401.245,95.871,381.609z"/>
</g>
<path style="fill:#4982AA;" d="M70.068,474.936l-1.519-1.236l0.775-1.798c5.156-11.969,15.954-15.978,16.412-16.142
	c0.141-0.047,0.211-0.073,0.281-0.101l21.805-8.539l-3.565-3.473L73.582,455.66c-0.069,0.027-0.138,0.054-0.281,0.101
	c-0.457,0.164-11.257,4.174-16.411,16.142l-0.776,1.798l1.519,1.236c18.755,15.262,42.387,23.669,66.541,23.669
	c2.077,0,4.149-0.085,6.216-0.208C108.428,497.085,87.21,488.884,70.068,474.936z"/>
<path style="fill:#202121;" d="M139.186,267.783c-67.086-8.28-128.381,39.54-136.675,106.65l-0.084,0.761
	c-0.095,0.821-0.187,1.641-0.275,2.521c-0.032,0.356-0.062,0.709-0.09,1.064l-0.046,0.553c-0.048,0.555-0.095,1.109-0.132,1.641
	c-0.031,0.434-0.056,0.869-0.078,1.303l-0.01,0.178c-0.036,0.612-0.071,1.221-0.099,1.85l-0.061,1.75
	c-0.014,0.516-0.027,1.034-0.034,1.547c-0.009,0.501-0.012,1.005-0.014,1.482c-0.004,0.601,0,1.2,0.005,1.814
	c0.006,0.495,0.013,0.99,0.025,1.507c0.015,0.598,0.033,1.189,0.056,1.786c0.018,0.472,0.036,0.948,0.06,1.444
	c0.031,0.628,0.072,1.251,0.111,1.873l0.02,0.32c0.022,0.349,0.044,0.697,0.069,1.024c0.051,0.686,0.115,1.364,0.181,2.07
	l0.105,1.153c0.105,1.02,0.223,2.035,0.352,3.048c0.005,0.044,0.011,0.09,0.017,0.135c0.136,1.065,0.29,2.123,0.458,3.197
	l0.164,0.976c0.121,0.734,0.243,1.465,0.374,2.168c0.058,0.314,0.118,0.627,0.18,0.938l0.044,0.219
	c0.13,0.674,0.261,1.344,0.396,1.981c0.088,0.421,0.181,0.838,0.265,1.206c0.144,0.655,0.291,1.307,0.439,1.922l0.292,1.2
	c0.16,0.647,0.328,1.292,0.499,1.94c0.107,0.398,0.215,0.798,0.309,1.127c0.183,0.668,0.375,1.332,0.585,2.045l0.305,1.023
	c0.215,0.704,0.44,1.404,0.683,2.156l0.196,0.612c0.028,0.088,0.06,0.177,0.093,0.266c1.53,4.58,3.354,9.12,5.424,13.498
	c1.896,4.012,6.685,5.725,10.696,3.83c4.012-1.896,5.727-6.685,3.83-10.696c-1.826-3.865-3.433-7.875-4.775-11.918
	c-0.02-0.06-0.041-0.12-0.063-0.181l-0.124-0.391c-0.201-0.625-0.402-1.249-0.586-1.851l-0.275-0.918
	c-0.167-0.571-0.334-1.142-0.511-1.786c-0.089-0.314-0.175-0.63-0.257-0.941c-0.148-0.558-0.294-1.117-0.424-1.648l-0.266-1.093
	c-0.133-0.548-0.256-1.097-0.389-1.7c-0.075-0.329-0.148-0.658-0.224-1.02c-0.121-0.569-0.232-1.139-0.346-1.731l-0.195-1.002
	c-0.115-0.62-0.217-1.244-0.327-1.904l-0.139-0.822c-0.141-0.908-0.275-1.818-0.392-2.734c-0.005-0.043-0.012-0.088-0.017-0.133
	c-0.112-0.883-0.216-1.77-0.305-2.642l-0.096-1.06c-0.055-0.577-0.109-1.153-0.154-1.754c-0.021-0.271-0.037-0.542-0.055-0.813
	l-0.022-0.35c-0.035-0.545-0.07-1.092-0.096-1.615c-0.02-0.422-0.036-0.846-0.052-1.267c-0.02-0.533-0.036-1.065-0.05-1.577
	c-0.01-0.432-0.016-0.867-0.02-1.286c-0.005-0.508-0.01-1.017-0.005-1.55c0.002-0.444,0.005-0.886,0.012-1.332
	c0.007-0.455,0.019-0.911,0.031-1.364l0.05-1.486c0.024-0.521,0.052-1.044,0.088-1.621l0.013-0.243
	c0.018-0.334,0.035-0.668,0.061-1.023c0.033-0.468,0.073-0.937,0.114-1.407l0.121-1.455c0.073-0.735,0.156-1.472,0.239-2.177
	l0.077-0.705c7.202-58.278,60.473-99.833,118.753-92.634c58.277,7.203,99.831,60.475,92.627,118.788l-0.088,0.634
	c-0.096,0.728-0.192,1.455-0.303,2.195c-0.037,0.255-0.08,0.509-0.122,0.763l-0.124,0.754c-0.072,0.446-0.145,0.891-0.221,1.324
	c-0.059,0.331-0.123,0.66-0.187,0.989l-0.059,0.306c-0.097,0.516-0.196,1.034-0.295,1.517l-0.282,1.304
	c-0.11,0.507-0.222,1.011-0.342,1.524c-0.099,0.422-0.201,0.842-0.309,1.277c-0.125,0.509-0.255,1.016-0.378,1.488
	c-0.11,0.418-0.221,0.832-0.335,1.252c-0.14,0.508-0.285,1.01-0.427,1.501l-0.088,0.299c-0.088,0.302-0.177,0.605-0.275,0.929
	c-0.144,0.472-0.292,0.942-0.442,1.409l-0.406,1.26c-0.19,0.57-0.388,1.132-0.583,1.684l-0.33,0.942
	c-0.309,0.846-0.625,1.685-0.93,2.467l-0.032,0.085c-0.011,0.024-0.02,0.048-0.029,0.073c-0.34,0.867-0.692,1.724-1.04,2.544
	l-0.364,0.828c-0.252,0.582-0.505,1.161-0.779,1.762c-0.135,0.297-0.274,0.591-0.425,0.913c-0.249,0.532-0.498,1.064-0.754,1.589
	c-0.154,0.312-0.309,0.622-0.481,0.965c-0.253,0.508-0.511,1.014-0.805,1.578c-0.12,0.235-0.245,0.468-0.368,0.7l-0.104,0.196
	c-0.272,0.51-0.548,1.016-0.828,1.52c-0.164,0.297-0.331,0.592-0.513,0.913c-0.294,0.52-0.596,1.036-0.885,1.528l-0.502,0.845
	c-0.33,0.55-0.67,1.094-1.022,1.655l-0.228,0.372c-0.03,0.046-0.061,0.093-0.091,0.139c-3.647,5.733-7.833,11.085-12.491,16.009
	c-7.551-13.41-19.906-18.432-22.067-19.224l-30.8-12.35v-4.585c9.497-5.018,17.168-13.439,21.647-23.779
	c0.367,0.051,0.74,0.088,1.123,0.088c11.811,0,21.42-10.059,21.42-22.422c0-9.012-5.117-16.779-12.46-20.339v-6.289
	c0-32.341-24.371-58.654-54.328-58.654h-3.857c-29.957,0-54.328,26.313-54.328,58.654v6.315
	c-7.315,3.572-12.407,11.322-12.407,20.312c0,12.363,9.609,22.422,21.42,22.422c0.414,0,0.817-0.041,1.215-0.102
	c4.586,10.598,12.527,19.179,22.348,24.149v4.181l-31.628,12.386c-2.055,0.75-14.519,5.764-22.111,19.266
	c-0.139-0.148-0.28-0.293-0.42-0.445c-0.302-0.324-0.601-0.645-0.899-0.973c-0.294-0.324-0.585-0.649-0.857-0.956l-0.906-1.031
	c-0.282-0.322-0.558-0.649-0.844-0.99c-0.287-0.337-0.572-0.677-0.83-0.989l-0.845-1.048c-2.781-3.457-7.837-4.005-11.296-1.224
	c-3.458,2.782-4.005,7.838-1.224,11.296l0.19,0.237c0.249,0.309,0.497,0.617,0.772,0.954c0.32,0.386,0.646,0.771,0.96,1.142
	c0.331,0.392,0.661,0.782,0.986,1.156c0.254,0.292,0.512,0.584,0.769,0.874l0.244,0.275c0.33,0.372,0.66,0.741,0.992,1.107
	c0.346,0.38,0.696,0.758,1.044,1.13c0.34,0.365,0.683,0.731,1.033,1.095c0.354,0.37,0.711,0.737,1.143,1.177
	c0.334,0.34,0.666,0.679,0.978,0.986c0.364,0.362,0.73,0.723,1.099,1.082c0.354,0.342,0.709,0.681,1.059,1.014
	c0.38,0.362,0.764,0.723,1.138,1.066c0.365,0.337,0.735,0.673,1.124,1.024l0.139,0.124c0.328,0.294,0.655,0.588,0.977,0.871
	c0.327,0.289,0.657,0.572,0.988,0.856l0.156,0.135c0.393,0.337,0.786,0.676,1.172,0.997c0.326,0.273,0.653,0.541,0.981,0.808
	l0.222,0.181c0.385,0.315,0.772,0.631,1.156,0.936c0.402,0.319,0.809,0.634,1.189,0.927l0.198,0.155
	c0.341,0.265,0.68,0.529,1.022,0.786c0.304,0.23,0.612,0.456,0.918,0.681l0.533,0.392c0.335,0.246,0.67,0.494,0.998,0.73
	c0.37,0.266,0.742,0.524,1.116,0.783l0.48,0.335c0.301,0.212,0.603,0.424,0.905,0.63c0.435,0.297,0.876,0.587,1.317,0.875
	l0.22,0.145c0.577,0.379,1.155,0.754,1.712,1.106c0.614,0.391,1.23,0.781,1.855,1.162c0.289,0.176,0.581,0.347,0.872,0.518
	l0.633,0.375c0.385,0.23,0.771,0.461,1.136,0.667c0.289,0.167,0.581,0.33,0.871,0.492l0.571,0.319
	c0.419,0.236,0.836,0.469,1.252,0.694c0.303,0.165,0.608,0.326,0.916,0.486l0.377,0.198c0.477,0.252,0.956,0.505,1.459,0.762
	c0.346,0.176,0.692,0.347,1.041,0.518l0.616,0.304c0.369,0.182,0.737,0.364,1.132,0.553c0.443,0.21,0.888,0.417,1.33,0.621
	c0.485,0.225,0.974,0.45,1.465,0.67c0.457,0.204,0.919,0.405,1.392,0.608c0.483,0.207,0.966,0.416,1.488,0.634
	c0.46,0.19,0.918,0.377,1.364,0.556c0.506,0.204,1.013,0.405,1.54,0.608c0.463,0.178,0.924,0.353,1.384,0.524
	c0.513,0.192,1.027,0.379,1.565,0.571l1.413,0.496c0.522,0.178,1.042,0.352,1.565,0.524c0.469,0.154,0.941,0.306,1.422,0.458
	c0.52,0.163,1.046,0.324,1.6,0.491c0.469,0.14,0.941,0.281,1.414,0.417c0.547,0.156,1.097,0.307,1.656,0.46l0.285,0.077
	c0.376,0.102,0.752,0.204,1.122,0.299c0.546,0.141,1.096,0.276,1.693,0.422l0.2,0.049c0.397,0.096,0.794,0.194,1.208,0.29
	c0.47,0.11,0.944,0.211,1.416,0.314l0.717,0.155c0.33,0.072,0.66,0.145,1.007,0.215c0.538,0.109,1.079,0.21,1.618,0.312l1.546,0.29
	c0.567,0.1,1.136,0.192,1.705,0.284l0.772,0.124c0.235,0.04,0.469,0.078,0.717,0.115c1.012,0.151,2.028,0.291,3.051,0.419
	c0.005,0.001,0.012,0.002,0.017,0.003c0.111,0.016,0.222,0.029,0.334,0.041c1.019,0.124,2.038,0.236,3.023,0.331
	c0.249,0.025,0.497,0.046,0.743,0.066l0.686,0.06c0.61,0.052,1.218,0.106,1.837,0.149c0.287,0.021,0.574,0.036,0.862,0.054
	l0.732,0.043c0.533,0.032,1.067,0.065,1.622,0.09c0.326,0.014,0.651,0.024,0.977,0.033l0.833,0.027
	c0.465,0.016,0.929,0.03,1.379,0.039c0.431,0.008,0.865,0.01,1.296,0.012l0.127,0.001c0.394,0.003,0.79,0.006,1.184,0.006
	c0.193,0,0.386-0.001,0.578-0.002c0.424-0.003,0.851-0.011,1.275-0.019l0.201-0.003c0.569-0.012,1.137-0.024,1.688-0.043
	c0.443-0.014,0.889-0.033,1.334-0.055l0.175-0.007c0.558-0.026,1.115-0.054,1.621-0.084c0.453-0.024,0.904-0.056,1.355-0.088
	l0.178-0.012c0.553-0.04,1.108-0.082,1.658-0.13c0.496-0.043,0.992-0.088,1.471-0.135c0.554-0.054,1.098-0.11,1.668-0.174
	l1.456-0.169c0.546-0.067,1.085-0.14,1.635-0.215c0.499-0.069,0.999-0.138,1.478-0.21c0.539-0.08,1.077-0.167,1.579-0.25
	c0.507-0.081,1.011-0.164,1.51-0.253c0.533-0.094,1.064-0.194,1.555-0.288c0.496-0.093,0.991-0.189,1.479-0.287
	c0.507-0.102,1.009-0.21,1.608-0.34l0.382-0.084c0.348-0.075,0.696-0.151,1.054-0.232c0.412-0.095,0.823-0.195,1.232-0.295
	l0.787-0.192c0.325-0.078,0.649-0.156,0.967-0.239c0.42-0.107,0.835-0.22,1.249-0.333l0.559-0.151
	c0.397-0.106,0.794-0.211,1.177-0.321c0.426-0.12,0.853-0.247,1.277-0.376l0.718-0.213c0.316-0.093,0.632-0.186,0.954-0.286
	c0.691-0.215,1.378-0.441,2.066-0.668c0.65-0.214,1.295-0.436,1.943-0.662l0.231-0.08c0.503-0.175,1.005-0.35,1.489-0.527
	c0.348-0.127,0.695-0.26,1.042-0.393l0.483-0.184c0.452-0.169,0.903-0.339,1.338-0.512c0.356-0.14,0.71-0.286,1.064-0.432
	l0.697-0.286c0.347-0.141,0.692-0.283,1.076-0.444c0.379-0.162,0.758-0.329,1.138-0.495l1.658-0.734
	c0.393-0.18,0.784-0.363,1.175-0.546l0.451-0.211c0.371-0.174,0.741-0.347,1.112-0.527c0.466-0.225,0.929-0.457,1.434-0.71
	c0.434-0.215,0.869-0.432,1.281-0.646c0.457-0.236,0.912-0.476,1.366-0.718c0.439-0.234,0.877-0.468,1.321-0.709
	c0.448-0.245,0.893-0.494,1.35-0.75c0.424-0.24,0.847-0.479,1.299-0.739c0.438-0.254,0.877-0.513,1.311-0.771
	c0.427-0.253,0.852-0.511,1.301-0.784c0.432-0.266,0.862-0.531,1.295-0.805c0.425-0.269,0.852-0.54,1.247-0.797
	c0.431-0.279,0.858-0.557,1.296-0.847c0.411-0.272,0.821-0.552,1.257-0.847l0.243-0.166c0.337-0.231,0.674-0.463,0.986-0.681
	c0.425-0.297,0.851-0.602,1.232-0.878l0.162-0.116c0.364-0.261,0.73-0.523,1.068-0.775c0.419-0.309,0.833-0.622,1.23-0.924
	l0.345-0.26c0.276-0.21,0.554-0.42,0.848-0.647c0.354-0.275,0.704-0.556,1.054-0.836l0.409-0.326
	c0.306-0.242,0.612-0.484,0.898-0.719c0.326-0.266,0.647-0.537,0.968-0.807l0.483-0.404c0.245-0.202,0.492-0.407,0.735-0.614
	c0.057-0.049,0.114-0.1,0.171-0.151c9.117-7.83,17.013-16.923,23.472-27.034c0.046-0.068,0.09-0.134,0.134-0.202
	c0.097-0.153,0.193-0.307,0.286-0.462l0.082-0.134c0.397-0.634,0.796-1.273,1.16-1.88l0.578-0.975c0.35-0.596,0.7-1.192,1.025-1.769
	c0.199-0.347,0.394-0.696,0.589-1.049c0.324-0.582,0.642-1.166,0.962-1.766l0.104-0.194c0.163-0.307,0.327-0.615,0.454-0.865
	c0.31-0.593,0.613-1.19,0.897-1.758c0.186-0.37,0.371-0.738,0.553-1.112c0.299-0.612,0.59-1.229,0.868-1.822
	c0.171-0.365,0.342-0.728,0.498-1.07c0.31-0.675,0.605-1.355,0.89-2.011l0.415-0.947c0.41-0.965,0.808-1.937,1.193-2.917
	c0.025-0.063,0.049-0.122,0.067-0.175c0.373-0.949,0.731-1.903,1.101-2.92l0.363-1.036c0.232-0.656,0.461-1.308,0.679-1.963
	c0.101-0.301,0.198-0.603,0.294-0.907l0.178-0.556c0.175-0.545,0.348-1.092,0.509-1.62c0.11-0.362,0.216-0.726,0.324-1.092
	l0.087-0.295c0.169-0.58,0.335-1.16,0.496-1.741c0.132-0.478,0.259-0.957,0.394-1.47c0.148-0.57,0.294-1.14,0.431-1.698
	c0.121-0.493,0.243-0.987,0.355-1.47c0.136-0.578,0.265-1.161,0.394-1.754l0.066-0.302c0.085-0.386,0.169-0.773,0.255-1.19
	c0.121-0.595,0.237-1.193,0.341-1.75l0.048-0.251c0.079-0.41,0.159-0.82,0.235-1.243c0.091-0.514,0.176-1.033,0.259-1.55
	l0.114-0.692c0.058-0.347,0.115-0.694,0.164-1.026c0.123-0.818,0.234-1.645,0.346-2.5l0.028-0.201
	c0.028-0.201,0.057-0.401,0.076-0.568C254.083,337.383,206.259,276.073,139.186,267.783z M174.678,381.609v-6.003
	c0.108-0.032,0.214-0.069,0.32-0.104c1.121,1.166,1.832,2.871,1.832,4.775c0,2.161-0.915,4.069-2.306,5.217
	C174.617,384.209,174.678,382.917,174.678,381.609z M71.59,380.274c0-1.896,0.706-3.595,1.819-4.76
	c0.142,0.047,0.286,0.089,0.432,0.129v5.965c0,1.337,0.063,2.658,0.16,3.968C72.55,384.439,71.59,382.489,71.59,380.274z
	 M85.865,355.385c-0.01,0-0.019,0-0.029,0c-0.595,0-1.172,0.07-1.73,0.192c-0.036-0.011-0.073-0.018-0.109-0.028v-1.901
	c0-23.482,17.163-42.586,38.259-42.586h3.857c21.095,0,38.259,19.104,38.259,42.586v1.901c-11.293-3.051-15.279-20.173-15.31-20.318
	c-0.658-3.177-3.162-5.647-6.349-6.26c-3.193-0.616-6.429,0.75-8.219,3.457C119.505,355.08,86.39,355.384,85.865,355.385z
	 M89.908,381.609v-10.334c9.2-0.651,31.78-3.77,48.585-19.037c3.808,7.156,10.109,15.075,20.116,18.362v11.01
	c0,18.626-13.548,33.778-30.203,33.778h-8.295C103.458,415.387,89.908,400.234,89.908,381.609z M132.641,431.238v4.916l-8.298,8.613
	l-7.77-7.566v-5.905c1.169,0.095,2.346,0.161,3.538,0.161h8.295C129.834,431.456,131.245,431.375,132.641,431.238z M187.341,475.151
	c-0.29,0.215-0.587,0.426-0.882,0.639l-0.207,0.149c-0.336,0.245-0.678,0.488-1.046,0.745c-0.282,0.198-0.563,0.391-0.846,0.585
	l-0.227,0.156c-0.363,0.246-0.726,0.493-1.078,0.727c-0.373,0.246-0.745,0.49-1.147,0.749c-0.357,0.232-0.718,0.464-1.077,0.689
	c-0.382,0.242-0.767,0.478-1.127,0.7c-0.371,0.226-0.739,0.45-1.115,0.674c-0.389,0.231-0.779,0.461-1.139,0.671
	c-0.385,0.221-0.77,0.439-1.146,0.651c-0.391,0.221-0.782,0.438-1.169,0.649c-0.383,0.209-0.77,0.416-1.154,0.619
	c-0.391,0.208-0.784,0.416-1.198,0.629c-0.352,0.182-0.71,0.36-1.067,0.538c-0.01,0.004-0.089,0.044-0.099,0.048
	c-0.393,0.199-0.787,0.395-1.182,0.586c-0.307,0.149-0.616,0.292-0.924,0.438l-0.457,0.213c-0.342,0.161-0.686,0.322-0.99,0.462
	l-1.505,0.664c-0.316,0.139-0.632,0.28-0.915,0.4l-1.628,0.668c-0.281,0.115-0.56,0.231-0.857,0.347
	c-0.358,0.142-0.718,0.277-1.078,0.412l-0.601,0.228c-0.259,0.101-0.518,0.2-0.798,0.302c-0.415,0.152-0.829,0.296-1.245,0.44
	l-0.24,0.082c-0.565,0.197-1.126,0.391-1.69,0.577c-0.603,0.199-1.204,0.397-1.803,0.584c-0.238,0.073-0.477,0.144-0.718,0.214
	l-0.805,0.239c-0.346,0.105-0.694,0.209-1.055,0.312c-0.302,0.086-0.606,0.166-0.911,0.246l-0.653,0.177
	c-0.332,0.09-0.663,0.181-1.004,0.268c-0.25,0.064-0.502,0.124-0.753,0.185l-0.829,0.201c-0.344,0.084-0.689,0.168-1.024,0.245
	l-1.336,0.291c-0.426,0.093-0.854,0.186-1.285,0.273c-0.42,0.085-0.841,0.165-1.297,0.251c-0.454,0.087-0.91,0.171-1.371,0.253
	c-0.416,0.074-0.832,0.142-1.284,0.214c-0.454,0.075-0.911,0.15-1.386,0.221c-0.426,0.065-0.854,0.123-1.275,0.181
	c-0.465,0.064-0.926,0.126-1.377,0.182l-1.316,0.154c-0.47,0.051-0.938,0.102-1.426,0.148c-0.43,0.042-0.863,0.082-1.297,0.119
	c-0.473,0.041-0.954,0.077-1.417,0.111l-0.17,0.012c-0.365,0.026-0.728,0.051-1.147,0.074c-0.482,0.029-0.964,0.052-1.438,0.074
	l-0.17,0.007c-0.371,0.017-0.741,0.034-1.128,0.046c-0.494,0.017-0.988,0.027-1.471,0.036l-0.195,0.004
	c-0.362,0.006-0.724,0.014-1.094,0.016c-0.498,0.003-0.995,0.001-1.531-0.004l-0.172-0.001c-0.356-0.001-0.712-0.002-1.082-0.01
	c-0.375-0.006-0.75-0.019-1.125-0.031l-1.635-0.055c-0.455-0.021-0.912-0.048-1.366-0.076l-1.438-0.086
	c-0.523-0.036-1.047-0.082-1.57-0.129l-1.243-0.107c-0.922-0.09-1.852-0.192-2.78-0.306c-0.023-0.003-0.045-0.005-0.067-0.009
	c-0.001,0-0.003,0-0.004,0c-0.933-0.115-1.859-0.244-2.772-0.379l-1.312-0.212c-0.495-0.079-0.988-0.157-1.453-0.241l-1.383-0.26
	c-0.465-0.087-0.93-0.175-1.379-0.266l-1.547-0.333c-0.394-0.086-0.787-0.17-1.167-0.257c-0.344-0.08-0.688-0.164-1.029-0.247
	l-0.252-0.062c-0.473-0.116-0.949-0.231-1.429-0.356c-0.316-0.081-0.63-0.167-0.943-0.252l-0.29-0.078
	c-0.476-0.129-0.951-0.258-1.418-0.393c-0.42-0.12-0.84-0.245-1.23-0.362c-0.471-0.144-0.947-0.287-1.408-0.431
	c-0.417-0.131-0.828-0.267-1.242-0.402c-0.463-0.151-0.919-0.304-1.337-0.447l-1.242-0.436c-0.448-0.16-0.893-0.322-1.345-0.491
	c-0.411-0.154-0.822-0.309-1.213-0.46c-0.436-0.168-0.873-0.342-1.322-0.523c-0.408-0.164-0.815-0.329-1.183-0.481
	c-0.442-0.186-0.884-0.376-1.314-0.56c-0.397-0.171-0.795-0.343-1.187-0.518c-0.426-0.192-0.852-0.387-1.275-0.584
	c-0.401-0.185-0.801-0.371-1.177-0.548c-0.309-0.148-0.617-0.3-0.924-0.452l-0.614-0.303c-0.295-0.146-0.589-0.29-0.86-0.427
	c-0.419-0.214-0.836-0.435-1.249-0.652l-0.427-0.225c-0.236-0.123-0.469-0.245-0.711-0.377c-0.352-0.192-0.7-0.386-1.048-0.582
	l-0.625-0.349c-0.217-0.12-0.435-0.242-0.676-0.379c-0.304-0.175-0.606-0.356-0.907-0.535l-0.736-0.435
	c-0.213-0.125-0.427-0.251-0.64-0.379c-0.537-0.328-1.065-0.662-1.618-1.013c-0.501-0.316-0.997-0.64-1.495-0.966l-0.23-0.152
	c-0.36-0.237-0.722-0.472-1.082-0.718c-0.235-0.16-0.468-0.325-0.7-0.487l-0.581-0.406c-0.298-0.207-0.597-0.414-0.902-0.632
	c-0.275-0.198-0.547-0.399-0.82-0.6l-0.571-0.42c-0.245-0.181-0.493-0.362-0.74-0.55c-0.28-0.21-0.555-0.424-0.83-0.641
	l-0.066-0.051c0.02-0.048,0.049-0.09,0.069-0.139c4.555-11.361,14.676-15.088,15.037-15.217c0.123-0.041,0.246-0.086,0.369-0.134
	l28.948-11.336l15.337,14.938c1.501,1.462,3.513,2.279,5.605,2.279c0.043,0,0.086,0,0.127-0.001c2.138-0.034,4.175-0.919,5.658-2.46
	l14.473-15.022l28.875,11.578c0.141,0.058,0.216,0.087,0.362,0.135c0.45,0.161,10.605,3.912,15.144,15.349l-0.779,0.591
	C188.047,474.624,187.704,474.883,187.341,475.151z"/>
<g>
</g>
<g>
</g>
<g>
</g>
<g>
</g>
<g>
</g>
<g>
</g>
<g>
</g>
<g>
</g>
<g>
</g>
<g>
</g>
<g>
</g>
<g>
</g>
<g>
</g>
<g>
</g>
<g>
</g>
</svg>
