<svg xmlns="http://www.w3.org/2000/svg" viewBox="0 0 512 512"><style>.a{fill:#F7971D;}.b{fill:#F37521;}.c{fill:#694B4B;}.d{fill:#FBCB99;}.e{fill:#6598CB;}.f{fill:#563B3B;}.g{fill:#EDBA89;}.h{fill:#4982AA;}.i{fill:#202121;}</style><path d="M502.4 121.8c0-0.8 0-1.6 0-2.3 0-0.4 0-0.9 0-1.3 0-0.6 0-1.2-0.1-1.8 0-0.5-0.1-0.9-0.1-1.4 0-0.6-0.1-1.1-0.1-1.7 0-0.5-0.1-0.9-0.1-1.4 -0.1-0.6-0.1-1.1-0.2-1.7 0-0.5-0.1-0.9-0.2-1.4 -0.1-0.6-0.1-1.1-0.2-1.6 -0.1-0.5-0.1-0.9-0.2-1.4 -0.1-0.6-0.2-1.1-0.3-1.7 -0.1-0.4-0.1-0.9-0.2-1.3 -0.1-0.6-0.2-1.2-0.3-1.7 -0.1-0.4-0.2-0.8-0.2-1.2 -0.1-0.6-0.3-1.3-0.4-1.9 -0.1-0.3-0.1-0.7-0.2-1 -0.2-0.9-0.4-1.9-0.7-2.8 0 0 0-0.1 0-0.1 -0.2-1-0.5-1.9-0.8-2.9 -0.1-0.3-0.2-0.6-0.3-0.9 -0.2-0.7-0.4-1.3-0.6-2 -0.1-0.3-0.2-0.7-0.3-1 -0.2-0.6-0.4-1.2-0.6-1.8 -0.1-0.4-0.3-0.7-0.4-1.1 -0.2-0.6-0.4-1.2-0.6-1.7 -0.1-0.4-0.3-0.7-0.4-1.1 -0.2-0.6-0.5-1.2-0.7-1.7 -0.1-0.3-0.3-0.7-0.4-1 -0.2-0.6-0.5-1.2-0.8-1.8 -0.1-0.3-0.3-0.6-0.4-0.9 -0.3-0.6-0.6-1.3-0.9-1.9 -0.1-0.2-0.2-0.4-0.3-0.6l0 0c-4.9-10.3-11.3-19.8-18.9-28.1l0 0c-0.3-0.3-0.5-0.6-0.8-0.9 -0.3-0.4-0.7-0.7-1-1.1 -0.3-0.3-0.6-0.7-1-1 -0.3-0.3-0.7-0.7-1-1 -0.3-0.3-0.7-0.7-1-1 -0.3-0.3-0.7-0.7-1-1 -0.3-0.3-0.7-0.6-1-1 -0.3-0.3-0.7-0.6-1-1 -0.4-0.3-0.7-0.6-1.1-0.9 -0.3-0.3-0.7-0.6-1.1-0.9 -0.4-0.3-0.7-0.6-1.1-0.9 -0.4-0.3-0.7-0.6-1.1-0.9 -0.4-0.3-0.7-0.6-1.1-0.9 -0.4-0.3-0.7-0.6-1.1-0.9 -0.4-0.3-0.8-0.6-1.1-0.9 -0.4-0.3-0.7-0.6-1.1-0.8 -0.4-0.3-0.8-0.6-1.2-0.8 -0.4-0.3-0.8-0.5-1.1-0.8 -0.4-0.3-0.8-0.5-1.2-0.8 -0.4-0.3-0.8-0.5-1.2-0.8 -0.4-0.3-0.8-0.5-1.2-0.8 -0.4-0.3-0.8-0.5-1.2-0.8 -0.4-0.3-0.8-0.5-1.2-0.8 -0.4-0.2-0.8-0.5-1.2-0.7 -0.4-0.2-0.8-0.5-1.2-0.7 -0.4-0.2-0.8-0.5-1.3-0.7 -0.4-0.2-0.8-0.5-1.2-0.7 -0.4-0.2-0.9-0.5-1.3-0.7 -0.4-0.2-0.8-0.4-1.2-0.6 -0.5-0.3-1-0.5-1.5-0.8 -0.6-0.3-1.1-0.6-1.7-0.8 -0.6-0.3-1.2-0.6-1.8-0.9 -0.4-0.2-0.8-0.3-1.2-0.5 -0.5-0.2-1-0.4-1.5-0.6 -0.4-0.2-0.8-0.3-1.2-0.5 -0.5-0.2-0.9-0.4-1.4-0.6 -0.4-0.2-0.9-0.3-1.3-0.5 -0.5-0.2-0.9-0.4-1.4-0.5 -0.4-0.2-0.9-0.3-1.3-0.5 -0.5-0.2-0.9-0.3-1.4-0.5 -0.4-0.1-0.9-0.3-1.3-0.4 -0.5-0.2-1-0.3-1.4-0.5 -0.4-0.1-0.9-0.3-1.3-0.4 -0.5-0.1-1-0.3-1.5-0.4 -0.4-0.1-0.9-0.2-1.4-0.4 -0.5-0.1-1-0.3-1.5-0.4 -0.5-0.1-0.9-0.2-1.4-0.3 -0.5-0.1-1-0.2-1.5-0.3 -0.5-0.1-0.9-0.2-1.4-0.3 -0.5-0.1-1-0.2-1.5-0.3 -0.5-0.1-0.9-0.2-1.4-0.3 -0.5-0.1-1-0.2-1.5-0.3 -0.5-0.1-0.9-0.2-1.4-0.2 -0.5-0.1-1-0.2-1.6-0.2 -0.5-0.1-0.9-0.1-1.4-0.2 -0.5-0.1-1.1-0.1-1.6-0.2 -0.4-0.1-0.9-0.1-1.3-0.2 -0.6-0.1-1.1-0.1-1.7-0.2 -0.4 0-0.9-0.1-1.3-0.1 -0.6 0-1.2-0.1-1.8-0.1 -0.4 0-0.8-0.1-1.2-0.1 -0.7 0-1.3-0.1-2-0.1 -0.3 0-0.7 0-1 0 -1 0-2 0-3 0 0 0 0 0 0 0h0 0c0 0 0 0 0 0 -1 0-2 0-3 0 -0.3 0-0.7 0-1 0 -0.7 0-1.3 0-2 0.1 -0.4 0-0.8 0.1-1.2 0.1 -0.6 0-1.2 0.1-1.8 0.1 -0.4 0-0.9 0.1-1.3 0.1 -0.6 0.1-1.1 0.1-1.7 0.2 -0.4 0-0.9 0.1-1.3 0.2 -0.5 0.1-1.1 0.1-1.6 0.2 -0.5 0.1-0.9 0.1-1.4 0.2 -0.5 0.1-1.1 0.2-1.6 0.2 -0.5 0.1-0.9 0.2-1.4 0.2 -0.5 0.1-1 0.2-1.5 0.3 -0.5 0.1-0.9 0.2-1.4 0.3 -0.5 0.1-1 0.2-1.5 0.3 -0.5 0.1-0.9 0.2-1.4 0.3 -0.5 0.1-1 0.2-1.5 0.3 -0.5 0.1-0.9 0.2-1.4 0.3 -0.5 0.1-1 0.3-1.5 0.4 -0.5 0.1-0.9 0.2-1.4 0.4 -0.5 0.1-1 0.3-1.4 0.4 -0.4 0.1-0.9 0.3-1.3 0.4 -0.5 0.1-1 0.3-1.4 0.5 -0.4 0.1-0.9 0.3-1.3 0.4 -0.5 0.2-1 0.3-1.4 0.5 -0.4 0.2-0.9 0.3-1.3 0.5 -0.5 0.2-0.9 0.4-1.4 0.5 -0.4 0.2-0.9 0.3-1.3 0.5 -0.5 0.2-1 0.4-1.4 0.6 -0.4 0.2-0.8 0.3-1.2 0.5 -0.5 0.2-1 0.4-1.5 0.6 -0.4 0.2-0.8 0.3-1.2 0.5 -0.6 0.3-1.2 0.6-1.8 0.9 -0.6 0.3-1.2 0.6-1.7 0.8 -0.5 0.3-1 0.5-1.5 0.8 -0.4 0.2-0.8 0.4-1.2 0.6 -0.4 0.2-0.9 0.5-1.3 0.7 -0.4 0.2-0.8 0.5-1.2 0.7 -0.4 0.2-0.8 0.5-1.3 0.7 -0.4 0.2-0.8 0.5-1.2 0.7 -0.4 0.2-0.8 0.5-1.2 0.7 -0.4 0.3-0.8 0.5-1.2 0.8 -0.4 0.3-0.8 0.5-1.2 0.8 -0.4 0.3-0.8 0.5-1.2 0.8 -0.4 0.3-0.8 0.5-1.2 0.8 -0.4 0.3-0.8 0.5-1.2 0.8 -0.4 0.3-0.8 0.5-1.1 0.8 -0.4 0.3-0.8 0.6-1.2 0.8 -0.4 0.3-0.7 0.6-1.1 0.8 -0.4 0.3-0.8 0.6-1.1 0.9 -0.4 0.3-0.7 0.6-1.1 0.9 -0.4 0.3-0.7 0.6-1.1 0.9 -0.4 0.3-0.7 0.6-1.1 0.9 -0.4 0.3-0.7 0.6-1.1 0.9 -0.4 0.3-0.7 0.6-1.1 0.9 -0.4 0.3-0.7 0.6-1.1 1 -0.3 0.3-0.7 0.6-1 1 -0.3 0.3-0.7 0.6-1 1 -0.3 0.3-0.7 0.7-1 1 -0.3 0.3-0.7 0.7-1 1 -0.3 0.3-0.7 0.7-1 1 -0.3 0.3-0.6 0.7-1 1 -0.3 0.4-0.7 0.7-1 1.1 -0.3 0.3-0.5 0.6-0.8 0.9l0 0c-7.6 8.3-14 17.8-18.9 28.1l0 0c-0.1 0.2-0.2 0.4-0.3 0.6 -0.3 0.6-0.6 1.3-0.9 1.9 -0.1 0.3-0.3 0.6-0.4 0.9 -0.3 0.6-0.5 1.2-0.8 1.8 -0.1 0.3-0.3 0.7-0.4 1 -0.2 0.6-0.5 1.2-0.7 1.7 -0.1 0.4-0.3 0.7-0.4 1.1 -0.2 0.6-0.4 1.2-0.6 1.7 -0.1 0.4-0.3 0.7-0.4 1.1 -0.2 0.6-0.4 1.2-0.6 1.8 -0.1 0.3-0.2 0.7-0.3 1 -0.2 0.7-0.4 1.3-0.6 2 -0.1 0.3-0.2 0.6-0.3 0.9 -0.3 1-0.5 1.9-0.8 2.9 0 0 0 0.1 0 0.1 -0.2 0.9-0.5 1.9-0.7 2.8 -0.1 0.3-0.2 0.7-0.2 1 -0.1 0.6-0.3 1.3-0.4 1.9 -0.1 0.4-0.2 0.8-0.2 1.2 -0.1 0.6-0.2 1.2-0.3 1.7 -0.1 0.4-0.1 0.9-0.2 1.3 -0.1 0.6-0.2 1.1-0.3 1.7 -0.1 0.5-0.1 0.9-0.2 1.4 -0.1 0.6-0.1 1.1-0.2 1.7 -0.1 0.5-0.1 0.9-0.2 1.4 -0.1 0.6-0.1 1.1-0.2 1.7 0 0.5-0.1 0.9-0.1 1.4 0 0.6-0.1 1.1-0.1 1.7 0 0.5-0.1 0.9-0.1 1.4 0 0.6-0.1 1.2-0.1 1.8 0 0.4 0 0.9 0 1.3 0 0.8 0 1.6 0 2.3 0 0.2 0 0.5 0 0.7 0 63.3 51.3 114.5 114.5 114.5h0 0c63.3 0 114.5-51.3 114.5-114.5C502.4 122.3 502.4 122.1 502.4 121.8z" class="a"/><path d="M292.6 122.6c0-0.2 0-0.5 0-0.7 0-0.8 0-1.6 0-2.3 0-0.4 0-0.9 0.1-1.3 0-0.6 0-1.2 0.1-1.8 0-0.5 0.1-0.9 0.1-1.4 0-0.6 0.1-1.1 0.1-1.7 0-0.5 0.1-0.9 0.1-1.4 0.1-0.6 0.1-1.1 0.2-1.7 0.1-0.5 0.1-0.9 0.2-1.4 0.1-0.6 0.1-1.1 0.2-1.7 0.1-0.5 0.1-0.9 0.2-1.4 0.1-0.6 0.2-1.1 0.3-1.7 0.1-0.4 0.1-0.9 0.2-1.3 0.1-0.6 0.2-1.2 0.3-1.7 0.1-0.4 0.2-0.8 0.2-1.2 0.1-0.6 0.3-1.3 0.4-1.9 0.1-0.3 0.1-0.7 0.2-1 0.2-0.9 0.4-1.9 0.7-2.8 0 0 0-0.1 0-0.1 0.2-1 0.5-1.9 0.8-2.9 0.1-0.3 0.2-0.6 0.3-0.9 0.2-0.7 0.4-1.3 0.6-2 0.1-0.3 0.2-0.7 0.3-1 0.2-0.6 0.4-1.2 0.6-1.8 0.1-0.4 0.3-0.7 0.4-1.1 0.2-0.6 0.4-1.2 0.6-1.7 0.1-0.4 0.3-0.7 0.4-1.1 0.2-0.6 0.5-1.2 0.7-1.7 0.1-0.3 0.3-0.7 0.4-1 0.2-0.6 0.5-1.2 0.8-1.8 0.1-0.3 0.3-0.6 0.4-0.9 0.3-0.6 0.6-1.3 0.9-1.9 0.1-0.2 0.2-0.4 0.3-0.6l0 0c4.9-10.3 11.3-19.8 18.9-28.1l0 0c0.3-0.3 0.5-0.6 0.8-0.9 0.3-0.4 0.7-0.7 1-1.1 0.3-0.3 0.6-0.7 1-1 0.3-0.3 0.7-0.7 1-1 0.3-0.3 0.7-0.7 1-1 0.3-0.3 0.7-0.7 1-1 0.3-0.3 0.7-0.6 1-1 0.3-0.3 0.7-0.6 1-1 0.4-0.3 0.7-0.6 1.1-0.9 0.3-0.3 0.7-0.6 1.1-0.9 0.4-0.3 0.7-0.6 1.1-0.9 0.4-0.3 0.7-0.6 1.1-0.9 0.4-0.3 0.7-0.6 1.1-0.9 0.4-0.3 0.7-0.6 1.1-0.9 0.4-0.3 0.8-0.6 1.1-0.9 0.4-0.3 0.7-0.6 1.1-0.8 0.4-0.3 0.8-0.6 1.2-0.8 0.4-0.3 0.8-0.5 1.1-0.8 0.4-0.3 0.8-0.5 1.2-0.8 0.4-0.3 0.8-0.5 1.2-0.8 0.4-0.3 0.8-0.5 1.2-0.8 0.4-0.3 0.8-0.5 1.2-0.8 0.4-0.3 0.8-0.5 1.2-0.8 0.4-0.2 0.8-0.5 1.2-0.7 0.4-0.2 0.8-0.5 1.2-0.7 0.4-0.2 0.8-0.5 1.3-0.7 0.4-0.2 0.8-0.5 1.2-0.7 0.4-0.2 0.9-0.5 1.3-0.7 0.4-0.2 0.8-0.4 1.2-0.6 0.5-0.3 1-0.5 1.5-0.8 0.6-0.3 1.1-0.6 1.7-0.8 0.6-0.3 1.2-0.6 1.8-0.9 0.4-0.2 0.8-0.3 1.2-0.5 0.5-0.2 1-0.4 1.5-0.6 0.4-0.2 0.8-0.3 1.2-0.5 0.5-0.2 0.9-0.4 1.4-0.6 0.4-0.2 0.9-0.3 1.3-0.5 0.5-0.2 0.9-0.4 1.4-0.5 0.4-0.2 0.9-0.3 1.3-0.5 0.5-0.2 1-0.3 1.4-0.5 0.4-0.1 0.9-0.3 1.3-0.4 0.5-0.2 1-0.3 1.4-0.5 0.4-0.1 0.9-0.3 1.3-0.4 0.5-0.1 1-0.3 1.5-0.4 0.5-0.1 0.9-0.2 1.4-0.4 0.5-0.1 1-0.3 1.5-0.4 0.5-0.1 0.9-0.2 1.4-0.3 0.5-0.1 1-0.2 1.5-0.3 0.5-0.1 0.9-0.2 1.4-0.3 0.5-0.1 1-0.2 1.5-0.3 0.5-0.1 0.9-0.2 1.4-0.3 0.5-0.1 1-0.2 1.5-0.3 0.5-0.1 0.9-0.2 1.4-0.2 0.5-0.1 1-0.2 1.6-0.2 0.5-0.1 0.9-0.1 1.4-0.2 0.5-0.1 1.1-0.1 1.6-0.2 0.4-0.1 0.9-0.1 1.3-0.2 0.6-0.1 1.1-0.1 1.7-0.2 0.2 0 0.5 0 0.7-0.1 -0.2 0-0.4 0-0.6 0 -0.6 0-1.2-0.1-1.8-0.1 -0.4 0-0.8-0.1-1.2-0.1 -0.7 0-1.3-0.1-2-0.1 -0.3 0-0.7 0-1 0 -1 0-2 0-3 0 0 0 0 0 0 0h0 0c0 0 0 0 0 0 -1 0-2 0-3 0 -0.3 0-0.7 0-1 0 -0.7 0-1.3 0-2 0.1 -0.4 0-0.8 0.1-1.2 0.1 -0.6 0-1.2 0.1-1.8 0.1 -0.4 0-0.9 0.1-1.3 0.1 -0.6 0.1-1.1 0.1-1.7 0.2 -0.4 0-0.9 0.1-1.3 0.2 -0.5 0.1-1.1 0.1-1.6 0.2 -0.5 0.1-0.9 0.1-1.4 0.2 -0.5 0.1-1.1 0.2-1.6 0.2 -0.5 0.1-0.9 0.2-1.4 0.2 -0.5 0.1-1 0.2-1.5 0.3 -0.5 0.1-0.9 0.2-1.4 0.3 -0.5 0.1-1 0.2-1.5 0.3 -0.5 0.1-0.9 0.2-1.4 0.3 -0.5 0.1-1 0.2-1.5 0.3 -0.5 0.1-0.9 0.2-1.4 0.3 -0.5 0.1-1 0.3-1.5 0.4 -0.5 0.1-0.9 0.2-1.4 0.4 -0.5 0.1-1 0.3-1.5 0.4 -0.4 0.1-0.9 0.3-1.3 0.4 -0.5 0.1-1 0.3-1.4 0.5 -0.4 0.1-0.9 0.3-1.3 0.4 -0.5 0.2-1 0.3-1.4 0.5 -0.4 0.2-0.9 0.3-1.3 0.5 -0.5 0.2-0.9 0.4-1.4 0.5 -0.4 0.2-0.9 0.3-1.3 0.5 -0.5 0.2-1 0.4-1.4 0.6 -0.4 0.2-0.8 0.3-1.2 0.5 -0.5 0.2-1 0.4-1.5 0.6 -0.4 0.2-0.8 0.3-1.2 0.5 -0.6 0.3-1.2 0.6-1.8 0.9 -0.6 0.3-1.2 0.6-1.7 0.8 -0.5 0.3-1 0.5-1.5 0.8 -0.4 0.2-0.8 0.4-1.2 0.6 -0.4 0.2-0.9 0.5-1.3 0.7 -0.4 0.2-0.8 0.5-1.2 0.7 -0.4 0.2-0.8 0.5-1.3 0.7 -0.4 0.2-0.8 0.5-1.2 0.7 -0.4 0.2-0.8 0.5-1.2 0.7 -0.4 0.3-0.8 0.5-1.2 0.8 -0.4 0.3-0.8 0.5-1.2 0.8 -0.4 0.3-0.8 0.5-1.2 0.8 -0.4 0.3-0.8 0.5-1.2 0.8 -0.4 0.3-0.8 0.5-1.2 0.8 -0.4 0.3-0.8 0.5-1.1 0.8 -0.4 0.3-0.8 0.6-1.2 0.8 -0.4 0.3-0.7 0.6-1.1 0.8 -0.4 0.3-0.8 0.6-1.1 0.9 -0.4 0.3-0.7 0.6-1.1 0.9 -0.4 0.3-0.7 0.6-1.1 0.9 -0.4 0.3-0.7 0.6-1.1 0.9 -0.4 0.3-0.7 0.6-1.1 0.9 -0.4 0.3-0.7 0.6-1.1 0.9 -0.4 0.3-0.7 0.6-1.1 1 -0.3 0.3-0.7 0.6-1 1 -0.3 0.3-0.7 0.6-1 1 -0.3 0.3-0.7 0.7-1 1 -0.3 0.3-0.7 0.7-1 1 -0.3 0.3-0.7 0.7-1 1 -0.3 0.3-0.6 0.7-1 1 -0.3 0.4-0.7 0.7-1 1.1 -0.3 0.3-0.5 0.6-0.8 0.9l0 0c-7.6 8.3-14 17.8-18.9 28.1l0 0c-0.1 0.2-0.2 0.4-0.3 0.6 -0.3 0.6-0.6 1.3-0.9 1.9 -0.1 0.3-0.3 0.6-0.4 0.9 -0.3 0.6-0.5 1.2-0.8 1.8 -0.1 0.3-0.3 0.7-0.4 1 -0.2 0.6-0.5 1.2-0.7 1.7 -0.1 0.4-0.3 0.7-0.4 1.1 -0.2 0.6-0.4 1.2-0.6 1.7 -0.1 0.4-0.3 0.7-0.4 1.1 -0.2 0.6-0.4 1.2-0.6 1.8 -0.1 0.3-0.2 0.7-0.3 1 -0.2 0.7-0.4 1.3-0.6 2 -0.1 0.3-0.2 0.6-0.3 0.9 -0.3 1-0.5 1.9-0.8 2.9 0 0 0 0.1 0 0.1 -0.2 0.9-0.5 1.9-0.7 2.8 -0.1 0.3-0.2 0.7-0.2 1 -0.1 0.6-0.3 1.3-0.4 1.9 -0.1 0.4-0.2 0.8-0.2 1.2 -0.1 0.6-0.2 1.2-0.3 1.7 -0.1 0.4-0.1 0.9-0.2 1.3 -0.1 0.6-0.2 1.1-0.3 1.7 -0.1 0.5-0.1 0.9-0.2 1.4 -0.1 0.6-0.1 1.1-0.2 1.7 -0.1 0.5-0.1 0.9-0.2 1.4 -0.1 0.6-0.1 1.1-0.2 1.7 0 0.5-0.1 0.9-0.1 1.4 0 0.6-0.1 1.1-0.1 1.7 0 0.5-0.1 0.9-0.1 1.4 0 0.6-0.1 1.2-0.1 1.8 0 0.4 0 0.9 0 1.3 0 0.8 0 1.6 0 2.3 0 0.2 0 0.5 0 0.7 0 63.3 51.3 114.5 114.5 114.5h0 0c3.2 0 6.5-0.1 9.6-0.4C338.8 231.8 292.6 182.6 292.6 122.6z" class="b"/><path d="M390.4 39.8h-4.3c-25.3 0-45.8 20.5-45.8 45.8v14.1l4-1.4c0.6-0.2 1.3-0.3 2-0.3 0.4 0 38.5-0.3 55.7-24.1 1.4-1.9 3.8-2.9 6.1-2.4 2.3 0.5 4.2 2.3 4.7 4.6 0.2 0.8 4.7 18.8 19 22 0.2 0 0.3 0.1 0.5 0.1l3.9 1.2V85.6C436.2 60.3 415.6 39.8 390.4 39.8z" class="c"/><path d="M392.8 161.7h-9.1c-1.1 0-2.2 0-3.6-0.1l-2.8-0.2v10.2l10.7 10.4 11.1-11.5v-9.1l-2.8 0.2C395 161.7 393.9 161.7 392.8 161.7z" class="d"/><path d="M445.1 102.1h-15.7v-5.7l-3.5 1.2c-0.9 0.3-1.9 0.4-2.9 0.2 -8-1.8-14.5-6.9-19.3-15.1l-1.5-2.6 -2.4 2C381 97.8 353.7 97.9 352.5 97.9l-0.2 0c-0.6 0-1.1-0.1-1.7-0.3l-3.5-1.2v5.7h-16.3v18.8h16.8c2.9 17.3 18 30.5 36.1 30.5h9.1c18.1 0 33.2-13.2 36.1-30.5h16.2V102.1z" class="d"/><path d="M455.2 205c-5.2-12-16-16-16.6-16.2 -0.1 0-0.1 0-0.2-0.1l-30.7-12.3 -15.8 16.4c-0.9 1-2.3 1.6-3.7 1.6 -1.4 0-2.6-0.5-3.6-1.5l-16.7-16.2 -30.7 12c-0.1 0-0.1 0.1-0.3 0.1 -0.5 0.2-11.3 4.2-16.4 16.1l-0.8 1.8 1.5 1.2c18.8 15.3 42.4 23.7 66.5 23.7 24.2 0 47.8-8.4 66.6-23.7l1.5-1.2L455.2 205z" class="e"/><path d="M354.8 85.6c0-23.5 17.8-43 40.7-45.5 -1.7-0.2-3.4-0.3-5.1-0.3h-4.3c-25.3 0-45.8 20.5-45.8 45.8v14.1l4-1.4c0.6-0.2 1.3-0.3 2-0.3 0.1 0 3.5 0 8.6-0.7V85.6H354.8z" class="f"/><path d="M396.2 161.7h3v-0.4l-2.8 0.2c-0.7 0.1-1.3 0.1-1.9 0.1C395.1 161.7 395.7 161.7 396.2 161.7z" class="g"/><path d="M389.8 171.5v-9.8h-6.1c-1.1 0-2.2 0-3.6-0.1l-2.8-0.2v10.2l10.7 10.4 6-6.2L389.8 171.5z" class="g"/><path d="M363.1 101.8c0.6 0.2 1.2 0.3 1.8 0.3l0.2 0c1.1 0 24.4-0.2 43.5-12.2 -0.9-1.2-1.8-2.5-2.6-3.9l-1.6-2.8 -2.5 2.1c-13 10.8-29.7 14.7-40.1 16L363.1 101.8z" class="g"/><path d="M359.6 114.8V101.6c-4.1 0.4-6.7 0.5-7.1 0.5l-0.2 0c-0.6 0-1.1-0.1-1.7-0.3l-3.5-1.2v14.2c0 20.2 16.4 36.6 36.6 36.6h9.1c0.6 0 1.1 0 1.7 0C375.1 150.5 359.6 134.4 359.6 114.8z" class="g"/><path d="M333.8 208.1l-1.5-1.2 0.8-1.8c5.2-12 16-16 16.4-16.1 0.1 0 0.2-0.1 0.3-0.1l21.8-8.5 -3.6-3.5 -30.7 12c-0.1 0-0.1 0.1-0.3 0.1 -0.5 0.2-11.3 4.2-16.4 16.1l-0.8 1.8 1.5 1.2c18.8 15.3 42.4 23.7 66.5 23.7 2.1 0 4.1-0.1 6.2-0.2C372.1 230.2 350.9 222 333.8 208.1z" class="h"/><path d="M510.4 121l0-0.3c0-0.6 0-1.2 0-1.8l-0.1-1.5c0-0.6-0.1-1.2-0.1-1.7 0-0.5-0.1-1-0.1-1.5 0-0.6-0.1-1.2-0.1-1.8 0-0.5-0.1-1-0.1-1.5 -0.1-0.6-0.1-1.2-0.2-1.8 0-0.5-0.1-0.9-0.2-1.4 -0.1-0.6-0.2-1.2-0.2-1.8l0-0.3c0-0.4-0.1-0.7-0.1-1 -0.1-0.7-0.2-1.4-0.3-2.1l-0.2-1.1c-0.2-1-0.4-2-0.6-3 0 0 0-0.1 0-0.1 -0.2-1-0.4-2.1-0.7-3.2l-0.2-1c-0.2-0.7-0.3-1.4-0.5-2.1 -0.1-0.3-0.2-0.6-0.3-1l0-0.2c-0.2-0.7-0.4-1.3-0.5-1.9 -0.1-0.4-0.2-0.8-0.3-1.2 -0.2-0.6-0.4-1.3-0.6-1.9l-0.4-1.2c-0.2-0.6-0.4-1.3-0.6-1.9 -0.1-0.4-0.3-0.8-0.4-1.1 -0.2-0.6-0.5-1.3-0.7-2l-0.4-1c-0.3-0.7-0.5-1.4-0.8-2.1l-0.3-0.6c0-0.1-0.1-0.2-0.1-0.3 -1.9-4.5-4-8.9-6.4-13.1 -2.2-3.9-7.1-5.2-10.9-3 -3.9 2.2-5.2 7.1-3 10.9 2.1 3.7 4 7.6 5.6 11.5 0 0.1 0.1 0.1 0.1 0.2l0.2 0.4c0.2 0.6 0.5 1.2 0.7 1.8l0.3 0.9c0.2 0.6 0.4 1.1 0.6 1.7 0.1 0.3 0.2 0.6 0.3 0.9 0.2 0.5 0.4 1.1 0.5 1.6l0.3 1.1c0.2 0.5 0.3 1.1 0.5 1.7 0.1 0.3 0.2 0.7 0.3 1 0.2 0.6 0.3 1.1 0.5 1.7l0.3 1c0.2 0.6 0.3 1.2 0.5 1.9l0.2 0.8c0.2 0.9 0.4 1.7 0.6 2.7 0 0 0 0.1 0 0.2 0.2 0.9 0.3 1.8 0.5 2.6l0.2 1c0.1 0.6 0.2 1.2 0.3 1.8 0 0.3 0.1 0.5 0.1 0.8l0 0.3c0.1 0.5 0.2 1.1 0.2 1.6 0 0.4 0.1 0.8 0.1 1.3 0.1 0.5 0.1 1 0.2 1.6 0 0.4 0.1 0.9 0.1 1.3 0 0.5 0.1 1 0.1 1.6 0 0.4 0.1 0.9 0.1 1.3 0 0.5 0.1 1 0.1 1.5l0.1 1.4c0 0.5 0 1.1 0 1.6l0 0.3c0 0.3 0 0.6 0 1 0 0.5 0 0.9 0 1.4l0 1.5c0 0.7 0 1.5-0.1 2.2l0 0.7c-1.3 26.3-12.2 49.9-29 67.7 -7.6-13.4-19.9-18.4-22-19.2l-30.8-12.3v-4.6c9.5-5 17.2-13.4 21.6-23.8 0.4 0.1 0.7 0.1 1.1 0.1 11.8 0 21.4-10.1 21.4-22.4 0-9-5.1-16.8-12.5-20.3v-6.3c0-32.3-24.4-58.7-54.3-58.7h-3.9c-30 0-54.3 26.3-54.3 58.7v6.3c-7.3 3.6-12.4 11.3-12.4 20.3 0 12.4 9.6 22.4 21.4 22.4 0.4 0 0.8 0 1.2-0.1 4.6 10.6 12.5 19.2 22.3 24.1v4.2l-31.6 12.4c-2.1 0.7-14.5 5.8-22.1 19.2 -19.3-20.4-30.5-48.3-29-78.5l0-0.7c0-0.7 0.1-1.5 0.1-2.2 0-0.3 0-0.5 0.1-0.8l0.1-0.8c0-0.4 0.1-0.9 0.1-1.3 0-0.3 0.1-0.7 0.1-1l0-0.3c0.1-0.5 0.1-1 0.2-1.5l0.2-1.3c0.1-0.5 0.1-1 0.2-1.5 0.1-0.4 0.1-0.9 0.2-1.3 0.1-0.5 0.2-1 0.3-1.5 0.1-0.4 0.2-0.9 0.2-1.3 0.1-0.5 0.2-1 0.3-1.5l0.3-1.2c0.1-0.5 0.2-1.1 0.4-1.6l0.3-1.2c0.1-0.6 0.3-1.2 0.5-1.7l0.3-1c0.2-0.9 0.5-1.7 0.8-2.6l0-0.1c0.3-0.9 0.6-1.8 0.9-2.6l0.3-0.9c0.2-0.6 0.4-1.2 0.7-1.8l0.4-0.9c0.2-0.5 0.4-1.1 0.6-1.6 0.1-0.3 0.3-0.6 0.4-1 0.2-0.5 0.4-1 0.7-1.6l0.4-0.9c0.2-0.5 0.5-1.1 0.7-1.6l0.4-0.9c0.3-0.5 0.5-1.1 0.8-1.6l0.4-0.9c0.3-0.6 0.6-1.1 0.9-1.8l0.2-0.4c0 0 0-0.1 0.1-0.1 5-9.3 11.4-17.8 18.9-25.2 0 0 0.1-0.1 0.1-0.1 0.1-0.1 0.3-0.3 0.4-0.4l0.4-0.4c0.3-0.3 0.6-0.5 0.8-0.8 0.2-0.2 0.4-0.4 0.6-0.6l0.4-0.4c0.3-0.3 0.6-0.5 0.9-0.8l1-0.9c0.3-0.3 0.6-0.6 1-0.9 0.3-0.2 0.6-0.5 0.8-0.7l0.2-0.2c0.3-0.3 0.6-0.5 1-0.8 0.3-0.2 0.6-0.5 0.9-0.7l0.1-0.1c0.3-0.3 0.7-0.5 1-0.8 0.4-0.3 0.7-0.5 1.1-0.8 0.3-0.3 0.7-0.5 1-0.8 0.4-0.3 0.7-0.5 1.1-0.8 0.3-0.2 0.7-0.5 1.1-0.7 0.4-0.3 0.7-0.5 1.1-0.7 0.4-0.2 0.7-0.5 1.1-0.7 0.4-0.2 0.7-0.5 1.1-0.7 0.4-0.2 0.7-0.5 1.1-0.7 0.4-0.2 0.7-0.5 1.1-0.7 0.4-0.2 0.7-0.4 1.1-0.7 0.4-0.2 0.8-0.4 1.1-0.7 0.3-0.2 0.7-0.4 1-0.6l0.3-0.2c0.3-0.2 0.7-0.4 1-0.6 0.3-0.2 0.6-0.3 0.9-0.5l0.4-0.2c0.4-0.2 0.7-0.4 1.1-0.6 0.3-0.1 0.6-0.3 0.9-0.4l0.7-0.3c0.3-0.1 0.6-0.3 0.9-0.4 0.3-0.2 0.7-0.3 1-0.5l0.6-0.3c0.3-0.1 0.5-0.2 0.8-0.4 0.4-0.2 0.8-0.4 1.2-0.5l0.2-0.1c0.5-0.2 1.1-0.5 1.7-0.7 0.6-0.2 1.2-0.5 1.8-0.7 0.2-0.1 0.4-0.2 0.7-0.2l0.8-0.3c0.3-0.1 0.7-0.3 1.1-0.4 0.3-0.1 0.5-0.2 0.8-0.3l0.7-0.2c0.3-0.1 0.7-0.2 1-0.4 0.3-0.1 0.5-0.2 0.8-0.3l0.7-0.2c0.4-0.1 0.7-0.2 1.1-0.3l1.5-0.4c0.4-0.1 0.8-0.2 1.1-0.3 0.4-0.1 0.8-0.2 1.3-0.3 0.5-0.1 0.9-0.2 1.4-0.4 0.4-0.1 0.8-0.2 1.3-0.3 0.5-0.1 0.9-0.2 1.4-0.3 0.4-0.1 0.8-0.2 1.3-0.3 0.5-0.1 0.9-0.2 1.4-0.3 0.4-0.1 0.9-0.2 1.3-0.2 0.5-0.1 0.9-0.2 1.4-0.3 0.4-0.1 0.9-0.1 1.3-0.2 0.5-0.1 1-0.1 1.4-0.2 0.4-0.1 0.8-0.1 1.3-0.2 0.5-0.1 1-0.1 1.4-0.2 0.4 0 0.9-0.1 1.3-0.1 0.5-0.1 1-0.1 1.5-0.1 0.4 0 0.9-0.1 1.3-0.1 0.5 0 1-0.1 1.5-0.1l0.2 0c0.4 0 0.7 0 1.1-0.1 0.4 0 0.7 0 1.1 0l1.7-0.1c0.5 0 0.9 0 1.4 0l1.4 0c0.5 0 1 0 1.6 0l1.3 0c0.9 0 1.9 0.1 2.8 0.1 0 0 0 0 0.1 0 0.9 0 1.9 0.1 2.8 0.2l1.3 0.1c0.5 0 1 0.1 1.5 0.1l1.5 0.2c0.4 0.1 0.9 0.1 1.3 0.2l1.6 0.2c0.4 0.1 0.8 0.1 1.2 0.2 0.4 0.1 0.7 0.1 1.1 0.2l0.2 0c0.5 0.1 1 0.2 1.5 0.3 0.3 0.1 0.6 0.1 1 0.2l0.3 0.1c0.5 0.1 1 0.2 1.5 0.3 0.4 0.1 0.9 0.2 1.3 0.3 0.5 0.1 1 0.2 1.4 0.3 0.4 0.1 0.9 0.2 1.3 0.3 0.5 0.1 0.9 0.2 1.4 0.4 0.4 0.1 0.8 0.2 1.3 0.3 0.5 0.1 0.9 0.3 1.4 0.4 0.4 0.1 0.8 0.2 1.3 0.4 0.5 0.1 0.9 0.3 1.3 0.4 0.4 0.1 0.8 0.3 1.2 0.4 0.5 0.2 0.9 0.3 1.4 0.5 0.4 0.1 0.8 0.3 1.2 0.4 0.4 0.2 0.9 0.3 1.3 0.5l1.2 0.5c0.3 0.1 0.7 0.3 1 0.4l0.7 0.3c0.3 0.1 0.6 0.2 0.8 0.3 0.4 0.2 0.8 0.3 1.1 0.5l0.5 0.2c0.3 0.1 0.5 0.2 0.8 0.3 0.4 0.2 0.7 0.3 1.1 0.5l0.7 0.3c0.2 0.1 0.4 0.2 0.7 0.3 0.3 0.2 0.6 0.3 1 0.5l1.4 0.7c0.6 0.3 1.1 0.6 1.7 0.9 0.5 0.3 1 0.6 1.6 0.9l0.3 0.1c0.4 0.2 0.7 0.4 1.1 0.6 0.2 0.1 0.5 0.3 0.7 0.4l0.6 0.4c0.3 0.2 0.6 0.4 0.9 0.5 0.3 0.2 0.5 0.3 0.8 0.5l0.7 0.4c0.3 0.2 0.5 0.3 0.8 0.5 0.3 0.2 0.6 0.4 0.9 0.6l0.5 0.3c0.3 0.2 0.6 0.4 0.9 0.6 0.3 0.2 0.7 0.5 1 0.7 0 0 0.1 0.1 0.1 0.1l0.1 0.1c0.3 0.2 0.6 0.4 1 0.7 0.4 0.3 0.7 0.5 1.1 0.8l0.1 0.1c0.3 0.2 0.6 0.5 0.9 0.7 0.4 0.3 0.7 0.5 1.1 0.8 0.3 0.3 0.7 0.5 1 0.8 0.3 0.3 0.7 0.5 1 0.8 0.3 0.3 0.7 0.6 1 0.8 0.3 0.3 0.7 0.6 1 0.9 0.3 0.3 0.6 0.6 1 0.8 0.3 0.3 0.7 0.6 1 0.9 0.3 0.3 0.6 0.6 1 0.9 0.3 0.3 0.6 0.6 1 0.9 0.3 0.3 0.6 0.6 0.9 0.9l0.2 0.2c0.2 0.2 0.5 0.5 0.7 0.7 0.3 0.3 0.6 0.6 0.9 0.9 0.3 0.3 0.6 0.6 0.9 0.9 0.2 0.3 0.5 0.5 0.7 0.8l0.2 0.2c3 3.2 8.1 3.4 11.4 0.4 3.2-3 3.4-8.1 0.4-11.4l-0.2-0.2c-0.3-0.3-0.6-0.6-0.9-0.9 -0.3-0.4-0.7-0.7-1-1.1 -0.4-0.4-0.7-0.7-1.1-1.1 -0.3-0.3-0.6-0.6-0.9-0.8l-0.2-0.2c-0.4-0.4-0.7-0.7-1.1-1 -0.4-0.4-0.7-0.7-1.1-1.1 -0.4-0.3-0.7-0.7-1.1-1 -0.4-0.3-0.8-0.7-1.1-1 -0.4-0.3-0.8-0.7-1.1-1 -0.4-0.3-0.8-0.7-1.2-1 -0.4-0.3-0.8-0.6-1.1-0.9 -0.4-0.3-0.8-0.7-1.2-1 -0.4-0.3-0.8-0.6-1.2-0.9 -0.4-0.3-0.8-0.6-1.2-0.9 -0.4-0.3-0.7-0.6-1.1-0.8l-0.1-0.1c-0.4-0.3-0.8-0.6-1.2-0.9 -0.4-0.3-0.7-0.5-1.1-0.8l-0.2-0.1c-0.4-0.3-0.8-0.6-1.2-0.8 -0.3-0.2-0.7-0.5-1.1-0.7l-0.4-0.3c-0.4-0.2-0.7-0.5-1.1-0.7 -0.3-0.2-0.6-0.4-1-0.6l-0.6-0.4c-0.3-0.2-0.7-0.4-1-0.6 -0.4-0.2-0.7-0.4-1.1-0.7l-0.5-0.3c-0.3-0.2-0.7-0.4-1-0.6 -0.5-0.3-0.9-0.5-1.4-0.8l-0.2-0.1c-0.6-0.3-1.2-0.7-1.8-1 -0.6-0.3-1.3-0.7-1.9-1 -0.3-0.1-0.6-0.3-0.8-0.4l-0.7-0.4c-0.4-0.2-0.8-0.4-1.2-0.6 -0.3-0.1-0.6-0.3-0.9-0.4l-0.6-0.3c-0.4-0.2-0.8-0.4-1.3-0.6 -0.3-0.2-0.7-0.3-1-0.4l-0.5-0.2c-0.5-0.2-0.9-0.4-1.4-0.6 -0.3-0.1-0.7-0.3-1-0.4l-0.7-0.3c-0.4-0.2-0.8-0.3-1.2-0.5 -0.4-0.1-0.8-0.3-1.1-0.4l-0.3-0.1c-0.5-0.2-1-0.4-1.5-0.6 -0.5-0.2-0.9-0.3-1.4-0.5 -0.5-0.2-1-0.3-1.5-0.5 -0.5-0.2-0.9-0.3-1.4-0.5 -0.5-0.2-1-0.3-1.6-0.5 -0.5-0.1-0.9-0.3-1.4-0.4 -0.5-0.2-1.1-0.3-1.6-0.5 -0.5-0.1-1-0.3-1.4-0.4 -0.5-0.1-1.1-0.3-1.6-0.4 -0.5-0.1-1-0.2-1.4-0.4 -0.5-0.1-1.1-0.2-1.6-0.4 -0.5-0.1-1-0.2-1.4-0.3 -0.6-0.1-1.1-0.2-1.7-0.3l-0.3-0.1c-0.4-0.1-0.8-0.1-1.1-0.2 -0.6-0.1-1.1-0.2-1.7-0.3l-0.2 0c-0.4-0.1-0.8-0.1-1.3-0.2 -0.5-0.1-0.9-0.1-1.4-0.2l-0.8-0.1c-0.3 0-0.6-0.1-1-0.1 -0.5-0.1-1-0.1-1.6-0.2l-1.6-0.2c-0.6-0.1-1.2-0.1-1.7-0.2l-0.7-0.1c-0.3 0-0.5 0-0.7-0.1 -1-0.1-2.1-0.1-3.1-0.2 -0.1 0-0.2 0-0.3 0 -1-0.1-2.1-0.1-3.1-0.1 -0.2 0-0.5 0-0.7 0l-0.7 0c-0.6 0-1.2 0-1.8 0l-1.6 0c-0.5 0-1.1 0-1.6 0 -0.3 0-0.6 0-1 0l-0.9 0c-0.5 0-0.9 0-1.3 0.1 -0.4 0-0.9 0.1-1.3 0.1l-0.1 0c-0.6 0-1.2 0.1-1.8 0.1 -0.5 0-1 0.1-1.5 0.1 -0.6 0.1-1.1 0.1-1.7 0.2 -0.5 0.1-1 0.1-1.5 0.2 -0.5 0.1-1.1 0.1-1.6 0.2 -0.5 0.1-1 0.1-1.5 0.2 -0.5 0.1-1.1 0.2-1.6 0.2 -0.5 0.1-1 0.2-1.4 0.2 -0.5 0.1-1.1 0.2-1.6 0.3 -0.5 0.1-1 0.2-1.5 0.3 -0.5 0.1-1.1 0.2-1.7 0.3 -0.5 0.1-0.9 0.2-1.4 0.3 -0.5 0.1-1 0.2-1.6 0.4 -0.5 0.1-1 0.2-1.5 0.4 -0.5 0.1-1 0.3-1.5 0.4 -0.5 0.1-1 0.3-1.4 0.4 -0.4 0.1-0.9 0.3-1.3 0.4l-1.6 0.5c-0.4 0.1-0.9 0.3-1.3 0.4l-0.6 0.2c-0.3 0.1-0.7 0.2-1 0.3 -0.4 0.1-0.8 0.3-1.3 0.4l-0.6 0.2c-0.4 0.1-0.7 0.3-1.1 0.4 -0.4 0.2-0.9 0.3-1.3 0.5l-0.7 0.3c-0.3 0.1-0.6 0.2-0.9 0.3 -0.7 0.3-1.3 0.5-2 0.8 -0.6 0.3-1.3 0.5-1.9 0.8l-0.2 0.1c-0.5 0.2-1 0.4-1.4 0.6 -0.3 0.2-0.7 0.3-1 0.5l-0.5 0.2c-0.4 0.2-0.8 0.4-1.3 0.6 -0.4 0.2-0.7 0.4-1.1 0.5l-0.6 0.3c-0.3 0.2-0.7 0.3-1 0.5 -0.4 0.2-0.9 0.5-1.3 0.7l-0.3 0.2c-0.3 0.2-0.7 0.4-1 0.6 -0.4 0.2-0.8 0.4-1.2 0.7l-0.3 0.2c-0.4 0.2-0.8 0.4-1.2 0.7 -0.4 0.3-0.9 0.5-1.3 0.8 -0.4 0.3-0.9 0.5-1.3 0.8 -0.4 0.3-0.9 0.5-1.3 0.8 -0.4 0.3-0.9 0.5-1.3 0.8 -0.4 0.3-0.9 0.6-1.3 0.8 -0.4 0.3-0.8 0.5-1.2 0.8 -0.4 0.3-0.8 0.6-1.2 0.9 -0.4 0.3-0.8 0.6-1.2 0.9 -0.4 0.3-0.8 0.6-1.2 0.9 -0.4 0.3-0.8 0.6-1.2 0.9 -0.4 0.3-0.8 0.6-1.2 0.9 -0.4 0.3-0.8 0.6-1.2 0.9l-0.1 0.1c-0.4 0.3-0.7 0.6-1 0.8 -0.4 0.3-0.8 0.7-1.2 1l-0.2 0.1c-0.3 0.3-0.7 0.6-1 0.8 -0.4 0.3-0.8 0.7-1.2 1l-0.3 0.3c-0.3 0.2-0.6 0.5-0.8 0.7 -0.4 0.3-0.7 0.6-1 1l-0.3 0.3c-0.3 0.3-0.6 0.5-0.8 0.8 -0.3 0.3-0.7 0.6-1 1l-0.3 0.3c-0.2 0.2-0.5 0.5-0.7 0.7 -0.1 0.1-0.1 0.1-0.2 0.2 -8.5 8.5-15.8 18.1-21.5 28.7 0 0.1-0.1 0.1-0.1 0.2 -0.1 0.2-0.2 0.3-0.3 0.5l-0.1 0.1c-0.3 0.7-0.7 1.3-1 2l-0.5 1c-0.3 0.6-0.6 1.2-0.9 1.8 -0.2 0.4-0.3 0.7-0.5 1.1 -0.3 0.6-0.6 1.2-0.8 1.8l-0.1 0.2c-0.1 0.3-0.3 0.6-0.4 0.9 -0.3 0.6-0.5 1.2-0.8 1.8 -0.2 0.4-0.3 0.8-0.5 1.1 -0.3 0.6-0.5 1.3-0.7 1.9l-0.1 0.2c-0.1 0.3-0.2 0.6-0.3 0.9 -0.3 0.7-0.5 1.4-0.7 2.1l-0.3 1c-0.3 1-0.7 2-1 3 0 0.1 0 0.1-0.1 0.2 -0.3 1-0.6 1.9-0.9 2.9l-0.3 1.1c-0.2 0.7-0.4 1.3-0.5 2 -0.1 0.3-0.2 0.6-0.2 0.9l-0.1 0.4c-0.1 0.6-0.3 1.2-0.4 1.8 -0.1 0.4-0.2 0.7-0.2 1.1l-0.1 0.3c-0.1 0.6-0.2 1.2-0.4 1.8 -0.1 0.5-0.2 1-0.3 1.5 -0.1 0.6-0.2 1.2-0.3 1.7 -0.1 0.5-0.2 1-0.2 1.5 -0.1 0.6-0.2 1.2-0.3 1.8l0 0.3c-0.1 0.4-0.1 0.8-0.2 1.2 -0.1 0.6-0.2 1.2-0.2 1.8l0 0.2c-0.1 0.4-0.1 0.8-0.1 1.3 -0.1 0.5-0.1 1-0.1 1.5l-0.1 0.8c0 0.3-0.1 0.7-0.1 1 -0.1 0.8-0.1 1.7-0.2 2.5l0 0.2c0 0.2 0 0.4 0 0.6 -3.4 67.5 48.7 125.2 116.2 128.6 2.1 0.1 4.3 0.2 6.4 0.2 30.4 0 59.3-11.1 82-31.6 24.3-21.9 38.6-52 40.3-84.7l0-0.8c0-0.8 0.1-1.7 0.1-2.5 0-0.4 0-0.7 0-1.1l0-0.5c0-0.6 0-1.1 0-1.7C510.4 121.8 510.4 121.4 510.4 121zM380.3 164.4c1.2 0.1 2.3 0.2 3.5 0.2h8.3c1.4 0 2.8-0.1 4.2-0.2v4.9l-8.3 8.6 -7.8-7.6L380.3 164.4 380.3 164.4zM438.2 118.6c0.1-1.3 0.2-2.6 0.2-3.9v-6c0.1 0 0.2-0.1 0.3-0.1 1.1 1.2 1.8 2.9 1.8 4.8C440.5 115.6 439.6 117.5 438.2 118.6zM386 44.2h3.9c21.1 0 38.3 19.1 38.3 42.6v1.9c-11.3-3.1-15.3-20.2-15.3-20.3 -0.7-3.2-3.2-5.6-6.3-6.3 -3.2-0.6-6.4 0.8-8.2 3.5 -15 22.7-48.1 23-48.6 23 0 0 0 0 0 0 -0.6 0-1.2 0.1-1.7 0.2 0 0-0.1 0-0.1 0v-1.9C347.7 63.3 364.9 44.2 386 44.2zM335.3 113.4c0-1.9 0.7-3.6 1.8-4.8 0.1 0 0.3 0.1 0.4 0.1v6c0 1.3 0.1 2.7 0.2 4C336.2 117.6 335.3 115.6 335.3 113.4zM353.6 114.8V104.4c9.2-0.6 31.8-3.8 48.6-19 3.8 7.2 10.1 15.1 20.1 18.4v11c0 18.6-13.5 33.8-30.2 33.8h-8.3C367.2 148.5 353.6 133.4 353.6 114.8zM382.4 228.9c-22.5-1.1-43-9.2-59.6-22 0 0 0-0.1 0-0.1 4.6-11.4 14.7-15.1 15-15.2 0.1 0 0.2-0.1 0.4-0.1l28.9-11.3 15.3 14.9c1.5 1.5 3.5 2.3 5.6 2.3 0 0 0.1 0 0.1 0 2.1 0 4.2-0.9 5.7-2.5l14.5-15 28.9 11.6c0.1 0.1 0.2 0.1 0.4 0.1 0.4 0.2 10.6 3.9 15.1 15.3C433.4 221.9 408.8 230.3 382.4 228.9z" class="i"/><path d="M244.4 67.4l-48.2-48.2c-3.1-3.1-8.2-3.1-11.4 0 -3.1 3.1-3.1 8.2 0 11.4l33.2 33.2H73.4c-4.4 0-8 3.6-8 8v158.2c0 4.4 3.6 8 8 8 4.4 0 8-3.6 8-8V79.9h139.1l-35.7 35.7c-3.1 3.1-3.1 8.2 0 11.4 1.6 1.6 3.6 2.4 5.7 2.4 2.1 0 4.1-0.8 5.7-2.4l48.2-48.2c1.5-1.5 2.4-3.5 2.4-5.7S245.9 68.9 244.4 67.4z" class="i"/><path d="M438.6 270.3c-4.4 0-8 3.6-8 8V428.5H291.5l35.7-35.7c3.1-3.1 3.1-8.2 0-11.4 -3.1-3.1-8.2-3.1-11.4 0l-48.2 48.2c-1.5 1.5-2.4 3.6-2.4 5.7 0 2.1 0.8 4.2 2.4 5.7l48.2 48.2c1.6 1.6 3.6 2.4 5.7 2.4s4.1-0.8 5.7-2.4c3.1-3.1 3.1-8.2 0-11.4l-33.2-33.2H438.6c4.4 0 8-3.6 8-8V278.3C446.6 273.9 443 270.3 438.6 270.3z" class="i"/><path d="M238.7 388.7c0-0.8 0-1.6 0-2.3 0-0.4 0-0.9 0-1.3 0-0.6 0-1.2-0.1-1.8 0-0.5-0.1-0.9-0.1-1.4 0-0.6-0.1-1.1-0.1-1.7 0-0.5-0.1-0.9-0.1-1.4 -0.1-0.6-0.1-1.1-0.2-1.7 0-0.5-0.1-0.9-0.2-1.4 -0.1-0.6-0.1-1.1-0.2-1.6 -0.1-0.5-0.1-0.9-0.2-1.4 -0.1-0.6-0.2-1.1-0.3-1.7 -0.1-0.4-0.1-0.9-0.2-1.3 -0.1-0.6-0.2-1.2-0.3-1.7 -0.1-0.4-0.2-0.8-0.2-1.2 -0.1-0.6-0.3-1.3-0.4-1.9 -0.1-0.3-0.1-0.7-0.2-1 -0.2-0.9-0.4-1.9-0.7-2.8 0 0 0-0.1 0-0.1 -0.2-1-0.5-1.9-0.8-2.9 -0.1-0.3-0.2-0.6-0.3-0.9 -0.2-0.7-0.4-1.3-0.6-2 -0.1-0.3-0.2-0.7-0.3-1 -0.2-0.6-0.4-1.2-0.6-1.8 -0.1-0.4-0.3-0.7-0.4-1.1 -0.2-0.6-0.4-1.2-0.6-1.7 -0.1-0.4-0.3-0.7-0.4-1.1 -0.2-0.6-0.5-1.2-0.7-1.7 -0.1-0.3-0.3-0.7-0.4-1 -0.2-0.6-0.5-1.2-0.8-1.8 -0.1-0.3-0.3-0.6-0.4-0.9 -0.3-0.6-0.6-1.3-0.9-1.9 -0.1-0.2-0.2-0.4-0.3-0.6l0 0c-4.9-10.3-11.3-19.8-18.9-28.1l0 0c-0.3-0.3-0.5-0.6-0.8-0.9 -0.3-0.4-0.7-0.7-1-1.1 -0.3-0.3-0.6-0.7-1-1 -0.3-0.3-0.7-0.7-1-1 -0.3-0.3-0.7-0.7-1-1 -0.3-0.3-0.7-0.7-1-1 -0.3-0.3-0.7-0.6-1-1 -0.3-0.3-0.7-0.6-1-1 -0.4-0.3-0.7-0.6-1.1-0.9 -0.3-0.3-0.7-0.6-1.1-0.9 -0.4-0.3-0.7-0.6-1.1-0.9 -0.4-0.3-0.7-0.6-1.1-0.9 -0.4-0.3-0.7-0.6-1.1-0.9 -0.4-0.3-0.7-0.6-1.1-0.9 -0.4-0.3-0.8-0.6-1.1-0.9 -0.4-0.3-0.7-0.6-1.1-0.8 -0.4-0.3-0.8-0.6-1.2-0.8 -0.4-0.3-0.8-0.5-1.1-0.8 -0.4-0.3-0.8-0.5-1.2-0.8 -0.4-0.3-0.8-0.5-1.2-0.8 -0.4-0.3-0.8-0.5-1.2-0.8 -0.4-0.3-0.8-0.5-1.2-0.8 -0.4-0.3-0.8-0.5-1.2-0.8 -0.4-0.2-0.8-0.5-1.2-0.7 -0.4-0.2-0.8-0.5-1.2-0.7 -0.4-0.2-0.8-0.5-1.3-0.7 -0.4-0.2-0.8-0.5-1.2-0.7 -0.4-0.2-0.9-0.5-1.3-0.7 -0.4-0.2-0.8-0.4-1.2-0.6 -0.5-0.3-1-0.5-1.5-0.8 -0.6-0.3-1.1-0.6-1.7-0.8 -0.6-0.3-1.2-0.6-1.8-0.9 -0.4-0.2-0.8-0.3-1.2-0.5 -0.5-0.2-1-0.4-1.5-0.6 -0.4-0.2-0.8-0.3-1.2-0.5 -0.5-0.2-0.9-0.4-1.4-0.6 -0.4-0.2-0.9-0.3-1.3-0.5 -0.5-0.2-0.9-0.4-1.4-0.5 -0.4-0.2-0.9-0.3-1.3-0.5 -0.5-0.2-0.9-0.3-1.4-0.5 -0.4-0.1-0.9-0.3-1.3-0.4 -0.5-0.2-1-0.3-1.4-0.5 -0.4-0.1-0.9-0.3-1.3-0.4 -0.5-0.1-1-0.3-1.4-0.4 -0.4-0.1-0.9-0.2-1.4-0.4 -0.5-0.1-1-0.3-1.5-0.4 -0.5-0.1-0.9-0.2-1.4-0.3 -0.5-0.1-1-0.2-1.5-0.3 -0.5-0.1-0.9-0.2-1.4-0.3 -0.5-0.1-1-0.2-1.5-0.3 -0.5-0.1-0.9-0.2-1.4-0.3 -0.5-0.1-1-0.2-1.5-0.3 -0.5-0.1-0.9-0.2-1.4-0.2 -0.5-0.1-1-0.2-1.6-0.2 -0.5-0.1-0.9-0.1-1.4-0.2 -0.5-0.1-1.1-0.1-1.6-0.2 -0.4-0.1-0.9-0.1-1.3-0.2 -0.6-0.1-1.1-0.1-1.7-0.2 -0.4 0-0.9-0.1-1.3-0.1 -0.6 0-1.2-0.1-1.8-0.1 -0.4 0-0.8-0.1-1.2-0.1 -0.7 0-1.3-0.1-2-0.1 -0.3 0-0.7 0-1 0 -1 0-2 0-3 0 0 0 0 0 0 0h0 0c0 0 0 0 0 0 -1 0-2 0-3 0 -0.3 0-0.7 0-1 0 -0.7 0-1.3 0-2 0.1 -0.4 0-0.8 0.1-1.2 0.1 -0.6 0-1.2 0.1-1.8 0.1 -0.4 0-0.9 0.1-1.3 0.1 -0.6 0.1-1.1 0.1-1.7 0.2 -0.4 0-0.9 0.1-1.3 0.2 -0.5 0.1-1.1 0.1-1.6 0.2 -0.5 0.1-0.9 0.1-1.4 0.2 -0.5 0.1-1.1 0.2-1.6 0.2 -0.5 0.1-0.9 0.2-1.4 0.2 -0.5 0.1-1 0.2-1.5 0.3 -0.5 0.1-0.9 0.2-1.4 0.3 -0.5 0.1-1 0.2-1.5 0.3 -0.5 0.1-0.9 0.2-1.4 0.3 -0.5 0.1-1 0.2-1.5 0.3 -0.5 0.1-0.9 0.2-1.4 0.3 -0.5 0.1-1 0.3-1.5 0.4 -0.5 0.1-0.9 0.2-1.4 0.4 -0.5 0.1-1 0.3-1.4 0.4 -0.4 0.1-0.9 0.3-1.3 0.4 -0.5 0.1-1 0.3-1.4 0.5 -0.4 0.1-0.9 0.3-1.3 0.4 -0.5 0.2-1 0.3-1.4 0.5 -0.4 0.2-0.9 0.3-1.3 0.5 -0.5 0.2-0.9 0.4-1.4 0.5 -0.4 0.2-0.9 0.3-1.3 0.5 -0.5 0.2-1 0.4-1.4 0.6 -0.4 0.2-0.8 0.3-1.2 0.5 -0.5 0.2-1 0.4-1.5 0.6 -0.4 0.2-0.8 0.3-1.2 0.5 -0.6 0.3-1.2 0.6-1.8 0.9 -0.6 0.3-1.2 0.6-1.7 0.8 -0.5 0.3-1 0.5-1.5 0.8 -0.4 0.2-0.8 0.4-1.2 0.6 -0.4 0.2-0.9 0.5-1.3 0.7 -0.4 0.2-0.8 0.5-1.2 0.7 -0.4 0.2-0.8 0.5-1.3 0.7 -0.4 0.2-0.8 0.5-1.2 0.7 -0.4 0.2-0.8 0.5-1.2 0.7 -0.4 0.3-0.8 0.5-1.2 0.8 -0.4 0.3-0.8 0.5-1.2 0.8 -0.4 0.3-0.8 0.5-1.2 0.8 -0.4 0.3-0.8 0.5-1.2 0.8 -0.4 0.3-0.8 0.5-1.2 0.8 -0.4 0.3-0.8 0.5-1.1 0.8 -0.4 0.3-0.8 0.6-1.2 0.8 -0.4 0.3-0.7 0.6-1.1 0.8 -0.4 0.3-0.8 0.6-1.1 0.9 -0.4 0.3-0.7 0.6-1.1 0.9 -0.4 0.3-0.7 0.6-1.1 0.9 -0.4 0.3-0.7 0.6-1.1 0.9 -0.4 0.3-0.7 0.6-1.1 0.9 -0.4 0.3-0.7 0.6-1.1 0.9 -0.4 0.3-0.7 0.6-1.1 1 -0.3 0.3-0.7 0.6-1 1 -0.3 0.3-0.7 0.6-1 1 -0.3 0.3-0.7 0.7-1 1 -0.3 0.3-0.7 0.7-1 1 -0.3 0.3-0.7 0.7-1 1 -0.3 0.3-0.6 0.7-1 1 -0.3 0.4-0.7 0.7-1 1.1 -0.3 0.3-0.5 0.6-0.8 0.9l0 0c-7.6 8.3-14 17.8-18.9 28.1l0 0c-0.1 0.2-0.2 0.4-0.3 0.6 -0.3 0.6-0.6 1.3-0.9 1.9 -0.1 0.3-0.3 0.6-0.4 0.9 -0.3 0.6-0.5 1.2-0.8 1.8 -0.1 0.3-0.3 0.7-0.4 1 -0.2 0.6-0.5 1.2-0.7 1.7 -0.1 0.4-0.3 0.7-0.4 1.1 -0.2 0.6-0.4 1.2-0.6 1.7 -0.1 0.4-0.3 0.7-0.4 1.1 -0.2 0.6-0.4 1.2-0.6 1.8 -0.1 0.3-0.2 0.7-0.3 1 -0.2 0.7-0.4 1.3-0.6 2 -0.1 0.3-0.2 0.6-0.3 0.9 -0.3 1-0.5 1.9-0.8 2.9 0 0 0 0.1 0 0.1 -0.2 0.9-0.5 1.9-0.7 2.8 -0.1 0.3-0.2 0.7-0.2 1 -0.1 0.6-0.3 1.3-0.4 1.9 -0.1 0.4-0.2 0.8-0.2 1.2 -0.1 0.6-0.2 1.2-0.3 1.7 -0.1 0.4-0.1 0.9-0.2 1.3 -0.1 0.6-0.2 1.1-0.3 1.7 -0.1 0.5-0.1 0.9-0.2 1.4 -0.1 0.6-0.1 1.1-0.2 1.7 -0.1 0.5-0.1 0.9-0.2 1.4 -0.1 0.6-0.1 1.1-0.2 1.7 0 0.5-0.1 0.9-0.1 1.4 0 0.6-0.1 1.1-0.1 1.7 0 0.5-0.1 0.9-0.1 1.4 0 0.6-0.1 1.2-0.1 1.8 0 0.4 0 0.9 0 1.3 0 0.8 0 1.6 0 2.3 0 0.2 0 0.5 0 0.7 0 63.3 51.3 114.5 114.5 114.5h0 0c63.3 0 114.5-51.3 114.5-114.5C238.7 389.2 238.7 388.9 238.7 388.7z" class="a"/><path d="M28.9 389.4c0-0.2 0-0.5 0-0.7 0-0.8 0-1.6 0-2.3 0-0.4 0-0.9 0.1-1.3 0-0.6 0-1.2 0.1-1.8 0-0.5 0.1-0.9 0.1-1.4 0-0.6 0.1-1.1 0.1-1.7 0-0.5 0.1-0.9 0.1-1.4 0.1-0.6 0.1-1.1 0.2-1.7 0.1-0.5 0.1-0.9 0.2-1.4 0.1-0.6 0.1-1.1 0.2-1.7 0.1-0.5 0.1-0.9 0.2-1.4 0.1-0.6 0.2-1.1 0.3-1.7 0.1-0.4 0.1-0.9 0.2-1.3 0.1-0.6 0.2-1.2 0.3-1.7 0.1-0.4 0.2-0.8 0.2-1.2 0.1-0.6 0.3-1.3 0.4-1.9 0.1-0.3 0.1-0.7 0.2-1 0.2-0.9 0.4-1.9 0.7-2.8 0 0 0-0.1 0-0.1 0.2-1 0.5-1.9 0.8-2.9 0.1-0.3 0.2-0.6 0.3-0.9 0.2-0.7 0.4-1.3 0.6-2 0.1-0.3 0.2-0.7 0.3-1 0.2-0.6 0.4-1.2 0.6-1.8 0.1-0.4 0.3-0.7 0.4-1.1 0.2-0.6 0.4-1.2 0.6-1.7 0.1-0.4 0.3-0.7 0.4-1.1 0.2-0.6 0.5-1.2 0.7-1.7 0.1-0.3 0.3-0.7 0.4-1 0.2-0.6 0.5-1.2 0.8-1.8 0.1-0.3 0.3-0.6 0.4-0.9 0.3-0.6 0.6-1.3 0.9-1.9 0.1-0.2 0.2-0.4 0.3-0.6l0 0c4.9-10.3 11.3-19.8 18.9-28.1l0 0c0.3-0.3 0.5-0.6 0.8-0.9 0.3-0.4 0.7-0.7 1-1.1 0.3-0.3 0.6-0.7 1-1 0.3-0.3 0.7-0.7 1-1 0.3-0.3 0.7-0.7 1-1 0.3-0.3 0.7-0.7 1-1 0.3-0.3 0.7-0.6 1-1 0.3-0.3 0.7-0.6 1-1 0.4-0.3 0.7-0.6 1.1-0.9 0.3-0.3 0.7-0.6 1.1-0.9 0.4-0.3 0.7-0.6 1.1-0.9 0.4-0.3 0.7-0.6 1.1-0.9 0.4-0.3 0.7-0.6 1.1-0.9 0.4-0.3 0.7-0.6 1.1-0.9 0.4-0.3 0.8-0.6 1.1-0.9 0.4-0.3 0.7-0.6 1.1-0.8 0.4-0.3 0.8-0.6 1.2-0.8 0.4-0.3 0.8-0.5 1.1-0.8 0.4-0.3 0.8-0.5 1.2-0.8 0.4-0.3 0.8-0.5 1.2-0.8 0.4-0.3 0.8-0.5 1.2-0.8 0.4-0.3 0.8-0.5 1.2-0.8 0.4-0.3 0.8-0.5 1.2-0.8 0.4-0.2 0.8-0.5 1.2-0.7 0.4-0.2 0.8-0.5 1.2-0.7 0.4-0.2 0.8-0.5 1.3-0.7 0.4-0.2 0.8-0.5 1.2-0.7 0.4-0.2 0.9-0.5 1.3-0.7 0.4-0.2 0.8-0.4 1.2-0.6 0.5-0.3 1-0.5 1.5-0.8 0.6-0.3 1.1-0.6 1.7-0.8 0.6-0.3 1.2-0.6 1.8-0.9 0.4-0.2 0.8-0.3 1.2-0.5 0.5-0.2 1-0.4 1.5-0.6 0.4-0.2 0.8-0.3 1.2-0.5 0.5-0.2 0.9-0.4 1.4-0.6 0.4-0.2 0.9-0.3 1.3-0.5 0.5-0.2 0.9-0.4 1.4-0.5 0.4-0.2 0.9-0.3 1.3-0.5 0.5-0.2 1-0.3 1.4-0.5 0.4-0.1 0.9-0.3 1.3-0.4 0.5-0.2 1-0.3 1.4-0.5 0.4-0.1 0.9-0.3 1.3-0.4 0.5-0.1 1-0.3 1.5-0.4 0.5-0.1 0.9-0.2 1.4-0.4 0.5-0.1 1-0.3 1.5-0.4 0.5-0.1 0.9-0.2 1.4-0.3 0.5-0.1 1-0.2 1.5-0.3 0.5-0.1 0.9-0.2 1.4-0.3 0.5-0.1 1-0.2 1.5-0.3 0.5-0.1 0.9-0.2 1.4-0.3 0.5-0.1 1-0.2 1.5-0.3 0.5-0.1 0.9-0.2 1.4-0.2 0.5-0.1 1-0.2 1.6-0.2 0.5-0.1 0.9-0.1 1.4-0.2 0.5-0.1 1.1-0.1 1.6-0.2 0.4-0.1 0.9-0.1 1.3-0.2 0.6-0.1 1.1-0.1 1.7-0.2 0.2 0 0.5 0 0.7-0.1 -0.2 0-0.4 0-0.6 0 -0.6 0-1.2-0.1-1.8-0.1 -0.4 0-0.8-0.1-1.2-0.1 -0.7 0-1.3-0.1-2-0.1 -0.3 0-0.7 0-1 0 -1 0-2 0-3 0 0 0 0 0 0 0h0 0c0 0 0 0 0 0 -1 0-2 0-3 0 -0.3 0-0.7 0-1 0 -0.7 0-1.3 0-2 0.1 -0.4 0-0.8 0.1-1.2 0.1 -0.6 0-1.2 0.1-1.8 0.1 -0.4 0-0.9 0.1-1.3 0.1 -0.6 0.1-1.1 0.1-1.7 0.2 -0.4 0-0.9 0.1-1.3 0.2 -0.5 0.1-1.1 0.1-1.6 0.2 -0.5 0.1-0.9 0.1-1.4 0.2 -0.5 0.1-1.1 0.2-1.6 0.2 -0.5 0.1-0.9 0.2-1.4 0.2 -0.5 0.1-1 0.2-1.5 0.3 -0.5 0.1-0.9 0.2-1.4 0.3 -0.5 0.1-1 0.2-1.5 0.3 -0.5 0.1-0.9 0.2-1.4 0.3 -0.5 0.1-1 0.2-1.5 0.3 -0.5 0.1-0.9 0.2-1.4 0.3 -0.5 0.1-1 0.3-1.5 0.4 -0.5 0.1-0.9 0.2-1.4 0.4 -0.5 0.1-1 0.3-1.4 0.4 -0.4 0.1-0.9 0.3-1.3 0.4 -0.5 0.1-1 0.3-1.4 0.5 -0.4 0.1-0.9 0.3-1.3 0.4 -0.5 0.2-1 0.3-1.4 0.5 -0.4 0.2-0.9 0.3-1.3 0.5 -0.5 0.2-0.9 0.4-1.4 0.5 -0.4 0.2-0.9 0.3-1.3 0.5 -0.5 0.2-1 0.4-1.4 0.6 -0.4 0.2-0.8 0.3-1.2 0.5 -0.5 0.2-1 0.4-1.5 0.6 -0.4 0.2-0.8 0.3-1.2 0.5 -0.6 0.3-1.2 0.6-1.8 0.9 -0.6 0.3-1.2 0.6-1.7 0.8 -0.5 0.3-1 0.5-1.5 0.8 -0.4 0.2-0.8 0.4-1.2 0.6 -0.4 0.2-0.9 0.5-1.3 0.7 -0.4 0.2-0.8 0.5-1.2 0.7 -0.4 0.2-0.8 0.5-1.3 0.7 -0.4 0.2-0.8 0.5-1.2 0.7 -0.4 0.2-0.8 0.5-1.2 0.7 -0.4 0.3-0.8 0.5-1.2 0.8 -0.4 0.3-0.8 0.5-1.2 0.8 -0.4 0.3-0.8 0.5-1.2 0.8 -0.4 0.3-0.8 0.5-1.2 0.8 -0.4 0.3-0.8 0.5-1.2 0.8 -0.4 0.3-0.8 0.5-1.1 0.8 -0.4 0.3-0.8 0.6-1.2 0.8 -0.4 0.3-0.7 0.6-1.1 0.8 -0.4 0.3-0.8 0.6-1.1 0.9 -0.4 0.3-0.7 0.6-1.1 0.9 -0.4 0.3-0.7 0.6-1.1 0.9 -0.4 0.3-0.7 0.6-1.1 0.9 -0.4 0.3-0.7 0.6-1.1 0.9 -0.4 0.3-0.7 0.6-1.1 0.9 -0.4 0.3-0.7 0.6-1.1 1 -0.3 0.3-0.7 0.6-1 1 -0.3 0.3-0.7 0.6-1 1 -0.3 0.3-0.7 0.7-1 1 -0.3 0.3-0.7 0.7-1 1 -0.3 0.3-0.7 0.7-1 1 -0.3 0.3-0.6 0.7-1 1 -0.3 0.4-0.7 0.7-1 1.1 -0.3 0.3-0.5 0.6-0.8 0.9l0 0c-7.6 8.3-14 17.8-18.9 28.1l0 0c-0.1 0.2-0.2 0.4-0.3 0.6 -0.3 0.6-0.6 1.3-0.9 1.9 -0.1 0.3-0.3 0.6-0.4 0.9 -0.3 0.6-0.5 1.2-0.8 1.8 -0.1 0.3-0.3 0.7-0.4 1 -0.2 0.6-0.5 1.2-0.7 1.7 -0.1 0.4-0.3 0.7-0.4 1.1 -0.2 0.6-0.4 1.2-0.6 1.7 -0.1 0.4-0.3 0.7-0.4 1.1 -0.2 0.6-0.4 1.2-0.6 1.8 -0.1 0.3-0.2 0.7-0.3 1 -0.2 0.7-0.4 1.3-0.6 2 -0.1 0.3-0.2 0.6-0.3 0.9 -0.3 1-0.5 1.9-0.8 2.9 0 0 0 0.1 0 0.1 -0.2 0.9-0.5 1.9-0.7 2.8 -0.1 0.3-0.2 0.7-0.2 1 -0.1 0.6-0.3 1.3-0.4 1.9 -0.1 0.4-0.2 0.8-0.2 1.2 -0.1 0.6-0.2 1.2-0.3 1.7 -0.1 0.4-0.1 0.9-0.2 1.3 -0.1 0.6-0.2 1.1-0.3 1.7 -0.1 0.5-0.1 0.9-0.2 1.4 -0.1 0.6-0.1 1.1-0.2 1.7 -0.1 0.5-0.1 0.9-0.2 1.4 -0.1 0.6-0.1 1.1-0.2 1.7 0 0.5-0.1 0.9-0.1 1.4 0 0.6-0.1 1.1-0.1 1.7 0 0.5-0.1 0.9-0.1 1.4 0 0.6-0.1 1.2-0.1 1.8 0 0.4 0 0.9 0 1.3 0 0.8 0 1.6 0 2.3 0 0.2 0 0.5 0 0.7 0 63.3 51.3 114.5 114.5 114.5h0 0c3.2 0 6.5-0.1 9.6-0.4C75.1 498.7 28.9 449.4 28.9 389.4z" class="b"/><path d="M126.7 306.7h-4.3c-25.3 0-45.8 20.5-45.8 45.8v14.1l4-1.4c0.6-0.2 1.3-0.3 2-0.3 0.4 0 38.5-0.3 55.7-24.1 1.4-1.9 3.8-2.9 6.1-2.4 2.3 0.5 4.2 2.3 4.7 4.6 0.2 0.8 4.7 18.8 19 22 0.2 0 0.3 0.1 0.5 0.1l3.9 1.2V352.5C172.5 327.2 151.9 306.7 126.7 306.7z" class="c"/><path d="M129.1 428.6h-9.1c-1.1 0-2.2 0-3.6-0.1l-2.8-0.2v10.2l10.7 10.4 11.1-11.5v-9.1l-2.8 0.2C131.4 428.6 130.2 428.6 129.1 428.6z" class="d"/><path d="M181.4 368.9h-15.7v-5.7l-3.5 1.2c-0.9 0.3-1.9 0.4-2.9 0.2 -8-1.8-14.5-6.9-19.3-15.1l-1.5-2.6 -2.4 2c-18.9 15.8-46.3 16-47.5 16l-0.2 0c-0.6 0-1.1-0.1-1.7-0.3l-3.5-1.2v5.7H67.2v18.8h16.8c2.9 17.3 18 30.5 36.1 30.5h9.1c18.1 0 33.2-13.2 36.1-30.5h16.2V368.9H181.4z" class="d"/><path d="M191.5 471.9c-5.2-12-16-16-16.6-16.2 -0.1 0-0.1 0-0.2-0.1l-30.7-12.3 -15.8 16.4c-0.9 1-2.3 1.6-3.7 1.6 -1.4 0-2.6-0.5-3.6-1.5l-16.7-16.2 -30.7 12c-0.1 0-0.1 0.1-0.3 0.1 -0.5 0.2-11.3 4.2-16.4 16.1l-0.8 1.8 1.5 1.2c18.8 15.3 42.4 23.7 66.5 23.7 24.2 0 47.8-8.4 66.6-23.7l1.5-1.2L191.5 471.9z" class="e"/><path d="M91.1 352.5c0-23.5 17.8-43 40.7-45.5 -1.7-0.2-3.4-0.3-5.1-0.3h-4.3c-25.3 0-45.8 20.5-45.8 45.8v14.1l4-1.4c0.6-0.2 1.3-0.3 2-0.3 0.1 0 3.5 0 8.6-0.7C91.1 364.2 91.1 352.5 91.1 352.5z" class="f"/><path d="M132.5 428.6h3v-0.4l-2.8 0.2c-0.7 0.1-1.3 0.1-1.9 0.1C131.4 428.6 132 428.6 132.5 428.6z" class="g"/><path d="M126.2 438.4v-9.8h-6.1c-1.1 0-2.2 0-3.6-0.1l-2.8-0.2v10.2l10.7 10.4 6-6.2L126.2 438.4z" class="g"/><path d="M99.4 368.6c0.6 0.2 1.2 0.3 1.8 0.3l0.2 0c1.1 0 24.4-0.2 43.5-12.2 -0.9-1.2-1.8-2.5-2.6-3.9l-1.6-2.8 -2.5 2.1c-13 10.8-29.7 14.7-40.1 16L99.4 368.6z" class="g"/><path d="M95.9 381.6v-13.1c-4.1 0.4-6.7 0.5-7.1 0.5l-0.2 0c-0.6 0-1.1-0.1-1.7-0.3l-3.5-1.2v14.2c0 20.2 16.4 36.6 36.6 36.6h9.1c0.6 0 1.1 0 1.7 0C111.4 417.3 95.9 401.2 95.9 381.6z" class="g"/><path d="M70.1 474.9l-1.5-1.2 0.8-1.8c5.2-12 16-16 16.4-16.1 0.1 0 0.2-0.1 0.3-0.1l21.8-8.5 -3.6-3.5L73.6 455.7c-0.1 0-0.1 0.1-0.3 0.1 -0.5 0.2-11.3 4.2-16.4 16.1l-0.8 1.8 1.5 1.2c18.8 15.3 42.4 23.7 66.5 23.7 2.1 0 4.1-0.1 6.2-0.2C108.4 497.1 87.2 488.9 70.1 474.9z" class="h"/><path d="M139.2 267.8c-67.1-8.3-128.4 39.5-136.7 106.7l-0.1 0.8c-0.1 0.8-0.2 1.6-0.3 2.5 0 0.4-0.1 0.7-0.1 1.1l0 0.6c0 0.6-0.1 1.1-0.1 1.6 0 0.4-0.1 0.9-0.1 1.3l0 0.2c0 0.6-0.1 1.2-0.1 1.9l-0.1 1.8c0 0.5 0 1 0 1.5 0 0.5 0 1 0 1.5 0 0.6 0 1.2 0 1.8 0 0.5 0 1 0 1.5 0 0.6 0 1.2 0.1 1.8 0 0.5 0 0.9 0.1 1.4 0 0.6 0.1 1.3 0.1 1.9l0 0.3c0 0.3 0 0.7 0.1 1 0.1 0.7 0.1 1.4 0.2 2.1l0.1 1.2c0.1 1 0.2 2 0.4 3 0 0 0 0.1 0 0.1 0.1 1.1 0.3 2.1 0.5 3.2l0.2 1c0.1 0.7 0.2 1.5 0.4 2.2 0.1 0.3 0.1 0.6 0.2 0.9l0 0.2c0.1 0.7 0.3 1.3 0.4 2 0.1 0.4 0.2 0.8 0.3 1.2 0.1 0.7 0.3 1.3 0.4 1.9l0.3 1.2c0.2 0.6 0.3 1.3 0.5 1.9 0.1 0.4 0.2 0.8 0.3 1.1 0.2 0.7 0.4 1.3 0.6 2l0.3 1c0.2 0.7 0.4 1.4 0.7 2.2l0.2 0.6c0 0.1 0.1 0.2 0.1 0.3 1.5 4.6 3.4 9.1 5.4 13.5 1.9 4 6.7 5.7 10.7 3.8 4-1.9 5.7-6.7 3.8-10.7 -1.8-3.9-3.4-7.9-4.8-11.9 0-0.1 0-0.1-0.1-0.2l-0.1-0.4c-0.2-0.6-0.4-1.2-0.6-1.9l-0.3-0.9c-0.2-0.6-0.3-1.1-0.5-1.8 -0.1-0.3-0.2-0.6-0.3-0.9 -0.1-0.6-0.3-1.1-0.4-1.6l-0.3-1.1c-0.1-0.5-0.3-1.1-0.4-1.7 -0.1-0.3-0.1-0.7-0.2-1 -0.1-0.6-0.2-1.1-0.3-1.7l-0.2-1c-0.1-0.6-0.2-1.2-0.3-1.9l-0.1-0.8c-0.1-0.9-0.3-1.8-0.4-2.7 0 0 0-0.1 0-0.1 -0.1-0.9-0.2-1.8-0.3-2.6l-0.1-1.1c-0.1-0.6-0.1-1.2-0.2-1.8 0-0.3 0-0.5-0.1-0.8l0-0.3c0-0.5-0.1-1.1-0.1-1.6 0-0.4 0-0.8-0.1-1.3 0-0.5 0-1.1 0-1.6 0-0.4 0-0.9 0-1.3 0-0.5 0-1 0-1.5 0-0.4 0-0.9 0-1.3 0-0.5 0-0.9 0-1.4l0.1-1.5c0-0.5 0.1-1 0.1-1.6l0-0.2c0-0.3 0-0.7 0.1-1 0-0.5 0.1-0.9 0.1-1.4l0.1-1.5c0.1-0.7 0.2-1.5 0.2-2.2l0.1-0.7c7.2-58.3 60.5-99.8 118.8-92.6 58.3 7.2 99.8 60.5 92.6 118.8l-0.1 0.6c-0.1 0.7-0.2 1.5-0.3 2.2 0 0.3-0.1 0.5-0.1 0.8l-0.1 0.8c-0.1 0.4-0.1 0.9-0.2 1.3 -0.1 0.3-0.1 0.7-0.2 1l-0.1 0.3c-0.1 0.5-0.2 1-0.3 1.5l-0.3 1.3c-0.1 0.5-0.2 1-0.3 1.5 -0.1 0.4-0.2 0.8-0.3 1.3 -0.1 0.5-0.3 1-0.4 1.5 -0.1 0.4-0.2 0.8-0.3 1.3 -0.1 0.5-0.3 1-0.4 1.5l-0.1 0.3c-0.1 0.3-0.2 0.6-0.3 0.9 -0.1 0.5-0.3 0.9-0.4 1.4l-0.4 1.3c-0.2 0.6-0.4 1.1-0.6 1.7l-0.3 0.9c-0.3 0.8-0.6 1.7-0.9 2.5l0 0.1c0 0 0 0 0 0.1 -0.3 0.9-0.7 1.7-1 2.5l-0.4 0.8c-0.3 0.6-0.5 1.2-0.8 1.8 -0.1 0.3-0.3 0.6-0.4 0.9 -0.2 0.5-0.5 1.1-0.8 1.6 -0.2 0.3-0.3 0.6-0.5 1 -0.3 0.5-0.5 1-0.8 1.6 -0.1 0.2-0.2 0.5-0.4 0.7l-0.1 0.2c-0.3 0.5-0.5 1-0.8 1.5 -0.2 0.3-0.3 0.6-0.5 0.9 -0.3 0.5-0.6 1-0.9 1.5l-0.5 0.8c-0.3 0.6-0.7 1.1-1 1.7l-0.2 0.4c0 0-0.1 0.1-0.1 0.1 -3.6 5.7-7.8 11.1-12.5 16 -7.6-13.4-19.9-18.4-22.1-19.2l-30.8-12.3v-4.6c9.5-5 17.2-13.4 21.6-23.8 0.4 0.1 0.7 0.1 1.1 0.1 11.8 0 21.4-10.1 21.4-22.4 0-9-5.1-16.8-12.5-20.3v-6.3c0-32.3-24.4-58.7-54.3-58.7h-3.9c-30 0-54.3 26.3-54.3 58.7v6.3c-7.3 3.6-12.4 11.3-12.4 20.3 0 12.4 9.6 22.4 21.4 22.4 0.4 0 0.8 0 1.2-0.1 4.6 10.6 12.5 19.2 22.3 24.1v4.2l-31.6 12.4c-2.1 0.8-14.5 5.8-22.1 19.3 -0.1-0.1-0.3-0.3-0.4-0.4 -0.3-0.3-0.6-0.6-0.9-1 -0.3-0.3-0.6-0.6-0.9-1l-0.9-1c-0.3-0.3-0.6-0.6-0.8-1 -0.3-0.3-0.6-0.7-0.8-1l-0.8-1c-2.8-3.5-7.8-4-11.3-1.2 -3.5 2.8-4 7.8-1.2 11.3l0.2 0.2c0.2 0.3 0.5 0.6 0.8 1 0.3 0.4 0.6 0.8 1 1.1 0.3 0.4 0.7 0.8 1 1.2 0.3 0.3 0.5 0.6 0.8 0.9l0.2 0.3c0.3 0.4 0.7 0.7 1 1.1 0.3 0.4 0.7 0.8 1 1.1 0.3 0.4 0.7 0.7 1 1.1 0.4 0.4 0.7 0.7 1.1 1.2 0.3 0.3 0.7 0.7 1 1 0.4 0.4 0.7 0.7 1.1 1.1 0.4 0.3 0.7 0.7 1.1 1 0.4 0.4 0.8 0.7 1.1 1.1 0.4 0.3 0.7 0.7 1.1 1l0.1 0.1c0.3 0.3 0.7 0.6 1 0.9 0.3 0.3 0.7 0.6 1 0.9l0.2 0.1c0.4 0.3 0.8 0.7 1.2 1 0.3 0.3 0.7 0.5 1 0.8l0.2 0.2c0.4 0.3 0.8 0.6 1.2 0.9 0.4 0.3 0.8 0.6 1.2 0.9l0.2 0.2c0.3 0.3 0.7 0.5 1 0.8 0.3 0.2 0.6 0.5 0.9 0.7l0.5 0.4c0.3 0.2 0.7 0.5 1 0.7 0.4 0.3 0.7 0.5 1.1 0.8l0.5 0.3c0.3 0.2 0.6 0.4 0.9 0.6 0.4 0.3 0.9 0.6 1.3 0.9l0.2 0.1c0.6 0.4 1.2 0.8 1.7 1.1 0.6 0.4 1.2 0.8 1.9 1.2 0.3 0.2 0.6 0.3 0.9 0.5l0.6 0.4c0.4 0.2 0.8 0.5 1.1 0.7 0.3 0.2 0.6 0.3 0.9 0.5l0.6 0.3c0.4 0.2 0.8 0.5 1.3 0.7 0.3 0.2 0.6 0.3 0.9 0.5l0.4 0.2c0.5 0.3 1 0.5 1.5 0.8 0.3 0.2 0.7 0.3 1 0.5l0.6 0.3c0.4 0.2 0.7 0.4 1.1 0.6 0.4 0.2 0.9 0.4 1.3 0.6 0.5 0.2 1 0.5 1.5 0.7 0.5 0.2 0.9 0.4 1.4 0.6 0.5 0.2 1 0.4 1.5 0.6 0.5 0.2 0.9 0.4 1.4 0.6 0.5 0.2 1 0.4 1.5 0.6 0.5 0.2 0.9 0.4 1.4 0.5 0.5 0.2 1 0.4 1.6 0.6l1.4 0.5c0.5 0.2 1 0.4 1.6 0.5 0.5 0.2 0.9 0.3 1.4 0.5 0.5 0.2 1 0.3 1.6 0.5 0.5 0.1 0.9 0.3 1.4 0.4 0.5 0.2 1.1 0.3 1.7 0.5l0.3 0.1c0.4 0.1 0.8 0.2 1.1 0.3 0.5 0.1 1.1 0.3 1.7 0.4l0.2 0c0.4 0.1 0.8 0.2 1.2 0.3 0.5 0.1 0.9 0.2 1.4 0.3l0.7 0.2c0.3 0.1 0.7 0.1 1 0.2 0.5 0.1 1.1 0.2 1.6 0.3l1.5 0.3c0.6 0.1 1.1 0.2 1.7 0.3l0.8 0.1c0.2 0 0.5 0.1 0.7 0.1 1 0.2 2 0.3 3.1 0.4 0 0 0 0 0 0 0.1 0 0.2 0 0.3 0 1 0.1 2 0.2 3 0.3 0.2 0 0.5 0 0.7 0.1l0.7 0.1c0.6 0.1 1.2 0.1 1.8 0.1 0.3 0 0.6 0 0.9 0.1l0.7 0c0.5 0 1.1 0.1 1.6 0.1 0.3 0 0.7 0 1 0l0.8 0c0.5 0 0.9 0 1.4 0 0.4 0 0.9 0 1.3 0l0.1 0c0.4 0 0.8 0 1.2 0 0.2 0 0.4 0 0.6 0 0.4 0 0.9 0 1.3 0l0.2 0c0.6 0 1.1 0 1.7 0 0.4 0 0.9 0 1.3-0.1l0.2 0c0.6 0 1.1-0.1 1.6-0.1 0.5 0 0.9-0.1 1.4-0.1l0.2 0c0.6 0 1.1-0.1 1.7-0.1 0.5 0 1-0.1 1.5-0.1 0.6-0.1 1.1-0.1 1.7-0.2l1.5-0.2c0.5-0.1 1.1-0.1 1.6-0.2 0.5-0.1 1-0.1 1.5-0.2 0.5-0.1 1.1-0.2 1.6-0.2 0.5-0.1 1-0.2 1.5-0.3 0.5-0.1 1.1-0.2 1.6-0.3 0.5-0.1 1-0.2 1.5-0.3 0.5-0.1 1-0.2 1.6-0.3l0.4-0.1c0.3-0.1 0.7-0.2 1.1-0.2 0.4-0.1 0.8-0.2 1.2-0.3l0.8-0.2c0.3-0.1 0.6-0.2 1-0.2 0.4-0.1 0.8-0.2 1.2-0.3l0.6-0.2c0.4-0.1 0.8-0.2 1.2-0.3 0.4-0.1 0.9-0.2 1.3-0.4l0.7-0.2c0.3-0.1 0.6-0.2 1-0.3 0.7-0.2 1.4-0.4 2.1-0.7 0.7-0.2 1.3-0.4 1.9-0.7l0.2-0.1c0.5-0.2 1-0.3 1.5-0.5 0.3-0.1 0.7-0.3 1-0.4l0.5-0.2c0.5-0.2 0.9-0.3 1.3-0.5 0.4-0.1 0.7-0.3 1.1-0.4l0.7-0.3c0.3-0.1 0.7-0.3 1.1-0.4 0.4-0.2 0.8-0.3 1.1-0.5l1.7-0.7c0.4-0.2 0.8-0.4 1.2-0.5l0.5-0.2c0.4-0.2 0.7-0.3 1.1-0.5 0.5-0.2 0.9-0.5 1.4-0.7 0.4-0.2 0.9-0.4 1.3-0.6 0.5-0.2 0.9-0.5 1.4-0.7 0.4-0.2 0.9-0.5 1.3-0.7 0.4-0.2 0.9-0.5 1.4-0.7 0.4-0.2 0.8-0.5 1.3-0.7 0.4-0.3 0.9-0.5 1.3-0.8 0.4-0.3 0.9-0.5 1.3-0.8 0.4-0.3 0.9-0.5 1.3-0.8 0.4-0.3 0.9-0.5 1.2-0.8 0.4-0.3 0.9-0.6 1.3-0.8 0.4-0.3 0.8-0.6 1.3-0.8l0.2-0.2c0.3-0.2 0.7-0.5 1-0.7 0.4-0.3 0.9-0.6 1.2-0.9l0.2-0.1c0.4-0.3 0.7-0.5 1.1-0.8 0.4-0.3 0.8-0.6 1.2-0.9l0.3-0.3c0.3-0.2 0.6-0.4 0.8-0.6 0.4-0.3 0.7-0.6 1.1-0.8l0.4-0.3c0.3-0.2 0.6-0.5 0.9-0.7 0.3-0.3 0.6-0.5 1-0.8l0.5-0.4c0.2-0.2 0.5-0.4 0.7-0.6 0.1 0 0.1-0.1 0.2-0.2 9.1-7.8 17-16.9 23.5-27 0-0.1 0.1-0.1 0.1-0.2 0.1-0.2 0.2-0.3 0.3-0.5l0.1-0.1c0.4-0.6 0.8-1.3 1.2-1.9l0.6-1c0.4-0.6 0.7-1.2 1-1.8 0.2-0.3 0.4-0.7 0.6-1 0.3-0.6 0.6-1.2 1-1.8l0.1-0.2c0.2-0.3 0.3-0.6 0.5-0.9 0.3-0.6 0.6-1.2 0.9-1.8 0.2-0.4 0.4-0.7 0.6-1.1 0.3-0.6 0.6-1.2 0.9-1.8 0.2-0.4 0.3-0.7 0.5-1.1 0.3-0.7 0.6-1.4 0.9-2l0.4-0.9c0.4-1 0.8-1.9 1.2-2.9 0-0.1 0-0.1 0.1-0.2 0.4-0.9 0.7-1.9 1.1-2.9l0.4-1c0.2-0.7 0.5-1.3 0.7-2 0.1-0.3 0.2-0.6 0.3-0.9l0.2-0.6c0.2-0.5 0.3-1.1 0.5-1.6 0.1-0.4 0.2-0.7 0.3-1.1l0.1-0.3c0.2-0.6 0.3-1.2 0.5-1.7 0.1-0.5 0.3-1 0.4-1.5 0.1-0.6 0.3-1.1 0.4-1.7 0.1-0.5 0.2-1 0.4-1.5 0.1-0.6 0.3-1.2 0.4-1.8l0.1-0.3c0.1-0.4 0.2-0.8 0.3-1.2 0.1-0.6 0.2-1.2 0.3-1.7l0-0.3c0.1-0.4 0.2-0.8 0.2-1.2 0.1-0.5 0.2-1 0.3-1.5l0.1-0.7c0.1-0.3 0.1-0.7 0.2-1 0.1-0.8 0.2-1.6 0.3-2.5l0-0.2c0-0.2 0.1-0.4 0.1-0.6C254.1 337.4 206.3 276.1 139.2 267.8zM174.7 381.6v-6c0.1 0 0.2-0.1 0.3-0.1 1.1 1.2 1.8 2.9 1.8 4.8 0 2.2-0.9 4.1-2.3 5.2C174.6 384.2 174.7 382.9 174.7 381.6zM71.6 380.3c0-1.9 0.7-3.6 1.8-4.8 0.1 0 0.3 0.1 0.4 0.1v6c0 1.3 0.1 2.7 0.2 4C72.6 384.4 71.6 382.5 71.6 380.3zM85.9 355.4c0 0 0 0 0 0 -0.6 0-1.2 0.1-1.7 0.2 0 0-0.1 0-0.1 0v-1.9c0-23.5 17.2-42.6 38.3-42.6h3.9c21.1 0 38.3 19.1 38.3 42.6v1.9c-11.3-3.1-15.3-20.2-15.3-20.3 -0.7-3.2-3.2-5.6-6.3-6.3 -3.2-0.6-6.4 0.8-8.2 3.5C119.5 355.1 86.4 355.4 85.9 355.4zM89.9 381.6v-10.3c9.2-0.7 31.8-3.8 48.6-19 3.8 7.2 10.1 15.1 20.1 18.4v11c0 18.6-13.5 33.8-30.2 33.8h-8.3C103.5 415.4 89.9 400.2 89.9 381.6zM132.6 431.2v4.9l-8.3 8.6 -7.8-7.6v-5.9c1.2 0.1 2.3 0.2 3.5 0.2h8.3C129.8 431.5 131.2 431.4 132.6 431.2zM187.3 475.2c-0.3 0.2-0.6 0.4-0.9 0.6l-0.2 0.1c-0.3 0.2-0.7 0.5-1 0.7 -0.3 0.2-0.6 0.4-0.8 0.6l-0.2 0.2c-0.4 0.2-0.7 0.5-1.1 0.7 -0.4 0.2-0.7 0.5-1.1 0.7 -0.4 0.2-0.7 0.5-1.1 0.7 -0.4 0.2-0.8 0.5-1.1 0.7 -0.4 0.2-0.7 0.5-1.1 0.7 -0.4 0.2-0.8 0.5-1.1 0.7 -0.4 0.2-0.8 0.4-1.1 0.7 -0.4 0.2-0.8 0.4-1.2 0.6 -0.4 0.2-0.8 0.4-1.2 0.6 -0.4 0.2-0.8 0.4-1.2 0.6 -0.4 0.2-0.7 0.4-1.1 0.5 0 0-0.1 0-0.1 0 -0.4 0.2-0.8 0.4-1.2 0.6 -0.3 0.1-0.6 0.3-0.9 0.4l-0.5 0.2c-0.3 0.2-0.7 0.3-1 0.5l-1.5 0.7c-0.3 0.1-0.6 0.3-0.9 0.4l-1.6 0.7c-0.3 0.1-0.6 0.2-0.9 0.3 -0.4 0.1-0.7 0.3-1.1 0.4l-0.6 0.2c-0.3 0.1-0.5 0.2-0.8 0.3 -0.4 0.2-0.8 0.3-1.2 0.4l-0.2 0.1c-0.6 0.2-1.1 0.4-1.7 0.6 -0.6 0.2-1.2 0.4-1.8 0.6 -0.2 0.1-0.5 0.1-0.7 0.2l-0.8 0.2c-0.3 0.1-0.7 0.2-1.1 0.3 -0.3 0.1-0.6 0.2-0.9 0.2l-0.7 0.2c-0.3 0.1-0.7 0.2-1 0.3 -0.2 0.1-0.5 0.1-0.8 0.2l-0.8 0.2c-0.3 0.1-0.7 0.2-1 0.2l-1.3 0.3c-0.4 0.1-0.9 0.2-1.3 0.3 -0.4 0.1-0.8 0.2-1.3 0.3 -0.5 0.1-0.9 0.2-1.4 0.3 -0.4 0.1-0.8 0.1-1.3 0.2 -0.5 0.1-0.9 0.2-1.4 0.2 -0.4 0.1-0.9 0.1-1.3 0.2 -0.5 0.1-0.9 0.1-1.4 0.2l-1.3 0.2c-0.5 0.1-0.9 0.1-1.4 0.1 -0.4 0-0.9 0.1-1.3 0.1 -0.5 0-1 0.1-1.4 0.1l-0.2 0c-0.4 0-0.7 0.1-1.1 0.1 -0.5 0-1 0.1-1.4 0.1l-0.2 0c-0.4 0-0.7 0-1.1 0 -0.5 0-1 0-1.5 0l-0.2 0c-0.4 0-0.7 0-1.1 0 -0.5 0-1 0-1.5 0l-0.2 0c-0.4 0-0.7 0-1.1 0 -0.4 0-0.7 0-1.1 0l-1.6-0.1c-0.5 0-0.9 0-1.4-0.1l-1.4-0.1c-0.5 0-1-0.1-1.6-0.1l-1.2-0.1c-0.9-0.1-1.9-0.2-2.8-0.3 0 0 0 0-0.1 0 0 0 0 0 0 0 -0.9-0.1-1.9-0.2-2.8-0.4l-1.3-0.2c-0.5-0.1-1-0.2-1.5-0.2l-1.4-0.3c-0.5-0.1-0.9-0.2-1.4-0.3l-1.5-0.3c-0.4-0.1-0.8-0.2-1.2-0.3 -0.3-0.1-0.7-0.2-1-0.2l-0.3-0.1c-0.5-0.1-0.9-0.2-1.4-0.4 -0.3-0.1-0.6-0.2-0.9-0.3l-0.3-0.1c-0.5-0.1-1-0.3-1.4-0.4 -0.4-0.1-0.8-0.2-1.2-0.4 -0.5-0.1-0.9-0.3-1.4-0.4 -0.4-0.1-0.8-0.3-1.2-0.4 -0.5-0.2-0.9-0.3-1.3-0.4l-1.2-0.4c-0.4-0.2-0.9-0.3-1.3-0.5 -0.4-0.2-0.8-0.3-1.2-0.5 -0.4-0.2-0.9-0.3-1.3-0.5 -0.4-0.2-0.8-0.3-1.2-0.5 -0.4-0.2-0.9-0.4-1.3-0.6 -0.4-0.2-0.8-0.3-1.2-0.5 -0.4-0.2-0.9-0.4-1.3-0.6 -0.4-0.2-0.8-0.4-1.2-0.5 -0.3-0.1-0.6-0.3-0.9-0.5l-0.6-0.3c-0.3-0.1-0.6-0.3-0.9-0.4 -0.4-0.2-0.8-0.4-1.2-0.7l-0.4-0.2c-0.2-0.1-0.5-0.2-0.7-0.4 -0.4-0.2-0.7-0.4-1-0.6l-0.6-0.3c-0.2-0.1-0.4-0.2-0.7-0.4 -0.3-0.2-0.6-0.4-0.9-0.5l-0.7-0.4c-0.2-0.1-0.4-0.3-0.6-0.4 -0.5-0.3-1.1-0.7-1.6-1 -0.5-0.3-1-0.6-1.5-1l-0.2-0.2c-0.4-0.2-0.7-0.5-1.1-0.7 -0.2-0.2-0.5-0.3-0.7-0.5l-0.6-0.4c-0.3-0.2-0.6-0.4-0.9-0.6 -0.3-0.2-0.5-0.4-0.8-0.6l-0.6-0.4c-0.2-0.2-0.5-0.4-0.7-0.5 -0.3-0.2-0.6-0.4-0.8-0.6l-0.1-0.1c0 0 0-0.1 0.1-0.1 4.6-11.4 14.7-15.1 15-15.2 0.1 0 0.2-0.1 0.4-0.1l28.9-11.3 15.3 14.9c1.5 1.5 3.5 2.3 5.6 2.3 0 0 0.1 0 0.1 0 2.1 0 4.2-0.9 5.7-2.5l14.5-15 28.9 11.6c0.1 0.1 0.2 0.1 0.4 0.1 0.5 0.2 10.6 3.9 15.1 15.3l-0.8 0.6C188 474.6 187.7 474.9 187.3 475.2z" class="i"/></svg>